<svg version="1.1" xmlns="http://www.w3.org/2000/svg" xmlns:xlink="http://www.w3.org/1999/xlink" viewBox="0 0 83.7 100" preserveAspectRatio="xMidYMid meet">
	<g class="js-svgBg svgBg" data-svg-origin="41.75020217895508 57.64999771118164" style="transform-origin: 0px 0px 0px; transform: matrix(1, 0, 0, 1, 0, 0); fill: rgb(255, 255, 255);">
		<path d="M42.2,99.4h-0.9C18.6,99.4,0,80.8,0,58.1v-0.9c0-22.9,18.6-41.3,41.3-41.3h0.9c22.9,0,41.3,18.6,41.3,41.3v0.9
			C83.6,80.8,65.1,99.4,42.2,99.4z"></path>
	</g>
	<defs>
		<path id="SVGID_1_AT5HKAX_CHARACTER-ITEM-PANEL" d="M42.2,99.4h-0.9C18.6,99.4,0,80.8,0,58.1v-0.9C0,34.3,0.2,0,0.2,0h83.2c0,0,0.2,34.3,0.2,57.2v0.9C83.6,80.8,65.1,99.4,42.2,99.4z"></path>
	</defs>
	<clipPath class="js-svgMask svgMask" id="SVGID_2_AT5HKAX_CHARACTER-ITEM-PANEL" data-svg-origin="42 60.99999237060547" style="transform-origin: 0px 0px 0px; transform: matrix(1, 0, 0, 1, 0, 0);">
		<use xlink:href="#SVGID_1_AT5HKAX_CHARACTER-ITEM-PANEL" overflow="visible"></use>
	</clipPath>
	<g clip-path="url(#SVGID_2_AT5HKAX_CHARACTER-ITEM-PANEL)">
		<g class="js-svgCharacter svgCharacter" data-svg-origin="-2.799999952316284 8.655295372009277" style="opacity: 1; transform: matrix(1, 0, 0, 1, 0, 0);">
			<g class="js-characterinnerGroup characterinnerGroup" data-svg-origin="42.04999852180481 106.16552867889405" style="transform-origin: 0px 0px 0px; transform: matrix3d(0.996197, -0.0871265, 0, 0, 0.0871265, 0.996197, 0, 0, 0, 0, 1, 0, -9.08993, 4.06739, 0, 1);"><path fill="#80CBC4" d="M28.8 69.1c-.1-.2-.9-2.4-.9-2.4l2.6-1.9 3.9-.9.6 3.3-6.2 1.9z"></path><path fill="#5C6BC0" d="M32.8 63.6c-.2 0-4.2.6-6.6 3.8-2.4 3.3-2.2 6.7-2 9.4l1.5-.1c-.2-2.6-.4-5.6 1.7-8.5 2-2.7 5.6-3.2 5.6-3.2l-.2-1.4z"></path><path fill="#80CBC4" d="M58.3 70.2l-3.5-4.6L52 65l-.9 1 2.6 3.1z"></path><path fill="#5C6BC0" d="M51.1 63.5V65s3.1.1 5.5 3.2l1.2-.9c-2.9-3.6-6.6-3.8-6.7-3.8z"></path><path fill="#80CBC4" d="M54 68.5H30.2l-.2-2.2h24z"></path><path fill="#FFCCBC" d="M57.1 69.5c-3.2-1.9-5.1-4-5.1-6.9V56H32v6.6c0 3.6-2.9 5.9-7.4 8.1C23 71.5 42 98 42 98s17.2-27.2 15.1-28.5z"></path><path fill="#FFAB91" d="M52 58.9V54H32v4.9c3 2.6 4.8 5.1 8.9 5.1h2.2c4.1 0 5.9-2.5 8.9-5.1z"></path><path fill="#FFF" d="M82.9 92.7C81.7 81 72.3 76.9 67.4 74.8l-8-3.6-17.2 28.6L24.6 71l-8 3.3C11.7 76.4 2.3 81 1.1 92.7L-2.8 117h89.7l-4-24.3z" class="js-offwhiteGroup offwhiteGroup"></path><g class="js-headGroup headGroup" data-svg-origin="42.55000305175781 56.66552867889404" style="transform-origin: 0px 0px 0px; transform: matrix3d(0.989095, 0.147276, 0, 0, -0.147276, 0.989095, 0, 0, 0, 0, 1, 0, 8.80945, -5.64868, 0, 1);"><path fill="#7986CB" d="M66.3 43c1.2.3 3-1.1 3-1.1s-1.7.2-2.8-.4c-.2-.1-.4-.3-.7-.5-.1-.1-.1-.2-.2-.3-2.8-3.6-2.6-8.2-2.4-11 .6-6.2-3-14.4-16-19.1l-16.3 6.3c-6.1-1.4-10.2 6.5-10.1 12.8 0 1.5 0 2.8-.1 4 0-.1-.1-.1-.1-.1s.1 5.3-1.7 7.3c-1.3 1.9-3.1 3.5-3.1 3.5s.8-.1 1.9-.4v.1c-.3 2.2 1.5 4.3 4.5 3.9.1.3.1.6.2.8.3.9 1.7 1.7 1.7 1.7s-.5-1.4-.4-2.5c.6 1.5 1.6 2.7 4.1 4.2L56 52c3.9-3.7 8-.9 8.9-7v-.2c.4 1 .2 3.3.2 3.3s1.5-2.7 1.3-4c-.1-.5-.5-.9-.9-1.3.4 0 .6.1.8.2z"></path><path fill="#9FA8DA" d="M33.5 18L30 16.9c-3-1.2-6.3 1.7-8.3 5.4-3.1 6-1.3 11.3-1.3 11.3l.7-1c.6-.5 1.5-1.2 2.2-2 2-2.2 3.2-4.8 4.5-7 1.8-3 4.8-4.2 5.9-2.8.4.3.2-.8-.2-2.8z"></path><path fill="#FFAB91" d="M57.2 35.1c1.7-1 3.5.5 3.3 4.2-.2 4.7-1.7 6.4-4 6.4-2.9 0-.6-10-.6-10l1.3-.6z"></path><path fill="#9FA8DA" d="M34 14.3h15.6V26H34z"></path><path fill="#7986CB" d="M53.9 18.1c-2-3.5-3.5-6.7-11.9-8.5l-2.6 5.7c4.5.4 7.6 5.4 9.4 7.6 4.4 5.2 6.2-2.8 5.1-4.8z"></path><path fill="#FFAB91" d="M26.9 35.1c-1.7-1-3.5.5-3.3 4.2.2 4.7 1.7 6.4 4 6.4 2.9 0 .6-10 .6-10l-1.3-.6z"></path><path fill="#7986CB" d="M27.2 31.1l.4 10.9c-.7-.5-1.6-1.2-1.7-2.1l-.7-5.2.9-5.2 1.1 1.6z"></path><path fill="#FFCCBC" d="M53.8 22.8c-.8-2.5-2.2-3.4-4.7-2.8-2.6.6-4.2 1.5-7 1.5-2.9 0-4.5-.8-7-1.5-2.6-.6-3.9.3-4.7 2.8l-3.1 9.6L28 52s2.3 3 4.3 4.9c2.9 2.7 4.5 5.1 8.7 5.1h2.2c4.2 0 5.7-2.4 8.7-5.1 2-1.9 4.3-4.8 4.3-4.8l.7-19.7-3.1-9.6z"></path><path fill="#FFAB91" d="M42 54h-.9c-1.1 0-1.8.1-2.2-.1 0 0 .9.9 3.1.9M37.9 50.2h6.9v2.4h-6.9z"></path><path fill="#7986CB" d="M54.2 31c-.6-.9-1.2-1.5-2.2-1.4-2.5.2-7.2 1-7.2 1v1.3l1.3.9 5.9-1.5c.7-.2 1.1-.1 1.6.3l1.5 1-.9-1.6z" class="js-eyebrowRightGroup eyebrowRightGroup" data-svg-origin="49.94999885559082 31.194567680358887" style="transform-origin: 0px 0px 0px; transform: matrix3d(0.965949, 0.258734, 0, 0, -0.258734, 0.965949, 0, 0, 0, 0, 1, 0, 9.77196, -12.8612, 0, 1);"></path><path fill="#FFAB91" d="M42 54h.9c1.1 0 1.8.1 2.2-.1 0 0-.9.9-3.1.9"></path><path fill="#7986CB" d="M42.7 48h-1.3l-6.8 3.7s.4 1.5 2.1 1.5c1.7 0 4.4-.7 5.3-2.1.9 1.3 3.6 2 5.3 2s2.1-1.4 2.1-1.4L42.7 48z"></path><path fill="#9FA8DA" d="M59.5 20.1c1.5.5 1.5 2.7-.3 2.5-2.2-.2-3.1-3.4-4.3-5.4-2-3.5-4.3-6.5-12.6-8.3-5.5-1.2-11.5 2.1-11.5 8l1.9 3c.6-.1 1.3-.1 2.1.1-.8-5.1 4.8-4.6 4.8-4.6 4.5.4 8 4.1 9.8 6.3 4.3 5.2 9.9 6.1 12 3 1.8-2.4.1-4.6-1.9-4.6z"></path><path fill="#FFAB91" d="M42 49.3l2-1.4c.7-.5 1-1.4.8-2.2l-.7-2.7c-.4-1.5-1.1-2.9-2.1-4.1v10.4z"></path><path fill="#FFCCBC" d="M42 49.3l-3.1-2.2 1.6-6.3 1.5-1.9z"></path><circle fill="#7986CB" cx="35.1" cy="36.7" r="1.7"></circle><path fill="#FFAB91" d="M39.2 37c-1.3-.9-2.8-1.8-4.4-1.8-1.5 0-3.1.7-4.3 1.6 1-1.2 2.7-2.1 4.3-2.1 1.7 0 3.4 1 4.4 2.3z"></path><path fill="#7986CB" d="M29.9 31c.6-.9 1.2-1.5 2.2-1.4 2.5.2 7.2 1 7.2 1v1.3l-1.3.9-5.9-1.5c-.7-.2-1.1-.1-1.6.3l-1.5 1 .9-1.6z" class="js-eyebrowLeftGroup eyebrowLeftGroup" data-svg-origin="34.14999866485596 31.194567680358887" style="transform-origin: 0px 0px 0px; transform: matrix3d(0.965949, -0.258734, 0, 0, 0.258734, 0.965949, 0, 0, 0, 0, 1, 0, -6.90824, 8.89832, 0, 1);"></path><path fill="#7986CB" d="M56.8 31.1L56.4 42c.7-.5 1.6-1.2 1.7-2.1l.7-5.2-.9-5.2-1.1 1.6z"></path><circle fill="#7986CB" cx="49" cy="36.7" r="1.7"></circle><path fill="#FFAB91" d="M44.9 37c1-1.4 2.7-2.3 4.4-2.3 1.6 0 3.3.9 4.3 2.1-1.3-.8-2.8-1.6-4.3-1.6-1.6.1-3.1.9-4.4 1.8zM37.5 38.2c-1.7 1-4.1 1-5.7-.2.9.1 1.9.3 2.8.4 1.1 0 2-.1 2.9-.2zM46.5 38.2c.9.1 1.9.2 2.8.2 1 0 1.9-.2 2.8-.4-1.5 1.2-3.9 1.3-5.6.2z"></path><g display="none" class="js-blinkGroup blinkGroup" style="display: none;"><path fill="#FFCCBC" d="M30.6 37.8l3.9.9 7.3-1.2 7.6 1.3 5.1-1.7-1.2-3.4-11.8 1L31 33.4l-1.6 2.9z"></path><path fill="#FFAB91" d="M37.5 38.2c-1.7 1-4.1 1-5.7-.2.9.1 1.9.3 2.8.4 1.1 0 2-.1 2.9-.2zM46.5 38.2c.9.1 1.9.2 2.8.2 1 0 1.9-.2 2.8-.4-1.5 1.2-3.9 1.3-5.6.2z"></path></g></g><path fill="#FFAB91" d="M40.5 67.4c2.4.5 3.8.7 4.1-.9 0 0 0 1.5-.9 1.9-1 .3-3.2-1-3.2-1z"></path><path fill="#80CBC4" d="M53.5 115.1l4.7-15.2-1.7-31.2-2.5-2.5-12 27.7-12-27.7-2.5 2.5 1.9 38.8.6 7.6"></path><path fill="#4DB6AC" d="M42 107.6L26 73.7l.5-.2L42 106.3l15.5-32.8.5.2z"></path><path fill="#E8F5E9" d="M20.9 98.8l8.3 18.2H35c-.7-6-1.4-7.4-2-10.5-3.1-15.3-3.6-15.9-4.7-39.2l-5.6 4.1-4.4 18.4 6 2-3.4 7zM56.2 117l7.9-25.2-4.5-7.3 6.3-3.2-4.6-10.1-5.7-4.2s-1 19.8-4.7 38c-.6 3-2.2 5.9-2.6 11.9h7.9z"></path><path fill="#5C6BC0" d="M61.2 78.4l-.1-2.4v-.1c-.1-.3-1.6-6.4-3.3-8.6-.5-.7-1.1-1.3-1.8-1.8l-.9 1.2c.6.4 1.1 1 1.5 1.6 1.2 1.6 2.6 6.2 3 8l.1 2.3c-.6.5-2 1.9-3.4 3.7l1.2.9c1.3-1.6 2.5-2.8 3.1-3.4.7.4 2.2 1.4 3.7 2.8l1-1.1c-1.8-1.6-3.4-2.7-4.1-3.1z"></path><path fill="#BDBDBD" d="M70.3 104.5l-1.4-14.4c-.3-3.5-1.7-6.4-3.9-8.3l-.5.6c2 1.8 3.3 4.5 3.6 7.8l1.3 13.8-1.8.7c-.4-.4-1.1-.9-1.6-.8-.7.3-.5 1-.2 1.8s.6 1.4 1.3 1.2c.4-.2.6-.9.6-1.5l2.6-.9zM59.8 104.5c-.5-.1-1.1.6-1.4 1l-1.8-.3-1.3-13.8c-.3-3.4.3-6.2 2-8.4l-.6-.5c-1.8 2.3-2.5 5.3-2.2 8.9l1.4 14.4 2.4.5c.1.5.4 1.3.9 1.3.7.1.9-.5 1.1-1.4s.2-1.5-.5-1.7z"></path><g><path fill="#5C6BC0" d="M28.4 101.3l-1.2-.3-1.5-23.6c0-.3 0-.5-.1-.8-.2-2.6-.4-5.6 1.7-8.5.6-.8 1.4-1.5 2.3-2l-.7-1.3c-1.1.7-2 1.5-2.7 2.4-2.4 3.3-2.2 6.7-2 9.4 0 .3 0 .5.1.8l1.5 23.6c-1.3.3-2.5 1.3-3 2.7-.9 2.2.3 4.8 2.5 5.6 2.2.9 4.8-.3 5.6-2.5.9-2.1-.2-4.6-2.5-5.5z"></path></g><g><circle fill="#9FA8DA" cx="26.9" cy="105.4" r="3.2"></circle></g></g>
		</g>
	</g>
</svg>