<svg version="1.1" xmlns="http://www.w3.org/2000/svg" xmlns:xlink="http://www.w3.org/1999/xlink" viewBox="0 0 83.7 100" preserveAspectRatio="xMidYMid meet">
	<g class="js-svgBg svgBg" data-svg-origin="41.75020217895508 57.64999771118164" style="transform-origin: 0px 0px 0px; transform: matrix(1, 0, 0, 1, 0, 0); fill: rgb(255, 255, 255);">
		<path d="M42.2,99.4h-0.9C18.6,99.4,0,80.8,0,58.1v-0.9c0-22.9,18.6-41.3,41.3-41.3h0.9c22.9,0,41.3,18.6,41.3,41.3v0.9
			C83.6,80.8,65.1,99.4,42.2,99.4z"></path>
	</g>
	<defs>
		<path id="SVGID_1_CX4LLG_CHARACTER-ITEM-PANEL" d="M42.2,99.4h-0.9C18.6,99.4,0,80.8,0,58.1v-0.9C0,34.3,0.2,0,0.2,0h83.2c0,0,0.2,34.3,0.2,57.2v0.9C83.6,80.8,65.1,99.4,42.2,99.4z"></path>
	</defs>
	<clipPath class="js-svgMask svgMask" id="SVGID_2_CX4LLG_CHARACTER-ITEM-PANEL" data-svg-origin="42 60.99999237060547" style="transform-origin: 0px 0px 0px; transform: matrix(1, 0, 0, 1, 0, 0);">
		<use xlink:href="#SVGID_1_CX4LLG_CHARACTER-ITEM-PANEL" overflow="visible"></use>
	</clipPath>
	<g clip-path="url(#SVGID_2_CX4LLG_CHARACTER-ITEM-PANEL)">
		<g class="js-svgCharacter svgCharacter" data-svg-origin="-3.2000043392181396 9.0625" style="opacity: 1; transform: matrix(1, 0, 0, 1, 0, 0);">
			<g class="js-characterinnerGroup characterinnerGroup" data-svg-origin="41.99999642372131 107.19624176025391" style="transform-origin: 0px 0px 0px; transform: matrix(1, 0, 0, 1, 0, 0);"><path fill="#FFCCBC" d="M31 53.4l21.9-.1.5 37.7h-23"></path><g class="js-headGroup headGroup"><g class="js-headinnerGroup headinnerGroup" data-svg-origin="41.70000076293945 61.0625" style="transform-origin: 0px 0px 0px; transform: matrix(1, 0, 0, 1, 0, 0);"><path fill="#3949AB" d="M60.7 21.6c-1.8-3.7-5-5.4-7.5-5.8-.7-3.5-6-7.8-13.5-6.5-5.4 1-8.9 3.1-12 6.2-2.8 2.7-4.1 5.9-8.4 7.4-.5.1-1 .3-1.6.5 1.1 1.3 2.4 2.4 3.6 3.2-.6.1-3.4 0-3.4 0s1.2 1.3 3.2 2.2c-.4 5.8-.2 9.6 2.2 13.2 2.6 6.9 7.5 7.5 7.5 7.5l23.8-1.1s2.7-3 2.8-3c3.7-.5 6.1-4.8 6.4-8.2.6-6.5-.6-11.6-3.1-15.6z"></path><path fill="#FFAB91" d="M58 43.3c-.1.6-.3 1.2-.5 1.7-.9 2.2-2.8 3.4-2.8 3.4s-3.7.5-1.5 1.3c4.1 1.4 6.1-1.7 7.1-6.7.1-.3.1-.6.1-.9-.6.5-1.4.9-2.4 1.2zM50 62.4c1.2-1.4 3-3.2 3-4.4v-4H31v4.3c0 1.2 1.6 2.8 2.7 4.1 2.6 3.1 2.9 4.3 8.2 4.3 5.2 0 5.5-1.3 8.1-4.3zM28.9 48.3s-1.9-1.2-2.8-3.4c-.8-1.9-.9-5.6-.9-6.5-.2 0-.4.1-.6.2-1.2.5-1.8 1.8-1.3 4.3 1 5 3.1 8.2 7.1 6.7 2.2-.8-1.5-1.3-1.5-1.3z"></path><path fill="#FFCCBC" d="M56.8 40.1c-.5-3.9.6-10.6.2-12.4-1.1-5.4-4.5-6.3-4.5-6.3s-.5-1.7-1.7-1.5c-1.1.3-6.9 2.4-6.9 2.4s-5.4-.4-9.8.8c-2.5.7-3.1 5.5-6.2 5v.1c-.4 1.8-.5 7.8-1 11.8-.1.7-.1 1.5.1 2.2.6 3 1.8 8.7 2.2 10.9.1.6.4 1.2.7 1.7.7 1.1 2.1 3.3 3.5 4.8 2.6 3.1 3.2 4.7 8.4 4.7s5.8-1.6 8.4-4.7c1.3-1.6 2.8-3.7 3.5-4.8.3-.5.6-1.1.7-1.7.5-2.2 1.7-8 2.2-10.9.2-.6.2-1.4.2-2.1z"></path><path fill="#FFCCBC" d="M38 46.7l2.5-7.6 1.3-.9V50l-3-1.3c-.7-.3-1.1-1.2-.8-2z"></path><path fill="#3949AB" d="M44.1 37.2l.4-.4 1.3-1.2 3.5-1.3c1.1-.4 2.4-.4 3.5.1l2.4 1-.2.6-5.2.6-5.7.6z" class="js-eyebrowRightGroup eyebrowRightGroup"></path><path fill="#FFAB91" d="M45.7 46.7l-2.5-7.6-1.3-.9V50l3-1.3c.6-.3 1-1.2.8-2z"></path><path fill="#3949AB" d="M39.6 37.2l-.4-.4-1.3-1.2-3.5-1.3c-1.1-.4-2.4-.4-3.5.1l-2.4 1 .2.6 5.2.6 5.7.6z" class="js-eyebrowLeftGroup eyebrowLeftGroup"></path><path fill="#81D4FA" d="M51.3 35.4c-3.2 0-8.3 1.7-9.4 1.7-1.1 0-6.1-1.7-9.3-1.7-2.7 0-5.5 1.1-6.5 1.3v2.2s1.1.1 1.7 1c.5 1.5.8 2.6 1.3 3.7.3.8 1.4 1.6 2.2 1.8.8.3 3.8.2 4.9 0 1.2-.2 2.2-.8 2.8-1.7 1-1.5 1.6-3.5 1.6-4.4.4-.7 1.4-.8 1.4-.8s.9.1 1.4.8c0 .9.6 2.9 1.6 4.4.6.9 1.7 1.5 2.8 1.7s4.1.3 4.9 0c.8-.3 1.9-1 2.2-1.8.4-1.2 1-2.2 1.4-3.7.6-.9 1.9-1 1.9-1v-2.2c-1.2-.3-4.2-1.3-6.9-1.3z"></path><path fill="#4FC3F7" d="M39 38.2c-1.5-.7-4.5-1.1-6.2-1.1-1.1 0-2.6.3-3.9.6-.1 0 .6 3 1 4.5.2.8.8 1.6 1.6 1.9.6.3 3.8.2 4.6 0 .7-.2 1.3-.6 1.7-1.2 1.5-1.9 1.2-4.7 1.2-4.7z"></path><path fill="#81D4FA" d="M26 38.9l-1.2-.5.4-1.3.8-.4z"></path><path fill="#4FC3F7" d="M44.6 38.2c1.5-.7 4.5-1.1 6.2-1.1 1.1 0 2.6.3 3.9.6.1 0-.6 3-1 4.5-.2.8-.8 1.6-1.6 1.9-.6.3-3.8.2-4.6 0-.7-.2-1.3-.6-1.7-1.2-1.5-1.9-1.2-4.7-1.2-4.7z"></path><defs><path id="mask_1__CX4LLG_CHARACTER-ITEM-PANEL" d="M54.7 37.7c-1.3-.4-2.9-.6-3.9-.6-1.7 0-4.7.4-6.2 1.1 0 0-.3 2.8 1.2 4.8.4.6 1 1 1.7 1.2.7.2 3.9.3 4.6 0 .8-.4 1.4-1.1 1.6-1.9.4-1.6 1.1-4.6 1-4.6z"></path></defs><clipPath id="mask_2__CX4LLG_CHARACTER-ITEM-PANEL"><use xlink:href="#mask_1__CX4LLG_CHARACTER-ITEM-PANEL" overflow="visible"></use></clipPath><g clip-path="url(#mask_2__CX4LLG_CHARACTER-ITEM-PANEL)"><path fill="#52D2FF" d="M37.2 45.4l3.9-9.3 4.4.4-3.7 9z" class="js-highlightRightGroup highlightRightGroup" data-svg-origin="37.20000076293945 36.10000228881836" style="transform: matrix(1, 0, 0, 1, 20, 0);"></path></g><defs><path id="mask_CX4LLG_CHARACTER-ITEM-PANEL" d="M39 38.2c-1.5-.7-4.5-1.1-6.2-1.1-1.1 0-2.6.3-3.9.6-.1 0 .6 3 1 4.5.2.8.8 1.6 1.6 1.9.6.3 3.8.2 4.6 0 .7-.2 1.3-.6 1.7-1.2 1.5-1.9 1.2-4.7 1.2-4.7z"></path></defs><clipPath id="mask_3__CX4LLG_CHARACTER-ITEM-PANEL"><use xlink:href="#mask_CX4LLG_CHARACTER-ITEM-PANEL" overflow="visible"></use></clipPath><g clip-path="url(#mask_3__CX4LLG_CHARACTER-ITEM-PANEL)"><path fill="#52D2FF" d="M20.4 46.7l4.4-10.6 4.6-.1-4.2 10.4z" class="js-highlightLeftGroup highlightLeftGroup" data-svg-origin="20.399999618530273 36" style="transform: matrix(1, 0, 0, 1, 20, 0);"></path></g><g fill="#FFAB91"><path d="M43 52.5l-1.2.7-1.2-.7c-.3-.2-.7-.2-1 0-.8.5-2.6 1.5-3.6 1.4l.7.2c.4.1.8.1 1.2 0 .6-.2 1.5-.4 1.9-.4 1.2 0 2.1.6 2.1.6s.9-.6 2.1-.6c.4 0 1.3.2 1.9.4.4.1.8.1 1.2 0l.7-.2c-1 0-2.8-.9-3.6-1.4-.5-.1-.9-.1-1.2 0zM38.2 55.4s1.2 1.5 3.6 1.5 3.6-1.5 3.6-1.5c-1 .3-2.7.6-3.6.6-.9 0-2.6-.3-3.6-.6z"></path></g><path fill="#FFAB91" d="M40.1 59.9c1-.6 2.4-.5 3.4 0-1.1.3-2.3.2-3.4 0z"></path><path fill="#3949AB" d="M56.2 21.4c-.3-2.6-1.9-4-1.9-4l-25.2.2s-1.7 12.6-1.3 10.8v-.1c3.1.5 5.9 0 8.5-.7 4.4-1.3 7.5-5.1 7.5-5.1s-.2 2.2-3.2 4.7c0 0 3.7-1 5.6-3 1.3-1.4 2.8-2.1 4-2.4 1.2-.2 2.1-.3 2.1-.3l3.9-.1z"></path><path fill="#283593" d="M42.6 16c-2.8-.5-5.6 2.5-6.3 5.1-.4-2.8 3.4-6.8 6.3-5.1zM28.7 18.7c2.3-2.5 5.9-4.5 9.5-3.8-3.5.5-6.4 2.1-9.5 3.8z"></path><path fill="#3949AB" d="M32.6 52.6c.5.7 2 1.1 3.9.4 1.1-.4 2.1-1 2.8-1.3 2.3-1 1.1-2.8-.5-2.5-2.4.4-2.7 2.8-6.2 3.4zM51 52.6c-.5.7-2 1.1-3.9.4-1.1-.4-2.1-1-2.8-1.3-2.3-1-1.1-2.8.5-2.5 2.4.4 2.7 2.8 6.2 3.4zM29.8 25.8c-1.1 2.8-2.9 9.7-1.9 12.2l-1.5-.7s1.7 3.2 3 4.3c0 0-3.7-1-5.6-3-1.2-1.2-.7-11.4-.7-11.4l6.7-1.4z"></path><path fill="#3949AB" d="M62.9 30.6c-.6-7.6-9-12.4-9-12.4s-3.7 1.5-3.1 1.8 1.7 1.5 1.7 1.5 2.7 3.9 3.4 6.9c.1.4.2 1.1.3 2-.2 1.8-.9 5.4-4.3 7.3l2.6.7s-1.3 3.2-2.9 4.2c0 0 3.6-.9 5.6-2.1.2.6 0 1.9 0 1.9s6.1-5.3 5.7-11.8z" class="js-fringeGroup fringeGroup" data-svg-origin="51.952657318115236 20.640000915527345" style="transform-origin: 0px 0px 0px; transform: matrix(1, 0, 0, 1, 0, 0);"></path></g></g><path fill="#B0BEC5" d="M85.9 85c-.6-5.8-4.7-10.2-8.4-11.1-3.7-.9-16.7-6.8-16.7-6.8l-18.1 36.7-19.6-36.7s-12.9 5.8-16.7 6.7c-3.8.9-7.7 5.4-8.3 11.2-.6 5.8-1.3 31-1.3 31h90.4s-.8-25.2-1.3-31z"></path><path fill="#FF1744" d="M53.1 115.8l5-46.5-9.2 4.5-.5 9.6-5.9 6.2-7.2-7.2-1.5-8.6-8.1-4.5 6.2 46.5"></path><path fill="#CFD8DC" d="M26.1 116h11.6c-2.4-7-10-31.8-10.2-52.4L24.8 65l-5.2 3-4.6 9.4 3.7 4.1-4.3 2.9S21.8 105 26.1 116z"></path><path fill="#FF5252" d="M31 58.3l-1.6 1.4-4.1 5.1 2.2 15.7 6.6-6.7L31 62z"></path><path fill="#CFD8DC" d="M57.5 116c4.4-11 11.9-31.6 11.9-31.6l-4.3-2.9 3.7-4.2-4.5-9.3-5.2-3-2.8-1.4c-.2 20.6-8 45.4-10.4 52.4h11.6z"></path><circle fill="#FF5252" cx="41.8" cy="96.1" r=".7"></circle><circle fill="#FF5252" cx="41.8" cy="105.5" r=".7"></circle><path fill="#FF5252" d="M53 58.3l1.5 1.4 4.1 5.1-2.2 15.7-7.7-6.7L53 62z"></path><g class="js-foregroundGroup foregroundGroup" data-svg-origin="37.03617477416992 71" style="transform: matrix(1, 0, 0, 1, 0, 0);"><g class="js-armGroup armGroup" data-svg-origin="63.373620223999026 113.3899917602539" style="transform-origin: 0px 0px 0px; transform: matrix(1, 0, 0, 1, 0, 0);"><path fill="#FAFAFA" d="M65.2 101l-.9-.8c-1.3-1.1-1.6-2-.8-3.3l.9.1h.1c.5 0 .9-.3.9-.8.1-.5-.3-1-.8-1.1h-.2c.2-.5.2-.9.1-1.2l.9-.9-.7-.9s-1.5-.2-2.4-1.1c-.1.1-.3.2-.3.3L40.8 71l-3.7 3.8.5.4-.2.2c-.4.4-.3 1 0 1.3l4.6 4.4-.3.3 6.1 6c0 .6-.3 1.1-.3 1.1-1.4 1.4-1.3 3.6.1 5l5.2 5-4 7.4-2 2.6c-.8-.4-1.4.6-.8 1.1l6.5 4.8c.5.4 1.3.3 1.8-.2.1-.1.1-.2.2-.3.7-.8 8.2-10.7 8.9-11.5l.7.6 1.3-1.2c.1-.2.1-.6-.2-.8z"></path><path fill="#ECEFF1" d="M63.4 96.9L60 93.7l1.2-3.1-.5-.6-1.2 3.1-.5-.4 1.2-2.9-.4-.4-1.2 3-.5-.5 1.2-3-.4-.4-1.2 3-.5-.5 1.2-3-.4-.4-1.2 3-12.5-11.7 1.3-3.2-.3-.3-.1-.1-1.3 3.2-.5-.4 1.4-3.3-.4-.4-1.4 3.3-.5-.4 1.4-3.3-.4-.4-1.5 3.2-.5-.5 1.4-3.4-.4-.4L41 76l-2.3-2-1.4 1.4c-.4.4-.3 1 0 1.3l4.5 4.4 1.7-2L63 97.6l.4-.7z"></path><path fill="#FFCCBC" d="M64 101.1l-5.7-6.8c-.8-1-1.9-1.8-3-2.3l-5.6-2.5c-.4-.2-1.4-.3-1.8 1-.4 1.2.5 2.2.7 2.4l3.9 2.9 2.2 2.2-2.1-.9c-.7-.3-1.5-.2-2.1.4l-.1.1c-.6.6-.7 1.6-.2 2.4l.4.6-.9-.1c-.8-.1-1.5.2-1.9.9-.4.6-.3 1.4.1 2l.4.6-.5.1c-.8.2-1.4.8-1.5 1.6v.3c-.1.6.1 1.2.6 1.7l11.3 10.4 8.1-2-2.3-15z"></path><path fill="#CFD8DC" d="M48.4 90.5c.4-.7 1.1-.9 1.3-.9h-.1c-.2-.1-.6-.2-1-.1-.3.1-.5.2-.8.5-.1.1-.1.2-.2.3-.1.3-.1.7-.1 1.1.1.5.4.9.6 1.2 0-.9 0-1.7.3-2.1z"></path></g></g></g>
		</g>
	</g>
</svg>