<svg version="1.1" xmlns="http://www.w3.org/2000/svg" xmlns:xlink="http://www.w3.org/1999/xlink" viewBox="0 0 83.7 100" preserveAspectRatio="xMidYMid meet">
	<g class="js-svgBg svgBg" data-svg-origin="41.75020217895508 57.64999771118164" style="transform-origin: 0px 0px 0px; transform: matrix(1, 0, 0, 1, 0, 0); fill: rgb(255, 255, 255);">
		<path d="M42.2,99.4h-0.9C18.6,99.4,0,80.8,0,58.1v-0.9c0-22.9,18.6-41.3,41.3-41.3h0.9c22.9,0,41.3,18.6,41.3,41.3v0.9
			C83.6,80.8,65.1,99.4,42.2,99.4z"></path>
	</g>
	<defs>
		<path id="SVGID_1_HW856K_CHARACTER-ITEM-PANEL" d="M42.2,99.4h-0.9C18.6,99.4,0,80.8,0,58.1v-0.9C0,34.3,0.2,0,0.2,0h83.2c0,0,0.2,34.3,0.2,57.2v0.9C83.6,80.8,65.1,99.4,42.2,99.4z"></path>
	</defs>
	<clipPath class="js-svgMask svgMask" id="SVGID_2_HW856K_CHARACTER-ITEM-PANEL" data-svg-origin="42 60.99999237060547" style="transform-origin: 0px 0px 0px; transform: matrix(1, 0, 0, 1, 0, 0);">
		<use xlink:href="#SVGID_1_HW856K_CHARACTER-ITEM-PANEL" overflow="visible"></use>
	</clipPath>
	<g clip-path="url(#SVGID_2_HW856K_CHARACTER-ITEM-PANEL)">
		<g class="js-svgCharacter svgCharacter" data-svg-origin="8.100000381469727 6.8651652336120605" style="opacity: 1; transform: matrix(1, 0, 0, 1, 0, 0);">
			<g class="js-characterinnerGroup characterinnerGroup"><path fill="#FFCCBC" d="M75.2 93.1c-.4-3.8-1.2-7.1-6.4-9.6l-15-6.1c-3.2-1.5-4.8-4.3-4.8-7.9V57H35v12.5c0 3.6-1.6 6.3-4.8 7.9l-14.8 6.1c-5.3 2.5-6.2 5.9-6.5 9.7-.5 4.8-.8 20.8-.8 20.8h67.8s-.2-16-.7-20.9z"></path><path fill="#FFAB91" d="M49 67.9V57H35v10.9c1 1.5 4 2.5 7 2.5s6-1 7-2.5z"></path><path fill="#FFF" d="M64.2 114c.2-2 .3-2.1.3-3.2.1-5.8-1.2-12.5-.4-18.7.6-4.1 1.8-6.8 2.9-9.3l-4.9-2.1c-1.4 2.3-4 6.4-6.8 11.7-4.6 8.7-22.2 8.7-26.8 0-2.8-5.2-5.4-9.4-6.8-11.7l-4.9 2c1.2 2.5 2.4 5.2 2.9 9.3.8 6.1-.5 13-.4 18.8 0 1.1.1 1.2.3 3.2h44.6z" class="js-offwhiteGroup offwhiteGroup"></path><g class="js-headGroup headGroup"><g class="js-headinnerGroup headinnerGroup" data-svg-origin="41.90460014343262 62.69651746749878" style="transform-origin: 0px 0px 0px; transform: matrix(0.9848, 0.17364, -0.17364, 0.9848, 11.5238, -6.32416);"><path fill="#81C784" d="M58.6 29.8s1-2.2 1.6-4.5 2.1-6.7-3.4-12.1c-2.4-2.4-4.9-3.5-6.9-4.1-.5-1.2-1.7-1.6-3-1.4-2.3-1.9-8.7-.1-11.6.9-2.4.8-14.5 6-12 16.2.5 2.3 2 5 2 5s.4 1 .2 1.5c-.8 2.1-1.3 4.3-1.1 6.1.6 5.9 1.7 12.6 1.7 12.6h31.3s1.7-6.4 2.3-12.2c.1-.9-.2-2.3-.4-3.4.5-.9.9-1.9.7-2.4-.3-.8-1-1-1.8-1.6-.1-.2.4-.6.4-.6z"></path><path fill="#FFAB91" d="M27.4 50.4s-.9-2.6-1.3-5.1c-1.2.2-2.3 1.8-1.8 4.6.8 4.4 3.7 6.6 4.7 5.6.8-.8-1.6-5.1-1.6-5.1zM57.9 45.2c-.4 2.6-1.3 5.1-1.3 5.1s-2.4 4.3-1.7 5c1 1 3.9-1.2 4.7-5.6.6-2.7-.5-4.2-1.7-4.5z"></path><path fill="#FFCCBC" d="M56.7 45.5c-.7-3-1.1-7.1-1.4-9.1-.8-4.3-4.1-6.4-7.9-7.2-2-.4-8.7-.4-10.7 0-3.8.8-7.1 2.9-7.9 7.2-.4 2-.7 6-1.4 9.1-.6 2.5-.5 5.1.2 7.6 0 0 2 6.5 3.4 9.3 1.6 3.1 5.9 6.3 11.1 6.3s9.5-3.2 11.1-6.3c1.4-2.8 3.4-9.3 3.4-9.3.6-2.5.6-5.1.1-7.6z"></path><path fill="#FFAB91" d="M42 56.4l1.8-1.4c.5-.4.7-1.1.5-1.8L42 46.6v9.8z"></path><path fill="#FF1744" d="M43.8 59.3c-.4 0-1.8.8-1.8.8s-1.5-.8-1.8-.8c-1.1.1-1.9.6-3.4.6.4.8 1.3 1.8 2.4 2.4.8.4 1.7.7 2.8.7 1.1 0 2-.3 2.7-.7 1.1-.6 2-1.5 2.4-2.4-1.4 0-2.2-.5-3.3-.6z"></path><path fill="#66BB6A" d="M34.5 44.5c-2.4-.2-4.8 1.3-4.8 1.3l1.3.9s1.4-1.2 3.6-1.1c2.1.1 3.3 1 4.3 1.8-1-1.2-2.3-2.8-4.4-2.9z"></path><circle fill="#66BB6A" cx="34.9" cy="46.6" r="1.6"></circle><path fill="#FFAB91" d="M37.7 48.4c-2 1.1-4.7.9-6.3-.9 2 1.1 4.2 1.3 6.3.9z"></path><path fill="#66BB6A" d="M39 40.4c-3.2-1.5-7.9-1.3-9.9 2.3 3.9-3.2 10.2-.6 10.2-.6s-.2-1.3-.3-1.7z" class="js-eyebrowLeftGroup eyebrowLeftGroup" data-svg-origin="29.100000381469727 39.5192756652832" style="transform: matrix(1, 0, 0, 1, 0, -1);"></path><path fill="#66BB6A" d="M49.5 44.5c2.4-.2 4.8 1.3 4.8 1.3l-1.3.9s-1.4-1.2-3.6-1.1c-2.1.1-3.3 1-4.3 1.8 1-1.2 2.3-2.8 4.4-2.9z"></path><circle fill="#66BB6A" cx="49.1" cy="46.6" r="1.6"></circle><path fill="#FFAB91" d="M46.3 48.4c2.1.4 4.3.2 6.3-.9-1.6 1.8-4.3 2-6.3.9z"></path><path fill="#66BB6A" d="M45 40.4c3.2-1.5 7.9-1.3 9.9 2.3-3.9-3.2-10.2-.6-10.2-.6s.2-1.3.3-1.7z" class="js-eyebrowRightGroup eyebrowRightGroup" data-svg-origin="44.70000076293945 39.5192756652832" style="transform: matrix(1, 0, 0, 1, 0, -1);"></path><g fill="#66BB6A"><path d="M41.1 27.3c1.4-.1 2.6-1.7 3.6-2.5 1.1-.8 2.4-1.5 3.7-1.3-1.5.3-2.6 1.1-3.8 2-.8.7-2.2 2.1-3.5 1.8zM46.6 26.2c1.4-1.6 5-2.1 6.7-.8-2.1-.6-4.9-.2-6.7.8zM50.8 29.1c1.6-.8 3.3-.3 4.7.7 1.1.8 2.2 2.4 3.7 2.2-1.4.7-2.9-.9-3.9-1.6-1.4-1.1-2.8-1.6-4.5-1.3z"></path></g><path fill="#66BB6A" d="M33.2 19.6c.1-3.4 2.9-5.6 5.7-6.9 1.6-.8 3.4-1.2 4.9-2.1 1.5-.9 2.3-2.8-.2-2.6 1.2-.4 2.5.2 2 1.6-.6 1.6-3.1 2.3-4.4 2.9-3.4 1.5-7.1 3.1-8 7.1zM49.6 10.6c-1.5 4.2-6.9 4-10.4 5.3 3.2-2.3 7.9-1.8 10.4-5.3z"></path><path fill="#FFF" d="M58.9 60.5c0-.6-.9-1-.9-1.2V59c0-.2.7-.6.7-1.2 0-.4-.6-2-.9-3.3-.1-.5-.8-.5-1 0-.4 1.2-.7 2.9-.7 3.3 0 .6 1 1 1 1.2v.3c0 .2-.9.6-.9 1.2s.9 1 .9 1.2v4.7c0 .2-1 .6-1 1.2 0 .7.5 1.3 1.2 1.3s1.5-.6 1.5-1.3c0-.6-.7-1-.7-1.2v-4.7c-.1-.1.8-.6.8-1.2z" class="js-offwhiteGroup offwhiteGroup"></path><path fill="#FFF" d="M27.9 60.5c0-.6-.9-1-.9-1.2V59c0-.2 1-.6 1-1.2 0-.4-.4-2-.7-3.3-.1-.5-.8-.5-.9 0-.4 1.2-1 2.9-1 3.3 0 .6.7 1 .7 1.2v.3c0 .2-.9.6-.9 1.2s.9 1 .9 1.2v4.7c0 .2-.7.6-.7 1.2 0 .7.7 1.3 1.4 1.3s1.2-.6 1.2-1.3c0-.6-.9-1-.9-1.2v-4.7c-.1-.1.8-.6.8-1.2z" class="js-offwhiteGroup offwhiteGroup"></path><path fill="#FFF" d="M41.9 19.6c-3.7 0-7.1.9-9.9 2.5-.6-.3-1.3-.2-1.7.4-.3.5-.7 1-.9 1.4l-1-1.3c-.1-.2-.4-.1-.5.1l-.5 2.3-1.9.1c-.2 0-.4.2-.3.4l1.3 1.7c-.5.7-.8 1.5-1.1 2.3l.2 1.8c2.4-5.3 8.8-9.2 16.3-9.2 1.6 0 3.2.2 4.7.5 2.2-.4 4.3 0 6.1 1.3 1.3 1 2.1 2.2 2.4 3.1.1.1 1.4 1.5 2 2.2.5.6.9 1 1.3 1.2l.1-.7c-1.9-5.7-8.6-10.1-16.6-10.1z" class="js-offwhiteGroup offwhiteGroup"></path></g></g><g class="js-foregroundGroup foregroundGroup" data-svg-origin="41.99999809265137 109.91784286499023" style="transform-origin: 0px 0px 0px; transform: matrix(1, 0, 0, 1, 0, -12);"><path fill="#66BB6A" d="M50.4 113.6H35.5v-12h14.9l-1.4 7z"></path><path fill="#66BB6A" d="M50 104c.2.1 3 1.7 3.2 2.9.2 1.2.2 2 .2 2l-5.7-2.3L50 104z"></path><path fill="#FFAB91" d="M45.9 102.9c.2-.1 3.5 2.7 4.5 3.5.2.2.3.3.4.6l3 6.6H36.5l1.8-7 7.6-3.7z"></path><path fill="#FFCCBC" d="M47 112.2c1.7.1 2.3-1.4 1.3-1.6l-4.1-.5-3.6-.4 4.3-.5 2.7.4c.8.1 2.1-.2 2.5-.7.4-.5.1-.9-.2-.9l-5.1-1.3h-5.5l5.3-1.3 3.2.8c1.7.6 1.8-1.2.9-1.9s-2.3-1.8-2.3-1.8l-10.7-1.3L32 104l-3.3 9.6h9.7l.9-1.3 4.5-.2c0 .1 2.2 0 3.2.1z"></path><path fill="#66BB6A" d="M38.4 103.1c-.1.2-.4 1.4-.2 2.3 0 0 3-1.4 3.4-2l2.3 2.1.4-1.6s2 .8 2.5.4l-1.4-2.9-7 1.7z"></path><path fill="#FF80AB" d="M28.8 94.1s-4.1-.8-6.6-4.3c0 0 2.5-1.8 4.1-1.1 0 0-1.5-2.6-1.4-4.6 0 0 3.3-.1 4.8 1.3 0 0 0-2.5 1.6-4.6 0 0 3.6 2.9 3.4 6.3-.2 3.3-.9 6.1-.9 6.1l-5 .9zM55.2 94.1s4.1-.8 6.6-4.3c0 0-2.5-1.8-4.1-1.1 0 0 1.5-2.6 1.4-4.6 0 0-3.3-.1-4.8 1.3 0 0 0-2.5-1.6-4.6 0 0-3.6 2.9-3.4 6.3.2 3.3.9 6.1.9 6.1l5 .9z"></path><path fill="#FF1744" d="M47.9 80.7c0-.8-.2-1.8-.9-2.5-1.4-1.4-3 .4-3 .4s-1.5-3-3.8-1.3c-1 .7-1.6 1.9-1.7 3.3-1-1-2.4-1.1-2.9 0-1 2 .6 5.4 2.1 6.6 2.5.6 1 2 3.7 1.3 3-.7 7.4-4.2 7.9-5.8.2-.9-.3-1.9-1.4-2z"></path><path fill="#FFF" d="M52.7 85.8c-.4-.2-1-.1-1.6.1-.1-1.1-.5-2-1.3-2.3-.8-.3-1.7.1-2.5.9-.3-.5-.7-1-1.1-1.1-1.3-.5-2.7 1.4-2.9 3.6-.2 2.4 0 5.5 1.3 6 0 0 6.5-1 8.1-2.6 1.6-1.5 1.3-4.1 0-4.6zM30.6 90.9c-1.9-1.8-1.4-4.8.3-5.4.5-.2 1.2-.1 1.9.1.1-1.3.7-2.4 1.7-2.8 1-.4 2.1.1 3.1 1 .4-.6.9-1.1 1.4-1.3 1.7-.6 3.2 1.8 3.1 4.5l-.7 7.3-10.8-3.4z"></path><path fill="#81C784" d="M43.6 88.2s-.6-2.3-1.6-3.6c-1 1.3-1.6 3.6-1.6 3.6-.8-1.3-2.5-1.8-2.5-1.8s.5 3.5 2 5c1.4 1.5 2.9 1.5 4.3 0s2-5 2-5-1.8.5-2.6 1.8zM32.9 97.7l-4.1 5s-1.8.4-3.9 3.2c0 0 2.4-.2 4.5-1.1 0 0-.8 1.5-1.1 2.9 3-1.2 6.1-2.8 8.1-5.1-.1.6-.1 1.7-.1 3.1 0 0 3.2-1.9 3.9-4.6.8-2.7-7.3-3.4-7.3-3.4z"></path><path fill="#FF1744" d="M46.3 89.8c-.6 0-1.2.3-1.8.8-.6-1.2-1.5-2-2.5-2s-1.9.8-2.5 2c-.6-.5-1.2-.8-1.8-.8-1.8 0-2.3 1.9-1.2 4.3 1.1 2.4 2.5 4.3 5.3 4.3s5.6-4.3 5.6-4.3c1.2-2.3.7-4.3-1.1-4.3zM30.6 99.3c-2.1-.1-7.3-1.1-6.8-4.5.4-2.7 3.6-1.8 3.6-1.8s-1.4-2.3.4-3.6 4.8-.9 5.7 1.4c.9 2.3 2.9 7.5 2.9 7.5l-5.8 1z"></path><path fill="#FF4081" d="M25 97.9c-4.2 3.3 2 7.9 5.6 4.1 3.5-3.7-3.1-6.1-5.6-4.1z"></path><path fill="#81C784" d="M37.4 94.7c-.2-1.9-1.6-4.8-4.3-6.1 0 0-.1 4.6 1.6 7 1.7 2.3 2.7-.9 2.7-.9z"></path><path fill="#F8BBD0" d="M34 93.7c-1.9-.8-3.6.7-3.8 2.6 0 0-2.1-.5-2.8 1.5-1.1 3.3 8 3.8 8 3.8s2.8-6.2-1.4-7.9z"></path><path fill="#FF80AB" d="M35.5 101.6s-2.6-2.1-1.6-4.9c1.4-3.7 4.9-4.2 5.5-1.6.4 1.7-3.9 6.5-3.9 6.5z"></path><path fill="#FF80AB" d="M35.5 101.6c.1-.1-5.8-3.3-8-1.3-1.8 1.6 1.6 2.8 3.3 2.7 3.2-.1 4.7-1.4 4.7-1.4z"></path><path fill="#81C784" d="M55.2 102.7s1.8.4 3.9 3.2c0 0-2.4-.2-4.5-1.1 0 0 .8 1.5 1.1 2.9-3-1.2-6.1-2.8-8.1-5.1.1.6.1 1.7.1 3.1 0 0-3.2-1.9-3.9-4.6-.8-2.7 11.4 1.6 11.4 1.6z"></path><path fill="#FF1744" d="M53.4 99.3c2.1-.1 7.3-1.1 6.8-4.5-.4-2.7-3.6-1.8-3.6-1.8s1.4-2.3-.4-3.6c-1.8-1.3-4.8-.9-5.7 1.4-.9 2.3-2.9 7.5-2.9 7.5l5.8 1z"></path><path fill="#FF4081" d="M59 97.9c4.2 3.3-2 7.9-5.6 4.1-3.5-3.7 3.1-6.1 5.6-4.1z"></path><path fill="#81C784" d="M46.6 94.7c.2-1.9 1.6-4.8 4.3-6.1 0 0 .1 4.6-1.6 7-1.7 2.3-2.7-.9-2.7-.9z"></path><path fill="#F8BBD0" d="M50 93.7c1.9-.8 3.6.7 3.8 2.6 0 0 2.1-.5 2.8 1.5 1.1 3.3-8 3.8-8 3.8s-2.8-6.2 1.4-7.9z"></path><path fill="#FF80AB" d="M48.5 101.6s2.6-2.1 1.6-4.9c-1.4-3.7-4.9-4.2-5.5-1.6-.4 1.7 3.9 6.5 3.9 6.5z"></path><path fill="#FF80AB" d="M48.5 101.6c-.1-.1 5.8-3.3 8-1.3 1.8 1.6-1.6 2.8-3.3 2.7-3.2-.1-4.7-1.4-4.7-1.4z"></path><path fill="#E0F2F1" d="M33.5 86.2c.6-.2 1.8.4 2.2 1.4 0 .1-1.7-1-2.2-1.4-.1 0-.1-.1 0 0zM36.1 86.5c0-1 .2-1.7 1.1-2.3-.2.8-.6 1.6-1.1 2.3z"></path><g><path fill="#FFF" d="M49.1 99.1c-.8-1.2-1.9-1.3-3.1-1.3-.5-1.7-2.2-2.5-4-2.5s-3.5.7-4 2.5c-1.2 0-2.3.1-3.1 1.3-1.1 1.6-1 4 2.7 3h.2c-.1.8.7 1.2 1.8 1.3 1.7.2 3.3.2 5 0 1.1-.1 1.9-.5 1.8-1.3h.2c3.6 1.1 3.7-1.4 2.5-3z"></path><path fill="#E0F2F1" d="M42 97.9c-1 0-2.7.9-2.7.9l2.7-.4 2.7.4s-1.7-.9-2.7-.9z"></path></g><path fill="#66BB6A" d="M47.9 103.4c.2.1 1.4 3.8 1.4 3.8s.9-1 .7-1.8c-.1-.8-2.1-2-2.1-2z"></path></g></g>
		</g>
	</g>
</svg>