<svg version="1.1" xmlns="http://www.w3.org/2000/svg" xmlns:xlink="http://www.w3.org/1999/xlink" viewBox="0 0 83.7 100" preserveAspectRatio="xMidYMid meet">
	<g class="js-svgBg svgBg" data-svg-origin="41.75020217895508 57.64999771118164" style="transform-origin: 0px 0px 0px; transform: matrix(0.99999, 0, 0, 0.99999, 3.34002e-06, 4.612e-06); fill: rgb(255, 255, 255);">
		<path d="M42.2,99.4h-0.9C18.6,99.4,0,80.8,0,58.1v-0.9c0-22.9,18.6-41.3,41.3-41.3h0.9c22.9,0,41.3,18.6,41.3,41.3v0.9
			C83.6,80.8,65.1,99.4,42.2,99.4z"></path>
	</g>
	<defs>
		<path id="SVGID_1_KB79SD_CHARACTER-ITEM-PANEL" d="M42.2,99.4h-0.9C18.6,99.4,0,80.8,0,58.1v-0.9C0,34.3,0.2,0,0.2,0h83.2c0,0,0.2,34.3,0.2,57.2v0.9C83.6,80.8,65.1,99.4,42.2,99.4z"></path>
	</defs>
	<clipPath class="js-svgMask svgMask" id="SVGID_2_KB79SD_CHARACTER-ITEM-PANEL" data-svg-origin="42 60.99999237060547" style="transform-origin: 0px 0px 0px; transform: matrix(0.99999, 0, 0, 0.99999, 3.36e-06, 4.88e-06);">
		<use xlink:href="#SVGID_1_KB79SD_CHARACTER-ITEM-PANEL" overflow="visible"></use>
	</clipPath>
	<g clip-path="url(#SVGID_2_KB79SD_CHARACTER-ITEM-PANEL)">
		<g class="js-svgCharacter svgCharacter" data-svg-origin="4.273880958557129 11.307954788208008" style="opacity: 1; transform: matrix(1, 0, 0, 1, 0, 0);">
			<g class="js-headGroup headGroup"><path fill="#80DEEA" d="M65.6 16c-.4-1.3-2.8-2.7-2.8-2.7l1.2-.6s-1.2-.8-2.9-1.3c-1.8-.5-4.7 1.2-4.7 1.2l-.4-1s-3.1 4.2-2.1 6.3l5.6 6.1c1.5 0 3.3-1.8 3.3-1.8l1 .8c.9-1.9.1-3.4.1-3.4l1.8.4s.4-2.6-.1-4z"></path><path fill="#B2EBF2" d="M68.1 30.5c-4.3-9.4-12.8-19.1-23.3-19.1-6.8 0-12.7 1.5-19.1 8.2-2.8 3-4.5 5.4-5.6 8.5 0 0-.4 4.9.9 6.3l38.6 22.9c11.2-4 12.7-17.5 8.5-26.8z"></path><path fill="#9CCC65" d="M75.5 75.4c-1.4-4.6-5.2-8.8-7.6-13.8.6-2.6.4-5.1-.2-7.5.2.1.5.1.7.1 2.6.2 3.8-1.4 3.8-1.4-2.6.8-4.6-2.3-6.8-5.2v.1c-1.5-3.2-3.1-5.9-3.2-7.9-.2-5.1.1-4.3-1.1-7.1L60 30.3s-3.5-5.4-8.5-7.4c-5.5-2.2-11.4-2.2-11.4-2.2s-5-.1-10.2 1.7L26.5 24c-1.7 1.1-3.1 2.4-4.2 3.6-2.6 3.3-5.4 8.8-5.1 15.5.4 8.4-9.4 17.1-11.5 28C3 82.7 4.3 88.5 8.2 91.8c.1.1.3.5.3.4-1.6-3.9-2.8-7.7-2.3-11.2.4 1.5 1.1 3.1 1.9 4.9C12.6 95 62.9 99 67.9 97.5c5.4-1.6 11-11.1 7.6-22.1z"></path><path fill="#7CB342" d="M71 71.9L51.7 44.5l-27.8 2s-2.6 5.2-2.2 9.8l-8.3 5.5c-2 4-6.8 15.2-2.2 19.1l60 8.3c3-2.6 4-11.8-.2-17.3z"></path><path fill="#FFCCBC" d="M25.1 38.6c-1.6-1.1-4.6.6-4 4.5.8 4.9 3.2 6.9 5.5 6.9 2.8 0-.4-10.7-.4-10.7l-1.1-.7z"></path></g><path fill="#FFCCBC" d="M48 63.8V49H33v14.8c0 4.8-11 5.8-19.6 13.7l27.4 29.4 26.5-29.4C58.7 69.6 48 68.6 48 63.8z"></path><path fill="#FFECB3" d="M72.2 85.3c-.4-2.4-1.4-4.8-3-6.6-.7-.8-4-3-5.6-4.1-16 17.8-31.9 9.2-38-4.9-3.4 2.1-13.4 7.7-14.4 8.9-1.6 1.8-2.7 4.3-3 6.8-.7 4.9-2 25.7-2 25.7h68.1c-.1-.1-1.4-20.9-2.1-25.8z"></path><g class="js-headGroup headGroup"><path fill="#9CCC65" d="M27.4 52.1c2-6.2-1-7-.7-15.3.3-7.1-2.7-2-2.7-2-2.4 5.4.8 10.6 0 15.5-1.3 7.5.2 9.3 2.7 12.6-1.1-2.9-.7-6.6.7-10.8z"></path><path fill="#FFAB91" d="M45.3 62.9c.5-.4-.3-1 2.7-1.8V49H33v12.1c0 .7 1.9 1.4 2.4 1.8 1.5 1 3.1 2.2 4.9 2.3 1.8-.1 3.4-1.3 5-2.3z"></path><path fill="#FFCCBC" d="M55.2 38.6c1.6-1.1 4.6.6 4 4.5C58.4 48 56 50 53.7 50c-2.8 0 .4-10.7.4-10.7l1.1-.7z"></path><path fill="#FFCCBC" d="M52.1 30.7c-.8-2.6-1.9-4.7-5-5.6s-10.5-.9-13.7 0-4.7 2.9-5.6 5.6-2 12.3-2 14.2c0 1.3 1.1 6.2 1.8 9.1.4 1.5 1.3 2.8 2.6 3.7 1.7 1.1 4.1 2.6 5 3.2 1.5 1 3.2 2.2 5 2.3 1.8-.1 3.5-1.3 5-2.3.9-.6 3.2-2.1 5-3.2 1.3-.8 2.3-2.2 2.6-3.7.7-3 1.8-7.8 1.8-9.1 0-2-1.7-11.6-2.5-14.2z"></path><path fill="#9CCC65" d="M57.6 33.9c.7 3.9 1.4 5.7-1.3 9.9s1.4 11 1.4 11-2.1-.4-3.4-2c-1.6-1.9-2.5-3.7-1.4-9.4 1-5.7 1.4-9.7 1.4-9.7l3.3.2zM53.5 23.8c-1.6-2.9-6.8-2.3-6.8-2.3v.1c-.8-.4-4.1-1.9-10.1-1.7-6.7.2-12 5.2-14.2 7.9 0 0-.9 3.2-1.4 3.8-2 2.3-4.5 4.2-5.6 7-.9 2.2-.8 4.8.1 7 0-1 .5-2.6 2.1-5.1.9-1.4 2.6-2.6 4.1-3.5 4.6.5 10.5-1.8 13.9-4.9.5-.4.9-.9 1.4-1.2-1.4 2.2-3.2 4.1-5.2 4.9 9 .2 12.2-3 13.9-5.5-.2 1.7-.9 3.4-2.3 5 2.7-.8 5.7-2.3 6.6-3 2.8-2.3 3.7-5.7 3.3-6.4h.2-.2c.5-.5.8-1.1.2-2.1zM23.4 101.3c-5.2-2.6-8.9-8.8-8.7-16.8.2-7.4-3.7-9.7-3.8-17.3-.1-7.6 7.6-15 7.6-15l4.3-3.6s-1.1 3.1-1.2 7.7c-.1 6.8 3.5 13.8 2.7 20.5-1.4 10.8-5 12-2.2 19.3 1.4 3.4 1.3 5.2 1.3 5.2z"></path><path fill="#80DEEA" d="M34.6 17.8c10.1-2.9 21.4-.4 26.3 9.6-6.1-9.3-15.9-11.3-26.3-9.6z"></path><path fill="#9CCC65" d="M54.9 50.7c2.6 7.8-1.5 12.6 1.1 19.5 1.5 4 4 8.8.5 15s-4.4 11.7-3.4 16.2c0 0 4.4-2.8 5.4-7.2s8.2-6.8 10.1-9.4c1.9-2.6 5.7-6.9 1.1-16S63.2 54 63.2 54l-8.3-3.3z"></path><path fill="#7CB342" d="M65 65.3c1.7 2.1 3.3 4.4 3.8 7.2s-.4 5.5-2 7.8c1-2.5 1.7-5 1.3-7.7-.4-2.7-1.9-4.9-3.1-7.3zM55.7 54.1s3.4 2.4 3.8 6.5c0 0-1.5-3.7-4.1-5-1.4-.7-.9-1.8-.9-1.8l1.2.3z"></path><path fill="#9CCC65" d="M60 30.7c1.4 3.2 5.9 9.6 5.6 17.7l-1.3-.9s-.5-6.7-3.1-10.5-1.2-6.3-1.2-6.3z"></path><path fill="#FF1744" d="M42.1 53.4c-1 0-1.5.7-2 .7s-1-.7-2-.7c-1.1 0-3.3.9-3.3.9s2 2.3 5.2 2.3 5.2-2.3 5.2-2.3-1.9-.9-3.1-.9z"></path><path fill="#FFAB91" d="M35.5 43.5c-1.6 1-4 .9-5.4-.5 1.8.6 3.5.6 5.4.5z"></path><path fill="#FFF" d="M42 50.3c-.6 0-1.1-.5-1.1-1.1 0-.1.1-.2.2-.2s.2.1.2.2c0 .4.3.7.7.7s.7-.3.7-.7c0-.4-.3-.7-.7-.7-.1 0-.2-.1-.2-.2s.1-.2.2-.2c.6 0 1.1.5 1.1 1.1-.1.6-.5 1.1-1.1 1.1z"></path><path fill="#FFAB91" d="M40.2 50.5l2.8-1.3-.1-1.1-2.7-5.2z"></path><path fill="#FFF" d="M42 50.3c-.1 0-.2-.1-.2-.2s.1-.2.2-.2c.4 0 .7-.3.7-.7 0-.4-.3-.7-.7-.7-.1 0-.2-.1-.2-.2s.1-.2.2-.2c.6 0 1.1.5 1.1 1.1-.1.6-.5 1.1-1.1 1.1z"></path><path fill="#7CB342" d="M36.8 43zM33.3 40c1.9.2 3.2 1.8 3.5 2.1-.2-.4-1.2-2.5-3.3-3-2.8-.7-4.8.6-5.9 1.4 0 0 .4.7 1.2 1.1-.1.1 1-2 4.5-1.6zM43.5 43zM46.8 39.1c-2.1.5-3.1 2.6-3.3 3 .3-.3 1.6-1.9 3.5-2.1 3.5-.4 4.6 1.6 4.6 1.6.8-.4 1.2-1.1 1.2-1.1-1.1-.8-3.2-2.1-6-1.4z"></path><path fill="#FFAB91" d="M44.8 43.5c1.9.2 3.6.1 5.4-.5-1.3 1.4-3.8 1.5-5.4.5z"></path><g fill="#7CB342" class="js-eyePositionRightGroup eyePositionRightGroup" data-svg-origin="32.30000305175781 40.10000228881836" style="transform: matrix(1, 0, 0, 1, 0, 0);"><circle cx="48.9" cy="41.7" r="1.6"></circle><circle cx="33.9" cy="41.8" r="1.6"></circle></g></g>
		</g>
	</g>
</svg>