<svg version="1.1" xmlns="http://www.w3.org/2000/svg" xmlns:xlink="http://www.w3.org/1999/xlink" viewBox="0 0 83.7 100" preserveAspectRatio="xMidYMid meet">
	<g class="js-svgBg svgBg" data-svg-origin="41.75020217895508 57.64999771118164" style="transform-origin: 0px 0px 0px; transform: matrix(1, 0, 0, 1, 0, 0); fill: rgb(255, 255, 255);">
		<path d="M42.2,99.4h-0.9C18.6,99.4,0,80.8,0,58.1v-0.9c0-22.9,18.6-41.3,41.3-41.3h0.9c22.9,0,41.3,18.6,41.3,41.3v0.9
			C83.6,80.8,65.1,99.4,42.2,99.4z"></path>
	</g>
	<defs>
		<path id="SVGID_1_AX8N6Q_CHARACTER-ITEM-PANEL" d="M42.2,99.4h-0.9C18.6,99.4,0,80.8,0,58.1v-0.9C0,34.3,0.2,0,0.2,0h83.2c0,0,0.2,34.3,0.2,57.2v0.9C83.6,80.8,65.1,99.4,42.2,99.4z"></path>
	</defs>
	<clipPath class="js-svgMask svgMask" id="SVGID_2_AX8N6Q_CHARACTER-ITEM-PANEL" data-svg-origin="42 60.99999237060547" style="transform-origin: 0px 0px 0px; transform: matrix(1, 0, 0, 1, 0, 0);">
		<use xlink:href="#SVGID_1_AX8N6Q_CHARACTER-ITEM-PANEL" overflow="visible"></use>
	</clipPath>
	<g clip-path="url(#SVGID_2_AX8N6Q_CHARACTER-ITEM-PANEL)">
		<g class="js-svgCharacter svgCharacter" data-svg-origin="5 10.461677551269531" style="opacity: 1; transform: matrix(1, 0, 0, 1, 0, 0);">
			<g class="js-characterinnerGroup characterinnerGroup" data-svg-origin="41.349998474121094 101.93617324829101" style="transform-origin: 0px 0px 0px; transform: matrix3d(0.999077, 0.0429659, 0, 0, -0.0429659, 0.999077, 0, 0, 0, 0, 1, 0, 4.41796, -1.68251, 0, 1);"><g class="js-headGroup headGroup" data-svg-origin="37.43845481872559 53.45392265319824" style="transform-origin: 0px 0px 0px; transform: matrix3d(0.999267, -0.0382794, 0, 0, 0.0382794, 0.999267, 0, 0, 0, 0, 1, 0, -2.01874, 1.4723, 0, 1);"><g class="js-hairGroup hairGroup" data-svg-origin="41.03194999694824 20.01550979614258" style="transform-origin: 0px 0px 0px; transform: matrix3d(0.999722, -0.0235624, 0, 0, 0.0235624, 0.999722, 0, 0, 0, 0, 1, 0, -0.460223, 0.97237, 0, 1);"><path fill="#FF6D00" d="M72.8 68.6c-10.4-17.8-1.2-45.4-23.1-56.8-6.3-3.2-13.9.1-14.5 2-2.3-1.3-7.3-.5-12.2 8.3-8.1 14.5-1.6 25.5-11.4 43.1-5.3 9.5-10 15.8-2.9 26.2 7.9 11.6 31.8-7 31.8-7S64.3 107.7 72 95.9c4.9-7.6 7.8-15.4.8-27.3z"></path><path fill="#F4511E" d="M60.6 49.5S66.8 67.4 71 73.7c4.4 6.7 4.5 12 .1 16.1-3.7 3.5-8.9-8.1-8.9-8.1l-1.6-32.2z"></path><path fill="#F4511E" d="M60.6 68c-3.1-8.3-1.2-31.7-1.2-31.7S26.1 34.6 26 39.5c-.1 4.8 2.4 17.1-1.1 26.7-2.3 6.2-10.3 11.5-10.3 11.5S-15.9 106 40.8 106s25.7-27.7 25.7-27.7-3.6-4.1-5.9-10.3z"></path></g><path fill="#FFAB91" d="M54 39.2c1.6-.9 3.7.5 3.6 3.9-.2 4.2-4.6 5.4-4.6 5.4l1-9.3zM26 39.4c0 1.7.3 4.3.5 7.4 1.2 1 2.4 1.3 2.4 1.3l-.8-9.3c-.7-.4-1.5-.4-2.1 0v.6z"></path></g><path fill="#FFCCBC" d="M75.9 88.8c-.7-3.8-4.8-9-10.9-11.8-8-3.6-16-8.6-16-13.4V51H33v12.7c0 4.8-7.7 9.6-15.6 13.2-6.2 2.8-9.8 8.1-10.6 11.9L5 112h72.7l-1.8-23.2z"></path><path fill="#FFAB91" d="M42.2 63.3c1.3 0 4.8-1.6 6.8-4.1V51H33v8.3c2 2.5 5.9 4.1 7.2 4.1l1 .2 1-.3z"></path><path fill="#455A64" d="M66 100.2V77.5c0-.2-.5-.4-.9-.6-.1 0 0-.1 0-.1v6.1c0 6.7-7.9 8.2-14.7 14.3-6.4 5.8-9 8.7-9 8.7s-2.7-2.9-9-8.7c-6.8-6.1-14.7-7.6-14.7-14.3 0-1.3-.1-4.5-.1-6.1-.1 0-.1.1-.2.1-.4.2-.3.4-.3.6v22.7c0 5.3.9 9.8 1.6 11.8h45.4c.7-2 1.9-6.5 1.9-11.8z"></path><path fill="#FFF" d="M37.7 111.2c0-.5.1-1 .6-1.1.5-.1.9.2 1.1.7.1.5-.2 1-.7 1.1h-.2c-.4 0-.8-.3-.8-.7zm7.8 0c-.5-.2-.7-.7-.5-1.2.2-.5.7-.7 1.2-.5.5.2.7.7.5 1.2-.1.4-.5.6-.9.6-.1 0-.2 0-.3-.1zm-8.3-2c-.1-.5.2-1 .7-1.1.5-.1 1 .2 1.1.7.1.5-.2 1-.7 1.1h-.2c-.5 0-.8-.3-.9-.7zm9 .2c-.5-.1-.8-.6-.7-1.1.1-.5.6-.8 1.1-.7.5.1.8.6.7 1.1-.1.4-.5.7-.9.7h-.2zm-9.4-2.2c-.1-.5.3-1 .8-1 .5-.1 1 .3 1 .8.1.5-.3 1-.8 1h-.1c-.4 0-.8-.3-.9-.8zm9.9.2c-.5 0-.6-.5-.6-1s.3-.9.8-.8c.5 0 .8.5.7 1 0 .4-.4.8-.9.8 0 0 .1 0 0 0zm-10.1-2.2c-.1-.5.3-.9.8-1 .5-.1.9.3 1 .8.1.5-.3.9-.8 1h-.1c-.5 0-.9-.3-.9-.8zm10 .2c-.5 0-.9-.5-.8-1 0-.5.5-.9 1-.8.5 0 .9.5.8 1 0 .5-.4.8-1 .8.1 0 .1 0 0 0zm-10.3-2.2c-.1-.5.3-.9.8-1 .5-.1.9.3 1 .8.1.5-.3.9-.8 1h-.1c-.4 0-.8-.3-.9-.8zm10.5.2c-.5-.1-.9-.5-.8-1 .1-.5.5-.9 1-.8.5.1.9.5.8 1-.1.5-.4.8-.9.8h-.1zM36 101.3c-.1-.5.2-1 .7-1 .5-.1 1 .2 1 .7.1.5-.2 1-.7 1h-.2c-.3.1-.7-.3-.8-.7zm11 .2c-.5-.1-.8-.5-.8-1 .1-.5.5-.8 1-.8.5.1.8.5.8 1-.1.4-.5.8-.9.8H47zm-11.3-2.1c-.1-.5.2-1 .7-1.1.5-.1 1 .2 1.1.7.1.5-.2 1-.7 1.1h-.2c-.5 0-.8-.3-.9-.7zm11.6.1c-.5-.1-.8-.6-.7-1.1.1-.5.6-.8 1.1-.7.5.1.8.6.7 1.1-.1.4-.5.7-.9.7h-.2zm-12.1-2c-.1-.5.1-1 .6-1.1.5-.1 1 .1 1.1.6.1.5-.1 1-.6 1.1h-.2c-.4.1-.8-.2-.9-.6zm12.5 0c-.5-.1-.8-.6-.7-1.1.1-.5.5-.8 1-.7.5.1.6.6.6 1.1 0 .4-.4.7-.8.7 0 .1 0 0-.1 0zm-13.1-1.8c-.2-.5.1-1 .5-1.2.5-.2 1 .1 1.2.5.2.5-.1 1-.5 1.2-.1 0-.2.1-.3.1-.4 0-.8-.3-.9-.6zm13.6-.1c-.5-.1-.8-.6-.6-1.1.1-.5.7-.8 1.2-.6.5.1.7.6.7 1.1 0 .4-.5.6-.9.6h-.4zm-14.3-1.7c-.2-.5-.2-1 .3-1.2.5-.2 1 0 1 .4.8.5.2 1-.3 1.2-.1.1-.2.1-.3.1-.3 0-.6-.2-.7-.5zm14.8-.2c-.5-.2-.7-.7-.5-1.2.2-.5.7-.7 1.2-.5.5.2.7.7.5 1.2-.1.4-.5.6-.8.6-.1-.1-.2-.1-.4-.1zM33 92.2c-.3-.4-.1-1 .3-1.2.4-.3 1-.1 1.2.3.3.4.1 1-.3 1.2-.1.1-.3.1-.5.1-.2.1-.5-.1-.7-.4zm16.5-.4c-.5-.2-.6-.8-.4-1.2.2-.5.8-.6 1.2-.4.5.2.6.8.4 1.2-.2.3-.5.5-.8.5-.2 0-.3 0-.4-.1zM32 90.7c-.3-.4-.2-1 .2-1.3.4-.3 1-.2 1.3.2.3.4.2 1-.2 1.3-.2.1-.4.1-.6.1-.3 0-.6-.1-.7-.3zm18.3-.7c-.4-.3-.6-.8-.3-1.2.3-.4.8-.6 1.2-.3.4.3.6.8.3 1.2-.2.3-.5.4-.8.4-.1.1-.2 0-.4-.1zm-19.5-1c-.3-.4-.2-1 .2-1.3.4-.3 1-.2 1.3.2.3.4.2 1-.2 1.3-.2.1-.3.2-.5.2-.4 0-.7-.1-.8-.4zm20.6-.6c-.4-.3-.6-.8-.3-1.2.3-.4.8-.6 1.2-.3.4.2.6.8.3 1.2-.2.3-.5.5-.8.5-.1-.1-.3-.2-.4-.2zm-21.7-1.1c-.2-.4-.1-1.1.3-1.3.4-.2 1 .2 1.2.2.2.8.1 1.1-.3 1.3-.1.1-.3.2-.4.2-.4 0-.7-.1-.8-.4zm22.7-.7c-.5-.2-.7-.7-.5-1.2.2-.5.7-.7 1.2-.5.5.2.7.7.5 1.2-.2.3-.5.5-.8.5-.2.1-.3.1-.4 0zm-23.7-1.2c-.2-.5 0-1 .4-1.2.4-.2 1 0 1.2.4.2.4 0 1-.4 1.2-.1.1-.3.1-.4.1-.3.1-.6-.1-.8-.5zm24.5-.6c-.5-.2-.7-.7-.5-1.2.2-.5.8-.7 1.2-.5.5.2.6.7.6 1.2 0 .4-.5.6-.9.6-.1 0-.3-.1-.4-.1zm-25.3-1.2c-.2-.5 0-1 .5-1.2.5-.2 1 0 1.2.5.2.5 0 1-.5 1.2-.1 0-.2.1-.3.1-.4-.1-.8-.3-.9-.6zm26-.7c-.5-.1-.7-.7-.6-1.1.1-.5.7-.7 1.1-.6.5.1.7.7.6 1.1-.1.4-.5.6-.9.6-.1.1-.1.1-.2 0zm-26.7-1.2c-.2-.5.1-1 .6-1.1.5-.2 1 .1 1.1.6.2.5-.1 1-.6 1.1H28c-.4 0-.7-.3-.8-.6zm27.3-.7c-.5-.1-.8-.6-.6-1.1.1-.5.6-.8 1.1-.6.5.1.8.6.6 1.1-.1.4-.5.7-.9.7-.1 0-.2 0-.2-.1zm-27.7-1.3c0-.5 0-1 .5-1.1.5-.1.9.1 1 .6.1.5-.2 1-.7 1.1h-.1c-.3.1-.7-.2-.7-.6zm28.2-.6c-.5-.1-.8-.6-.7-1.1.1-.5.6-.8 1.1-.7.5.1.8.6.7 1.1-.1.4-.5.7-.9.7H55zm-28.9-1.4c-.1-.5.2-1 .7-1.1.5-.1 1 .2 1.1.7.1.5-.2 1-.7 1.1H27c-.5 0-.8-.2-.9-.7zm29.3-.5c-.5-.1-.8-.6-.7-1.1.1-.5.6-.8 1.1-.7.5.1.8.6.7 1.1-.1.4-.5.7-.9.7h-.2zm-29.7-1.5c-.1-.5.4-1 .8-1 .5-.1 1.1.2 1.1.7 0 .5-.4 1-.8 1h-.2c-.4.1-.9-.2-.9-.7zm-.3-2c-.1-.5.3-.9.8-1 .5-.1.9.3 1 .8.1.5-.3.9-.8 1h-.1c-.5 0-.9-.3-.9-.8zM26.1 72.6c-.2 0-.5-.1-.6-.3-.2-.2-.3-.4-.3-.6 0-.2.1-.5.3-.6.2-.2.4-.3.6-.3.2 0 .5.1.6.3.2.2.3.4.3.6 0 .2-.1.5-.3.6-.1.2-.3.3-.6.3z"></path><g class="js-headGroup headGroup" data-svg-origin="41.6627384185791 59.74000358581543" style="transform-origin: 0px 0px 0px; transform: matrix3d(0.999267, -0.0382794, 0, 0, 0.0382794, 0.999267, 0, 0, 0, 0, 1, 0, -2.25628, 1.63861, 0, 1);"><path fill="#FFCCBC" d="M54.8 27.1s-1.8-5.5-9.1-5.5l-3.8.4h-1.2l-3.9-.4c-7.2 0-9.1 7.3-9.1 7.3s-1.8 7.4-1.5 10.4c.3 3.1 2 4.9 2.5 9.8.7 6.3 8.8 12.3 11.2 12.3l1.3.2 1.3-.2c2.4 0 10.5-6 11.2-12.3.5-4.9 2.2-6.7 2.5-9.8.4-2.9-1.4-12.2-1.4-12.2z"></path><path fill="#FFAB91" d="M41.3 49.4l2.6-1.1c.6-.3.9-1 .6-1.6l-.9-4.3-2.4-4.2v11.2z"></path><path fill="#F4511E" d="M32.3 32.8c2 .2 5.9 1.5 5.9 1.5l.5 1.4-7.6-2.1s-1.7-.1-3 .4c.1 0 1.7-1.5 4.2-1.2z" class="js-eyebrowLeftGroup eyebrowLeftGroup" data-svg-origin="33.40000057220459 34.230167388916016" style="transform-origin: 0px 0px 0px; transform: matrix3d(1, 0, 0, 0, 0, 1, 0, 0, 0, 0, 1, 0, 0, -0.496438, 0, 1);"></path><path fill="#FF1744" d="M43.3 51.9c-.7-.2-1.1.2-2 .2s-1.3-.4-2-.2c-.5.1-3.6 1.3-3.6 1.3s2 2.4 5.6 2.4c3.6.1 5.6-2.3 5.6-2.4.1 0-3.1-1.2-3.6-1.3z"></path><path fill="#F4511E" d="M50.4 32.8c-2 .2-5.9 1.5-5.9 1.5l-.5 1.4 7.6-2.1s1.7-.1 3 .4c-.1 0-1.7-1.5-4.2-1.2z" class="js-eyebrowRightGroup eyebrowRightGroup" data-svg-origin="49.29999923706055 34.230167388916016" style="transform-origin: 0px 0px 0px; transform: matrix3d(1, 0, 0, 0, 0, 1, 0, 0, 0, 0, 1, 0, 0, -0.496438, 0, 1);"></path><path fill="#F4511E" d="M16.4 73.6c4.8-5.9 7.9-12.5 8.1-20.3.9 7.8-2.5 15.1-8.1 20.3z"></path><g class="js-fronthairGroup fronthairGroup" data-svg-origin="43.60000991821289 11.900001525878906" style="transform-origin: 0px 0px 0px; transform: matrix3d(0.999482, 0.0321836, 0, 0, -0.0321836, 0.999482, 0, 0, 0, 0, 1, 0, 0.405571, -1.39704, 0, 1);"><path fill="#FF6D00" d="M54.4 56.5c-1.8 14.2 2.2 27 6.9 37.3 2.7 5.9 4.3 11.3 0 18.3h3.9c4.9-6 4.6-10.3 4.4-14.3-.4-6.8 2.4-7.4 2.9-13.4.5-6.4-3.9-8.7-5.1-20.4-1.4-14.1-2.5-26.3-5.8-35.3l-8.3-11.8-4.7 5.4c1.9.4 4.4 2.2 6 7.6 2.2 7.8 1 16.7-.2 26.6z"></path><path fill="#F4511E" d="M61.4 47.6c2.3 10.7.6 23 6 32.9-6.5-9.2-4.8-22.3-6-32.9z"></path></g><path fill="#5C6BC0" d="M56.6 36.9s-1.5-.8-4.1-1.3c-4.6-.9-8.2 1.6-8.7 2-.5.4-1.7.6-2.4.6s-1.9-.2-2.4-.6c-.5-.4-4.1-2.9-8.7-2-2.7.5-4.1 1.3-4.1 1.3s-.3 3.4.2 4.6c0 0 1.8 4.4 6.1 5h.3c2.7.3 5.3-1.3 6.5-3.8.5-1 .9-2 1-2.2.2-.5.6-.6 1.1-.6s.9.1 1.1.6c.1.2.5 1.2 1 2.2 1.2 2.5 3.8 4 6.5 3.8h.3c4.3-.6 6.1-5 6.1-5 .5-1.2.2-4.6.2-4.6z"></path><path fill="#7986CB" d="M49.3 36.6c-1.8.2-5.6 1.4-5.6 3.3 0 1 .4 3.1 2.5 4.7s5.7 1.1 7.4-1.1c1.5-1.8 1.3-5 .5-5.6-1-1.1-3-1.6-4.8-1.3zM33.4 36.6c1.8.2 5.6 1.4 5.6 3.3 0 1-.4 3.1-2.5 4.7s-5.7 1.1-7.4-1.1c-1.5-1.8-1.3-5-.5-5.6 1-1.1 3-1.6 4.8-1.3z"></path><g id="mask_AX8N6Q_CHARACTER-ITEM-PANEL" display="none"><defs><path id="SVGID_3_" d="M33.4 36.6c-1.8-.2-3.8.3-4.9 1.3-.7.6-.9 3.9.5 5.6 1.7 2.1 5.3 2.7 7.4 1.1 2.1-1.6 2.5-3.7 2.5-4.7 0-1.9-3.8-3.1-5.5-3.3z"></path></defs><clipPath id="SVGID_4_"><use xlink:href="#SVGID_3_" overflow="visible"></use></clipPath><g id="reflection" clip-path="url(#SVGID_4_)"><path fill="#8C9AD3" d="M37.9 31.9L24.8 45l3.8 2.1L42 33.6z"></path></g></g><g display="none"><defs><path id="SVGID_5_" d="M54.2 37.8c-1.1-1-3.1-1.5-4.9-1.3-1.8.2-5.6 1.4-5.6 3.3 0 1 .4 3.1 2.5 4.7s5.7 1.1 7.4-1.1c1.5-1.7 1.3-4.9.6-5.6z"></path></defs><clipPath id="SVGID_6_"><use xlink:href="#SVGID_5_" overflow="visible"></use></clipPath><g id="reflection_1_" clip-path="url(#SVGID_6_)"><path fill="#8C9AD3" d="M51.7 34L38.6 47.1l3.7 2.1 13.5-13.5z"></path></g></g><g class="js-fringeGroup fringeGroup"><path fill="#FF6D00" d="M52.1 44.5c2.4-9.3 3.7-14.6.1-21.9-1.5-3-3.6-4.9-8.3-4.5-2.9.2-1.6 3.3-1.6 3.3l-.1.6c0 .3-.6.7-.2.6 1.6-.3 4.8-.9 6.7 2.2 2.9 4.6 4.3 9.6 2.9 18.5-.5 2.8-.3 4.7.2 6.1-.2-1.4-.2-3 .3-4.9z"></path></g></g><path fill="#EEE" d="M27.2 90.3c1-.1 2 1.8.5 2.9-1.4 1.1-3.1.9-3.1.9l-2.9-2.2 5.5-1.6z"></path><path fill="#FFF" d="M29 96c-.5-.3-1.1-.6-1.7-.8-.5-.2-1-.4-1.5-.7-.2-.1-.3-.2-.5-.3-.4-.2-.9-.5-1.2-.7.4 0 .8 0 1-.1 3.1-1.2 1.4-2.4 1.4-2.4s1.3-.8 1.3-1.6c0-1.2-1.5-1.8-2.5-1.6-1 .2-2.4 1.1-2.4 1.1s-.5-1.1-1.1-1.1c-.8.1-1.9.2-2.2 2.2-.2 1.5 1.4 2.7 3 3.2.5.6 1.2 1.1 2 1.5-1.5 0-3.3.8-4.2 1.3 0 0 2.4 1.2 4.7.7.9-.2 1.6-.5 2-.7.5.2 1.1.4 1.5.7l.4-.7z"></path></g>
		</g>
	</g>
</svg>