<svg version="1.1" xmlns="http://www.w3.org/2000/svg" xmlns:xlink="http://www.w3.org/1999/xlink" viewBox="0 0 83.7 100" preserveAspectRatio="xMidYMid meet">
	<g class="js-svgBg svgBg" data-svg-origin="41.75020217895508 57.64999771118164" style="transform-origin: 0px 0px 0px; transform: matrix(0.75, 0, 0, 0.75, 10.4376, 14.4125); fill: rgb(255, 255, 255);">
		<path d="M42.2,99.4h-0.9C18.6,99.4,0,80.8,0,58.1v-0.9c0-22.9,18.6-41.3,41.3-41.3h0.9c22.9,0,41.3,18.6,41.3,41.3v0.9
			C83.6,80.8,65.1,99.4,42.2,99.4z"></path>
	</g>
	<defs>
		<path id="SVGID_1_RNG00B_CHARACTER-ITEM-PANEL" d="M42.2,99.4h-0.9C18.6,99.4,0,80.8,0,58.1v-0.9C0,34.3,0.2,0,0.2,0h83.2c0,0,0.2,34.3,0.2,57.2v0.9C83.6,80.8,65.1,99.4,42.2,99.4z"></path>
	</defs>
	<clipPath class="js-svgMask svgMask" id="SVGID_2_RNG00B_CHARACTER-ITEM-PANEL" data-svg-origin="42 60.99999237060547" style="transform-origin: 0px 0px 0px; transform: matrix(0.75, 0, 0, 0.75, 10.5, 15.25);">
		<use xlink:href="#SVGID_1_RNG00B_CHARACTER-ITEM-PANEL" overflow="visible"></use>
	</clipPath>
	<g clip-path="url(#SVGID_2_RNG00B_CHARACTER-ITEM-PANEL)">
		<g class="js-svgCharacter svgCharacter" data-svg-origin="-1 7.936572074890137" style="opacity: 1; transform: matrix(1, 0, 0, 1, 0, 50);">
			<g class="js-characterinnerGroup characterinnerGroup" data-svg-origin="41.95000076293945 105.19365978240967" style="transform-origin: 0px 0px 0px; transform: matrix(1, 0, 0, 1, 0, 0);"><path fill="#FFF9C4" d="M84.9 116s-.2-10.3-.7-16.9c-.7-7.4-2.7-18.2-8.6-19.4-.5-.7-1.2-1.3-2-1.7l-12.8-6H23.1l-12.8 6c-.8.4-1.5 1-2 1.7-5.9 1.2-7.9 12-8.6 19.4C-.8 105.7-1 116-1 116h85.9z"></path><path fill="#FFF" d="M54.1 63.1C52.3 60.5 45 60 42.9 60H41c-2.1 0-9.4.5-11.2 3.1L42 70.8l12.1-7.7z"></path><path fill="#FFCCBC" d="M31.1 58.4h21.5v15.1H31.1z"></path><path fill="#EEE" d="M54.1 63.3L42 68.5l-12.2-5.2-1.1 8.8 3.8 5.9H50l5.2-5.9z"></path><path fill="#FFF" d="M28.9 74.9h26.2V102H28.9z"></path><path fill="#81D4FA" d="M56.2 70.7l-2.6 1.2S48.2 87.6 42 93.4c-6.1-5.7-10.8-19.8-10.8-19.8l-6.4 3.1L36 116h11.2l9-45.3z"></path><path fill="#D50000" d="M55.6 71.2L54.3 65s-5.7 5.2-12.3 5.2S29.6 65 29.6 65l-1.3 6.2L41.2 78h1.5l12.9-6.8z"></path><path fill="#FFE082" d="M54.7 66.4l6.2 5.5 2.2 6.7-3.4 1.5 4.5 5.3S57.3 109 51.5 116h-8.4s11.2-29.4 11.6-49.6zM29.3 66.4l-6.2 5.5-2.2 6.7 3.4 1.5-4.5 5.3S26.7 109 32.5 116h8.4c-.1 0-11.3-29.4-11.6-49.6z"></path><path fill="#FF1744" d="M51.9 80.1c2.2-1.6 4.5-4.7 4.5-4.7-3.1-4.5-7.9-5.6-10.1-5.9-.8-1.3-2.5-1.1-4.1-.9-.9.1-1.8-.4-2.4 0-1.6 1.1-2.1 2.1-2.1 2.1l.1.2c-2.1-.6-4.8-.9-7.2-.2-3.7 1.1-3 3-3 3l3 5.6 4-.9c-1.8 2.6-4.2 5.8-5.9 6.9l8.2 4.7s4.1-4 5.4-9.7c1.6 3.1 4.4 7.6 6.3 9.2l6.7-4.1c-1.1-1.2-2.2-3.3-3.4-5.3z"></path><path fill="#D50000" d="M39.4 77.1l-.1-.4c-1.1.4-2.7.9-4.7.8-3.6-.1-3.9 1.7-3.9 1.7 1.9.5 7.1.6 9.3-1.9-.3-.1-.5-.1-.6-.2zM45.1 75.5c-.2.2-.5.4-.7.5 1.5 2.4 4.1 5.2 5.9 5-.4-2.3-3.3-4.3-5.2-5.5zM38.1 71.4c1.9.4 2.7 2.5 2.5 4.3-.7-1.7-1.1-3-2.5-4.3zM46.4 70.4c.8.8.8 2.4-.1 3.1.1-1 .1-2 .1-3.1z"></path><path fill="#D50000" d="M39.5 76.7c.9 1.3 3.5 1.7 5.4-.2 1.1-1 1.3-2.4 1.3-2.4s-2.1 3.1-5.6 1.9l-1.1.7z"></path><path fill="#D50000" d="M38 77.3c1.8-.7 2.4-3 2.4-3s.7 1.8-.2 2.6c-.4.5-2.2.4-2.2.4z"></path><path fill="#FFF" d="M29.8 63.3l5.1 9.5 7.1-4.3zM54.1 63.3l-5 9.5-7.1-4.3z"></path><g class="js-headGroup headGroup"><g class="js-headinnerGroup headinnerGroup" data-svg-origin="41.99999809265137 59.38365497589111" style="transform-origin: 0px 0px 0px; transform: matrix(1, 0, 0, 1, 0, 0);"><path fill="#66BB6A" d="M54.1 9.8c-6.7-2.8-11.9-2.4-15.7.9-.5 0-.9-.1-1.6 0-1.4.3-4 1.4-6 2.4-4.1 2.1-5.9 5.8-6.9 8.6-1 2.6-1.5 5-1.5 7.7s.1 8 1.7 9.3l.6.2c.3 1.3.8 2.9 1.4 4.9.3.9.5 1.6 1.5 2.1 3.2 1.4 3.3-2.9 3-5.4l11.4 3 11.4-3c-.2 2.5-.2 6.8 3 5.4 1-.4 1.2-.9 1.5-1.9.7-2.1 1.1-3.8 1.5-5.1l.6-.1c1.6-1.3 1.7-6.7 1.7-9.3 0-1.1 0-2.2-.1-3.2.8-9.2-2.8-14.5-7.5-16.5z"></path><path fill="#43A047" d="M38.7 10.5c-.6 0-1.3 0-1.9.3-1.4 1-2.7 4.7-3.1 6.7 1.3-3.1 3-5.4 5-7z"></path><path fill="#FFCCBC" d="M55.7 27.8c-.6-4 .4-7-5.5-9.7-2.6-1.2-5.5 1.7-8.3 1.7-2.8 0-5.6-2.9-8.3-1.7-5.8 2.8-4.9 5.7-5.5 9.7-.6 4-2.3 6.8-1.3 10.5.9 3.6 1.1 4 1.1 6.5 0 0 2.5 11.1 2.8 11.6.3.4 11.1 6.2 11.1 6.2s10.8-5.7 11.1-6.2c.3-.4 2.8-11.6 2.8-11.6.1-2.6.2-2.9 1.1-6.5 1.1-3.7-.5-6.5-1.1-10.5z"></path><path fill="#FFAB91" d="M42 48.5c-3 0-7.6.4-5.8 1.1 1.8.7 5.8.4 5.8.4s4 .3 5.8-.4c1.8-.6-2.8-1.1-5.8-1.1z" class="js-mouthGroup mouthGroup" data-svg-origin="42 48.65639038085938" style="transform-origin: 0px 0px 0px; transform: matrix(1, 0, 0, 1, 0, 0);"></path><g fill="#66BB6A" class="js-eyePositionCenterGroup eyePositionCenterGroup" data-svg-origin="32.79999923706055 34.89999771118164" style="transform: matrix(1, 0, 0, 1, 0, 0);"><circle cx="34.5" cy="36.6" r="1.7"></circle><circle cx="49.4" cy="36.6" r="1.7"></circle></g><path fill="#FFAB91" d="M30 36.5c2.3-2.1 6.9-3.3 8.8.1-1-1-2.4-1.6-3.8-1.6-1.7 0-3.4.8-5 1.5zM37.6 37.6c-1.8 1.7-4.9 1.6-6.6-.1 2.3.9 4.2 1 6.6.1z"></path><path fill="#66BB6A" d="M29.1 32s2.4-2.3 3.7-2.6c1.3-.3 2.3-.1 3.6.3 2 .6 3.3 1.4 3.7 1.6.1 0 .1.1 0 .2-.2.3-.8 1-1.7 1.3-1.1.4-3.6-.8-4.7-1.2s-3.1 1-3.1 1c-.5.2-1.2-.1-1.5-.6z"></path><path fill="#FFAB91" d="M53.9 36.5c-1.6-.8-3.3-1.5-5-1.5-1.4 0-2.8.6-3.8 1.6 2-3.3 6.5-2.3 8.8-.1zM46.4 37.6c2.3.9 4.3.8 6.6-.1-1.8 1.7-4.9 1.8-6.6.1z"></path><path fill="#66BB6A" d="M56.4 43.7c-.7.5-1.3 1.7-1.9 3-1.4 3.3-1.3 5.7-1.9 7.1-2.2 2.4-4.2 4.3-7.1 4.3h-7.1c-2.9 0-4.9-1.9-7.1-4.3-.5-1.4-.5-3.8-1.9-7.1-.5-1.3-1.2-2.5-1.9-3-1.3-.9-1.5-1.9-1.5-1.9l1 13c.1.7.3 1.3.7 1.8 1 1.2 3 3.5 4.6 5 2 1.8 4.4 3.4 9.5 3.5 5.1-.2 7.6-1.7 9.5-3.5 1.6-1.5 3.6-3.8 4.6-5 .4-.5.7-1.2.7-1.8l1-13c.2 0 0 .9-1.2 1.9z"></path><path fill="#66BB6A" d="M48.1 47.4c-1.4-1.6-3.4-2-4.5-2.1l-1.6.4-1.7-.4c-1.1.1-3.1.5-4.5 2.1-2 2.2-4.1 1.7-4.1 1.7s1.5.9 4.3.9c2.7 0 2.7-1.1 6-1.1 3.2 0 3.2 1.1 6 1.1 2.7 0 4.3-.9 4.3-.9s-2.1.5-4.2-1.7z"></path><path fill="#FFCCBC" d="M42 37.1v9.7l-1.8-.6c-1.3-.4-1.9-1.8-1.5-3l1.6-3.7 1.7-2.4z"></path><path fill="#FFAB91" d="M42 37.1v9.7l1.8-.6c1.3-.4 1.9-1.8 1.5-3l-1.6-4.4-1.7-1.7z"></path><g class="js-bottomlipGroup bottomlipGroup" data-svg-origin="37.5 51.900001525878906" style="transform: matrix(1, 0, 0, 1, 0, 0);"><path fill="#66BB6A" d="M45.5 58l-1.3-5.2h-4.4L38.4 58c.6.8 7.1.8 7.1 0z"></path><path fill="#FFAB91" d="M46.5 51.9c-.8 1.4-2.9 1.3-4.3 1.3-1.5 0-3.7.1-4.7-1.3 1.3.9 3 .6 4.5.6 1.4-.1 3.2.3 4.5-.6z"></path></g><path fill="#66BB6A" d="M54.8 32s-2.4-2.3-3.7-2.6-2.3-.1-3.6.3c-2 .6-3.3 1.4-3.7 1.6-.1 0-.1.1 0 .2.2.3.8 1 1.7 1.3 1.1.4 3.6-.8 4.7-1.2s3.1 1 3.1 1c.6.2 1.2-.1 1.5-.6z"></path><path fill="#43A047" d="M41.1 17.6c3.1-3.7 7.7-7.1 12.9-5.7-2.5 0-4.7.4-6.9 1.6-2.2 1.1-4 2.7-6 4.1zM49.3 16.7c3.8-2.5 7.6-.6 10.5 2.4-1.6-.8-3.1-2-4.9-2.6-1.8-.6-3.7-.3-5.6.2zM42.6 13.1c.6-1.5 2.4-2.7 4.1-2.7-1.5.8-2.8 1.7-4.1 2.7z"></path><path fill="#FFAB91" d="M26.3 44.5c-.1-.2-.1-.4-.2-.6-1.4-4.3-1.8-6.9-2.5-7.7-.4.1-.7.3-.9.4-1.2.5-1.2 1.9-.5 5.2.7 3 2.1 6.1 4.3 5.1l-.2-2.4zM61.3 36.5c-.2-.1-.5-.2-.9-.4-.8.9-1.1 3.6-2.5 7.9-.1.2-.2.5-.2.6l-.2 2.2c2.2.9 3.7-2.1 4.3-5.1.7-3.3.7-4.6-.5-5.2z"></path><g display="none" class="js-blinkGroup blinkGroup" style="display: none;"><path fill="#FFCCBC" d="M33.8 38.3l-1.5-.2-.9-.3-1.8-1.3 2.8-3.1 20.6.5 1.1 2.9-3.3 1.7-2.9.2-2.5-.4-2.4-1.5-4.8.7-2 .9z"></path><path fill="#FFAB91" d="M30 36.9c2.3 2.2 6.9 3.4 8.8-.2-1 1-2.4 1.6-3.8 1.6-1.7 0-3.4-.6-5-1.4zM54 36.9c-1.6.8-3.3 1.3-5 1.3-1.4 0-2.8-.5-3.8-1.5 1.9 3.4 6.4 2.4 8.8.2z"></path></g></g></g><g class="js-foregroundGroup foregroundGroup" data-svg-origin="56.36347961425781 50.75863265991211" style="transform: matrix(1, 0, 0, 1, 0, 0);"><g class="js-armGroup armGroup" data-svg-origin="68.78173828125 109.47585983276367" style="transform-origin: 0px 0px 0px; transform: matrix(1, 0, 0, 1, 0, 0);"><path fill="#FFCCBC" d="M69.5 81v8.4l9.2 7.3 1.5-18.3s-1.2-3.8-5.8-3.2c-4.6.7-4.9 5.8-4.9 5.8z"></path><g class="js-handGroup handGroup" data-svg-origin="73.36347961425781 77.75863265991211" style="transform-origin: 0px 0px 0px; transform: matrix(1, 0, 0, 1, 0, 0);"><path fill="#FFAB91" d="M78.4 67.3l-3.7-7-6.3-3.5L67 68.6z"></path><path fill="#66BB6A" d="M73.1 55.4l2.7.9c-.5 7.6-8.4 14.6-15.9 14.1l-.6-2.8c3.7-.3 6-2.8 8.5-5.3 2.1-2 4.7-3.8 5.3-6.9z"></path><path fill="#FFF" d="M72.1 55.1l1 .3c-1.3 6.7-7 11.7-13.8 12.2l-.2-1c3.3-.4 5.2-3.2 7.6-5.4 2.1-2 4.7-3.2 5.4-6.1z"></path><path fill="#F48FB1" d="M60.5 51.2c0 .2.1.4.1.6 0 2.1-1.7 3.7-3.7 3.7l2.2 11c6.3-.7 11.5-5.3 13-11.5l-11.6-3.8z"></path><path fill="#F48FB1" d="M56.4 53.4l.5 2.4c2 0 3.8-1.8 3.8-3.9 0-.2 0-.4-.1-.6l-1.3-.4c-1.6-.6-3.2.8-2.9 2.5z" class="js-watermelon-pieceGroup watermelon-pieceGroup" style="opacity: 0;"></path><path fill="#D50000" d="M67.5 56.4l.9-.7-1-.5-.9.7 1 .5zM60.8 55l1.4.2-.5-1.2-1.4-.2.5 1.2zM61.1 57.9l.2 1.3-1.3-.5-.1-1.3 1.2.5z"></path><path fill="#FFCCBC" d="M62.2 64.1l.6.3 3.3 1.7 3.3 2.9-2.4-1.4c-1.1-.4-2.7 1.2-1.9 2.6l.7 1.5c-1.1.2-1.9 1.7-.8 3l4.5 6.4s3.7 3 7 1.7 3.6-4.3 3.6-4.3l-1.8-11.2-6.2-6.8-4.5-2.5s-1.3-.7-1.7-.8c-.7-.3-1.7-.6-2 .1-.4 1.1.2 1.5.9 2 .6.5 1.7 1.1 1.7 1.1l2.6 1.9 2.5 3.6-4-2.7-3.1-1.4-2.9-.7s-.8.1-1 .7c-.3.5.5 1.8 1.6 2.3z"></path></g><path fill="#FFF" d="M68 86.1l11.7.9-1.2 22.8-13.9 1.1z"></path><circle fill="#81D4FA" cx="70.2" cy="89.1" r=".7"></circle><path fill="#FFE082" d="M62 116l3.7-24.8 14.4 1.3 1.1 23.5z"></path></g></g></g>
		</g>
	</g>
</svg>