<svg version="1.1" xmlns="http://www.w3.org/2000/svg" xmlns:xlink="http://www.w3.org/1999/xlink" viewBox="0 0 83.7 100" preserveAspectRatio="xMidYMid meet">
	<g class="js-svgBg svgBg" data-svg-origin="41.75020217895508 57.64999771118164" style="transform-origin: 0px 0px 0px; transform: matrix(0.99999, 0, 0, 0.99999, 0, 0); fill: rgb(255, 255, 255);">
		<path d="M42.2,99.4h-0.9C18.6,99.4,0,80.8,0,58.1v-0.9c0-22.9,18.6-41.3,41.3-41.3h0.9c22.9,0,41.3,18.6,41.3,41.3v0.9
			C83.6,80.8,65.1,99.4,42.2,99.4z"></path>
	</g>
	<defs>
		<path id="SVGID_1_NB5229_CHARACTER-ITEM-PANEL" d="M42.2,99.4h-0.9C18.6,99.4,0,80.8,0,58.1v-0.9C0,34.3,0.2,0,0.2,0h83.2c0,0,0.2,34.3,0.2,57.2v0.9C83.6,80.8,65.1,99.4,42.2,99.4z"></path>
	</defs>
	<clipPath class="js-svgMask svgMask" id="SVGID_2_NB5229_CHARACTER-ITEM-PANEL" data-svg-origin="42 60.99999237060547" style="transform-origin: 0px 0px 0px; transform: matrix(0.99999, 0, 0, 0.99999, 0, 0);">
		<use xlink:href="#SVGID_1_NB5229_CHARACTER-ITEM-PANEL" overflow="visible"></use>
	</clipPath>
	<g clip-path="url(#SVGID_2_NB5229_CHARACTER-ITEM-PANEL)">
		<g class="js-svgCharacter svgCharacter" data-svg-origin="6.700001239776611 8.400001525878906" style="opacity: 1; transform: matrix(1, 0, 0, 1, 0, 0);">
			<g class="js-characterinnerGroup characterinnerGroup" data-svg-origin="41.95254182815552 99.84000701904297" style="transform-origin: 0px 0px 0px; transform: matrix(1, 0, 0, 1, 0, 0);"><path fill="#D81B60" d="M57.7 62s4.2.3 6.7 3.9c1.3 1.8 3.2 9.1 3.2 9.1L58 70.6l-.3-8.6zM26.3 62s-4.2.3-6.7 3.9c-1.3 1.8-3.2 9.1-3.2 9.1l9.5-4.5.4-8.5z"></path><path fill="#FFCCBC" d="M64.4 93.5H19.6s-3.7-19.7 0-22.6c3.7-2.9 41.5-3 44.8 0 3.2 3.1 0 22.6 0 22.6z"></path><path fill="#FFCCBC" d="M70.2 81.6c1.5-1.7 1.4-4.2-.2-5.9-2.6-2.7-20-11-20-16V47.3H34v12.5c0 4.9-17.4 13.2-20 16-1.5 1.6-1.6 4.2-.2 5.9 3.3 3.9 7.3 9.9 28.2 9.9 20.8-.1 24.8-6.1 28.2-10z"></path><path fill="#FFAB91" d="M23.9 71.5l1.9 6-2.5 5 4.7 4.3 6.3-8.9-6.5-7.5z"></path><path fill="#D81B60" d="M60.7 64.3c.6-.9 1.1-.2 2.8-2.6 3.2-4.5 2.2-9.7 2.2-9.7H18.3s-1 5.1 2.2 9.7c1.7 2.4 2.2 1.9 2.8 2.8.5.8-3.5 5.9-3.5 6.4 2.4-.6 6.1 7.7 16.4 7.2l5.8-2.5c9.1 0 16.4-4.4 22.2-4.9 0-.4-4-5.6-3.5-6.4z"></path><path fill="#FFF" d="M75.2 83.6c-.4-2.5-1.5-4.9-3.1-6.8-1.1-1.2-4.1-3.6-7.7-5.9C62.3 82.5 53.1 91.3 42 91.3S21.7 82.5 19.6 71c-3.6 2.2-6.6 4.6-7.7 5.8-1.7 1.9-2.8 4.3-3.1 6.8-.7 5.1-2.1 26.4-2.1 26.4h70.5c.1 0-1.3-21.3-2-26.4z" class="js-offwhiteGroup offwhiteGroup"></path><g class="js-headGroup headGroup"><g class="js-headinnerGroup headinnerGroup" data-svg-origin="42.16588020324707 55.500003814697266" style="transform-origin: 0px 0px 0px; transform: matrix3d(0.996195, 0.0871557, 0, 0, -0.0871557, 0.996195, 0, 0, 0, 0, 1, 0, 4.99759, -3.4638, 0, 1);"><path fill="#D81B60" d="M33.3 85.3c0 .4 6.1 17.3 6.1 17.3l6.4-8 .7-3 5.4-.6 4.7-11.2L51 68.7l-18.5 7.9.8 8.7z"></path><path fill="#FF4081" d="M66.3 37.4c-1.3-4.5-3.6-8.8-6-12.4-2-5.6-4.9-9.9-6.4-11.7-1.8-2.2-8.6-4.9-11.8-4.9-3.3 0-9.9 2.6-11.7 4.9C28.8 15.1 26 19.4 24 25c-2.4 3.6-4.7 7.9-6 12.4-1.5 5.2-2.6 7.9-1.2 13.4 1.3 5.1 5.9 9.5 15.2 12.8-1.4 5.4-3.7 15.7-3.7 15.7L33 98.1s6.6-6.4 11.8-13.1c2.1-2.7 1.1-6.3 1.1-6.3l6.3.7 6-4.5-6.1-11.4c9.4-3.3 14.2-7.7 15.5-12.8 1.3-5.5.2-8.2-1.3-13.3z"></path><path fill="#D81B60" d="M34 15c-2.1 2.6-7 10.1-8.7 19.2 11.2 2.1 22.6 3.3 34 3.8-.7-10.7-6.8-20.1-9.1-23-3.3-4.1-12.9-4.1-16.2 0z"></path><path fill="#26C6DA" d="M59.3 38c-.5-8.7-3.8-15-8.3-18.7-2.2-1.8-5.8-2.6-9-2.6-3.1 0-6.5.7-8.8 2.6-4 3.3-7 8.5-8 15.5-.5 3.3-.6 6.8 0 10.3 1.5 8.5 14 13.6 16.8 13.6 2.8 0 15.5-5.2 17-13.6.4-2.5.5-4.8.3-7.1z"></path><path fill="#FFCCBC" d="M55.9 34c-.5-5.5-3.6-11.9-13.9-11.9S28.6 28.5 28.1 34c-.3 3.5-2 15.1 3.3 20.5 2.7 2.7 8 5.4 10.6 5.4 2.6 0 7.9-2.7 10.6-5.4 5.3-5.4 3.6-17 3.3-20.5z"></path><path fill="#D81B60" d="M60.5 28.5c1.8 5.2 3.2 10.8 2.4 16.3-.8 5.2-3.5 10.7-7.6 14 3.9-3.9 6.4-9.6 7-15.1.5-5.1-.6-10.2-1.8-15.2zM65.3 48.2c-.5 3.7-3.3 7-6.5 8.7 2.5-2.8 4.8-5.4 6.5-8.7zM23.7 28.5c-1.2 5-2.3 10.1-1.7 15.2.6 5.5 3.1 11.2 7 15.1-4.2-3.3-6.9-8.8-7.6-14-.9-5.5.4-11.1 2.3-16.3zM18.9 48.2c1.7 3.4 4 6 6.5 8.7-3.2-1.7-6.1-5.1-6.5-8.7z"></path><path fill="#26C6DA" d="M53.6 28.4c0-1.7-.9-4.5-3.3-6.3-.3-.9-8.2-2.3-8.2-2.3s-10.2 4.9-6.5 3.4c3.7-1.5 6.5.4 6.5.4s2.1-1.4 5-.8c1.8.8 3.4 2 4.1 4.2 1.2 3.7 2.3 3.9 3.7 4.7 0-.1-1.3-1.1-1.3-3.3z"></path><circle fill="#00ACC1" cx="49" cy="38.7" r="1.7"></circle><path fill="#FFAB91" d="M47.1 40.2c1.5 0 2.9.1 4.3-.3-1 1.2-3 1.2-4.3.3zM52.9 38.3c-.8-.4-1.6-.8-2.4-1-.3-.1-2.2-.4-3.4.1-.8.3-1.5.9-2 1.6 1.3-3.3 5.7-3 7.8-.7z"></path><path fill="#00ACC1" d="M34.7 31.2c1.5-.1 2.7.1 3.4.3.5.1.8 1.9.1 1.8-1.5-.2-3.8-.5-5.3-.4-1.8.2-3.2 1-3.7 1.5.6-1.5 2.6-3 5.5-3.2z" class="js-eyebrowLeftGroup eyebrowLeftGroup" data-svg-origin="33.906036376953125 32.78670024871826" style="transform-origin: 0px 0px 0px; transform: matrix3d(0.999391, -0.0348972, 0, 0, 0.0348972, 0.999391, 0, 0, 0, 0, 1, 0, -1.12351, 0.203262, 0, 1);"></path><circle fill="#00ACC1" cx="35" cy="38.7" r="1.7"></circle><path fill="#FFAB91" d="M36.9 40.2c-1.5 0-2.9.1-4.3-.3 1 1.2 3 1.2 4.3.3zM31.1 38.3c.8-.4 1.6-.8 2.4-1 .3-.1 2.2-.4 3.4.1.8.3 1.5.9 2 1.6-1.3-3.3-5.7-3-7.8-.7zM42 47.1l1.5-.6c.8-.3 1.2-1.3.8-2.1L42 39.8v7.3z"></path><path fill="#FF8A80" d="M43.3 50.1c-.8 0-.8.4-1.3.4s-.5-.4-1.3-.4c-.9 0-3 1.7-3 1.7s1.6 1.7 4.3 1.7c2.6 0 4.3-1.7 4.3-1.7s-2-1.7-3-1.7z"></path><path fill="#00ACC1" d="M49.3 31.2c-1.5-.1-2.7.1-3.4.3-.5.1-.8 1.9-.1 1.8 1.5-.2 3.8-.5 5.3-.4 1.8.2 3.2 1 3.7 1.5-.6-1.5-2.6-3-5.5-3.2z" class="js-eyebrowRightGroup eyebrowRightGroup" data-svg-origin="50.093963623046875 32.78670024871826" style="transform-origin: 0px 0px 0px; transform: matrix3d(0.999391, 0.0348972, 0, 0, -0.0348972, 0.999391, 0, 0, 0, 0, 1, 0, 1.17468, -2.7281, 0, 1);"></path><g display="none" class="js-blinkGroup blinkGroup" style="display: none;"><path fill="#FFCCBC" d="M34.5 40.8l-1.4-.6-1.1-.4-1.3-1.6 1.1-3.1 19.1.6 2.5 2.4-1.7 2.1-1.7.6-2.1-.1-2.1-1-6.8-.4-2.3 1.3z"></path><path fill="#FFAB91" d="M38.9 39.4c-.8.4-1.6.8-2.4 1-.3.1-2.2.4-3.4-.1-.8-.3-1.5-.9-2-1.6 1.3 3.2 5.7 3 7.8.7zM45.1 39.4c.8.4 1.6.8 2.4 1 .3.1 2.2.4 3.4-.1.8-.3 1.5-.9 2-1.6-1.3 3.2-5.7 3-7.8.7z"></path></g></g></g><g class="js-foregroundGroup foregroundGroup" data-svg-origin="10.700000762939453 56.181640625" style="transform: matrix(1, 0, 0, 1, 0, 0);"><g class="js-armGroup armGroup" data-svg-origin="26.75 103.358162689209" style="transform-origin: 0px 0px 0px; transform: matrix3d(0.98481, -0.173637, 0, 0, 0.173637, 0.98481, 0, 0, 0, 0, 1, 0, -17.5405, 6.21482, 0, 1);"><path fill="#FFCCBC" d="M27.5 77.5c-.5 1-16.8 31.1-16.8 31.1l16.5-.4 7.4-29.9c1.6-4.5-5.2-4.5-7.1-.8z"></path><g class="js-handGroup handGroup" data-svg-origin="32.025001525878906 78.181640625" style="transform-origin: 0px 0px 0px; transform: matrix3d(0.867924, -0.496696, 0, 0, 0.496696, 0.867924, 0, 0, 0, 0, 1, 0, -34.6028, 26.2326, 0, 1);"><path fill="#FFAB91" d="M35.2 74.2l-1.9-8.5 2-1.6-5.3-1.4v9.2z"></path><path fill="#FFCCBC" d="M32.9 60.7l5-3.2s0-1.5-1.5-1.3L29.8 59c-.4.2-.7 1.3-.1 1.9 1.2 1.2 3.2-.2 3.2-.2z" class="js-fingerOneGroup fingerOneGroup" data-svg-origin="31.068572998046875 59.824693298339845" style="transform-origin: 0px 0px 0px; transform: matrix3d(0.766044, 0.642788, 0, 0, -0.642788, 0.766044, 0, 0, 0, 0, 1, 0, 45.7232, -5.97417, 0, 1);"></path><path fill="#FFAB91" d="M38.5 61.4l2.1 4.1s-1 .5-2-.3c-1-.9-2.6-3-2.6-3l2.5-.8z" class="js-fingerTwoGroup fingerTwoGroup" data-svg-origin="38.29999923706055 61.61271381378174" style="transform-origin: 0px 0px 0px; transform: matrix3d(0.766086, 0.642738, 0, 0, -0.642738, 0.766086, 0, 0, 0, 0, 1, 0, 48.5597, -10.2048, 0, 1);"></path><path fill="#FFCCBC" d="M42.2 63.6l.6-.5-4-2s-1.1-.2-1.4.6c-.4 1.1.8 1.5.8 1.5l2.2.7c.7.2 1.3.1 1.8-.3z" class="js-fingerThreeGroup fingerThreeGroup" data-svg-origin="38.688772201538086 61.66222229003906" style="transform-origin: 0px 0px 0px; transform: matrix3d(0.64792, 0.761709, 0, 0, -0.761709, 0.64792, 0, 0, 0, 0, 1, 0, 60.5902, -7.75952, 0, 1);"></path><path fill="#FFCCBC" d="M35.7 67.4l1.5 1.1c.5.4 1.3.4 1.8-.1l.1-.1-2.4-2.8s-1-.5-1.6.4.6 1.5.6 1.5z" class="js-fingerFourGroup fingerFourGroup" data-svg-origin="35.9739990234375 66.21825790405273" style="transform-origin: 0px 0px 0px; transform: matrix(0.76604, 0.64278, -0.64278, 0.76604, 50.9806, -7.63151);"></path><path fill="#FFCCBC" d="M38.8 61.2c-.2-.4-.6-.7-.9-1.2s-1.5-.2-1.5-.2l-3.5.9s.3-.8-.6-1.6c-1-.8-2.4 0-2.4 0-.4.2-.7.5-.9.8l-3.3 4.3c-.6.7-.8 1.7-.6 2.6l2.2 11.6s.5 2.6 3.2 2.9c2.8.2 4.4-2.9 4.4-2.9 1.4-4.7-.6-8-2.1-10.1l3.1-.9s1 0 1.3-.6c.4-.8-.2-1.3-.2-1.3l-3.2-.9s4-1.2 4.7-1.4c.6-.3.8-1.1.3-2z"></path></g></g></g><path fill="#F5F5F5" d="M18.4 96.6l-6.6 12.3 16.7 1 1.1-8.4c-4.8-.1-9.1-2.2-11.2-4.9z"></path></g>
		</g>
	</g>
</svg>