<svg version="1.1" xmlns="http://www.w3.org/2000/svg" xmlns:xlink="http://www.w3.org/1999/xlink" viewBox="0 0 83.7 100" preserveAspectRatio="xMidYMid meet">
	<g class="js-svgBg svgBg" data-svg-origin="41.75020217895508 57.64999771118164" style="transform-origin: 0px 0px 0px; transform: matrix(0.99999, 0, 0, 0.99999, 9.12697e-06, 1.26028e-05); fill: rgb(255, 255, 255);">
		<path d="M42.2,99.4h-0.9C18.6,99.4,0,80.8,0,58.1v-0.9c0-22.9,18.6-41.3,41.3-41.3h0.9c22.9,0,41.3,18.6,41.3,41.3v0.9
			C83.6,80.8,65.1,99.4,42.2,99.4z"></path>
	</g>
	<defs>
		<path id="SVGID_1_CA8K01_CHARACTER-ITEM-PANEL" d="M42.2,99.4h-0.9C18.6,99.4,0,80.8,0,58.1v-0.9C0,34.3,0.2,0,0.2,0h83.2c0,0,0.2,34.3,0.2,57.2v0.9C83.6,80.8,65.1,99.4,42.2,99.4z"></path>
	</defs>
	<clipPath class="js-svgMask svgMask" id="SVGID_2_CA8K01_CHARACTER-ITEM-PANEL" data-svg-origin="42 60.99999237060547" style="transform-origin: 0px 0px 0px; transform: matrix(0.99999, 0, 0, 0.99999, 9.18157e-06, 1.33351e-05);">
		<use xlink:href="#SVGID_1_CA8K01_CHARACTER-ITEM-PANEL" overflow="visible"></use>
	</clipPath>
	<g clip-path="url(#SVGID_2_CA8K01_CHARACTER-ITEM-PANEL)">
		<g class="js-svgCharacter svgCharacter" data-svg-origin="1.4725265502929688 9.494807243347168" style="opacity: 1; transform: matrix(1, 0, 0, 1, 0, 0);">
			<g class="js-characterinnerGroup characterinnerGroup"><path fill="#F0F4C3" d="M63.4 23.2c-4-8.2-12-13.5-20.3-13.7-7.2-.2-17.2 5.4-18 12.6 0 .4.6 1.2 1.9 2.3-2.1 3-3.8 5.9-3.8 5.9-4.5 7.7-4.7 13.5-3.7 19.3s1.5 11.9.8 14.7c.2-.2 1.3-1.7 2.4-3.6 1.5 6.5 3.5 14 6.5 15.4l29.4-5.5c1.5-1.3 2.8-3 3.5-5.1 1.3-3.9.8-7.5 1.8-12.6.6 1.9 1.3 4.5 1.3 4.5 2-6.4 4.5-21.1-1.8-34.2z" class="js-headGroup headGroup"></path><path fill="#7E57C2" d="M26.1 67.1s3.4-1.5 10.2-1.3S57 67 64.5 71.2 53.4 98.9 53.4 98.9l-30-28.2 2.7-3.6z"></path><path fill="#FFCCBC" d="M15.5 75.1c6.5-4.4 17.2-6.7 17.2-11V56h9l8.7-.3c.1 4.9 0 4.1 0 8.2 0 4.4 10.8 7.1 17.3 11.6L54.1 93.3 15.5 75.1z"></path><path fill="#B0BEC5" d="M41.2 82c-5.7-1.7-11-7.9-13.3-13.4-3.7 2.1-8.8 4.1-12.5 6.6l26.1 36.2L63.2 78c-5.2 4.3-11.6 7.1-22 4z"></path><path fill="#9575CD" d="M80 100.1c-.8-1.4-.4-3.6-.4-3.6s-1.5-8.8-4.1-15.2c-2.5-6.4-10.4-9.7-10.4-9.7-2.5 6.8-6.5 13.1-11.6 18.3-1.7 1.7-3.4 3.2-5 4.9-2 2.2-3.6 4.8-5.2 7.3-.9 1.5-1.8 2.4-2.6 3.3-.7-2.2-1.7-4.9-2.7-7.9-2.9-8.1-7-14.8-11.5-23.6-1-1.9-1.9-5.2-.5-6.9 0 0-11.3 6.2-14 9.3-2.5 3.2-7 14-7 14l.2 2.8S1.1 105 1.5 112h78.7s.6-10.5-.2-11.9z"></path><path fill="#7E57C2" d="M6.9 93.3c4.3 2.8 8.7 9.3 9.9 14.3-2.4-5-6-10.4-9.9-14.3zM63.2 109.3c2.6-3.5 6.5-6.5 10.7-8.1-3.6 2.7-7.1 5.4-10.7 8.1z"></path><g class="js-headGroup headGroup"><g class="js-headinnerGroup headinnerGroup"><path fill="#FFAB91" d="M24.5 38.3c-.1-.1-.1-.3-.2-.4-.6.3-1.3.5-2.1.7.6 5.1 4.5 6.9 5.9 6.1L26.5 41s-1.4-1.4-2-2.7zM58.9 37c-.1.5-.2.9-.4 1.3-.5 1.3-1.9 2.7-1.9 2.7l-1.7 3.7c1.5.9 6-1.3 6-7.3V37h-2zM50 56H33v3.7c3 2.3 5.6 3.3 8.7 3.3s6-.6 8.6-2.8"></path><path fill="#FFCCBC" d="M47.7 31.7c-1.4-2.1-5.3-8.5-10.1-10.7-.8.2-1.5.4-1.9.6-5.6 2.9-5.7 10.9-9.4 14.8l-.4 3.7c0 2.7 2.4 9.8 3.1 11.5C31.7 58 36.5 61 41.6 61s9.8-2.9 12.6-9.3c.7-1.7 3.1-8.8 3.1-11.5l-.4-3.4c-3.5-.5-7.3-2.2-9.2-5.1z"></path><path fill="#FFAB91" d="M41.6 46.1l1.8-.6c.9-.3 1.4-1.4 1.1-2.3l-1.3-3.3-1.5-2.1v8.3z"></path><path fill="#FF4081" d="M42 50.7l-.4.2-.4-.2c-.9-.5-2-.4-2.9.1L36 52.1c.3.8 2.4 1.9 5.6 1.9 3.2 0 5.3-1.2 5.6-1.9L45 50.8c-1-.6-2.1-.6-3-.1z"></path><g fill="#FFAB91"><path d="M37.9 38.1c-2.1 2-5.6 1.9-7.5-.2 2.3 1.4 5.1 1.4 7.5.2zM29.7 37c2.6-3 7-3.6 9.1.3-1.2-1.3-2.7-2.3-4.4-2.3-1.7 0-3.3 1.1-4.7 2z"></path></g><path fill="#8BC34A" d="M36.5 29.3c-1.1-.1-2-.1-3.5.2-2.1.5-3.6 2.2-4.4 3.3l-.3.6c.6-.3 3-1.3 4.7-1.6 2.9-.4 5 0 5 0s-.6-2.4-1.5-2.5zM46.2 29.5c-.7.5-1.2 2.3-1.2 2.3s1-.2 2.7-.2c-.4-.5-.9-1.3-1.5-2.1z"></path><path fill="#E6EE9C" d="M50.5 28.2c2 2.6 4.5 4.5 7.5 5.7-3.2-.3-6.3-2.7-7.5-5.7z"></path><path fill="#FF80AB" d="M55 19.4c-3.2-3.6-10.9-6.2-15.3-5.2C29.2 13 24 23.4 24 23.4v3.1c-1 1.1-1 2.4-.9 3.8 2.3-3 7.3-12 20.2-9.8s12.8 6.1 15.6 8.8c-.1.1-.7-6.4-3.9-9.9z"></path><path fill="#FF4081" d="M39.8 14.1c-4.6.5-7.7 2.6-10.6 5.4-1.6 1.6-5 7-5 7s7.2-10.4 15.6-12.4z"></path><g fill="#8BC34A" class="js-eyePositionCenterGroup eyePositionCenterGroup" data-svg-origin="32.70000076293945 35.5" style="transform: matrix3d(1, 0, 0, 0, 0, 1, 0, 0, 0, 0, 1, 0, -0.326987, 0, 0, 1);"><circle cx="48.7" cy="37.2" r="1.7"></circle><circle cx="34.4" cy="37.2" r="1.7"></circle></g><path fill="#FFAB91" d="M45.2 38.1c2.1 2 5.6 1.9 7.5-.2-2.3 1.4-5.1 1.4-7.5.2zM53.5 37c-2.6-3-7-3.6-9.1.3C45.5 36 47 35 48.7 35c1.7 0 3.4 1.1 4.8 2z"></path><g display="none" class="js-blinkGroup blinkGroup" style="display: none;"><path fill="#FFCCBC" d="M29.5 36.4l4.6-2.3 4.5.4 11.1-.3 4.3 2.4-1.1 2.5-5.5 1.7-6.1-4.8-4.1 4.5-5.6.1z"></path><path fill="#FFAB91" d="M45.2 38.1c2.1 2 5.6 1.9 7.5-.2-2.3 1.4-5.1 1.4-7.5.2zM37.9 38.1c-2.1 2-5.6 1.9-7.5-.2 2.3 1.4 5.1 1.4 7.5.2z"></path></g></g></g><path fill="#7E57C2" d="M48 106.9c1.4-2.3 3.1-5.1 5.1-7.4.8-.9 1.9-1.8 3-2.5 1-.7 1.9-1.4 2.7-2.2 2.4-2.4 7.1-8.2 11.7-20l-.7-.3c-4.6 11.7-9.2 17.4-11.5 19.7-.7.7-1.7 1.4-2.6 2.1-1.1.8-2.3 1.6-3.1 2.6-2.1 2.3-3.8 5.3-5.2 7.7-1.3 2.1-3.1 3.5-4.5 5.5H44c1.3-2.1 2.8-3.3 4-5.2zM32.4 99.8c-2.1-5.8-4.7-10.9-7.8-16.6-1.2-2.3-2.4-4.7-3.7-7.2-.7-1.3-1.3-3.3-1.1-4.8l-.7-.2c-.2 1.7.5 3.8 1.2 5.2 1.3 2.5 2.5 4.9 3.7 7.1 3 5.7 5.7 10.9 7.7 16.7 1.5 4.2 3.1 7.9 4 11.9h.8c-.9-3.9-2.5-7.7-4.1-12.1z"></path></g>
		</g>
	</g>
</svg>