<svg version="1.1" xmlns="http://www.w3.org/2000/svg" xmlns:xlink="http://www.w3.org/1999/xlink" viewBox="0 0 83.7 100" preserveAspectRatio="xMidYMid meet">
	<g class="js-svgBg svgBg" data-svg-origin="41.75020217895508 57.64999771118164" style="transform-origin: 0px 0px 0px; transform: matrix(1, 0, 0, 1, 0, 0); fill: rgb(255, 255, 255);">
		<path d="M42.2,99.4h-0.9C18.6,99.4,0,80.8,0,58.1v-0.9c0-22.9,18.6-41.3,41.3-41.3h0.9c22.9,0,41.3,18.6,41.3,41.3v0.9
			C83.6,80.8,65.1,99.4,42.2,99.4z"></path>
	</g>
	<defs>
		<path id="SVGID_1_BT3HLK_CHARACTER-ITEM-PANEL" d="M42.2,99.4h-0.9C18.6,99.4,0,80.8,0,58.1v-0.9C0,34.3,0.2,0,0.2,0h83.2c0,0,0.2,34.3,0.2,57.2v0.9C83.6,80.8,65.1,99.4,42.2,99.4z"></path>
	</defs>
	<clipPath class="js-svgMask svgMask" id="SVGID_2_BT3HLK_CHARACTER-ITEM-PANEL" data-svg-origin="42 60.99999237060547" style="transform-origin: 0px 0px 0px; transform: matrix(1, 0, 0, 1, 0, 0);">
		<use xlink:href="#SVGID_1_BT3HLK_CHARACTER-ITEM-PANEL" overflow="visible"></use>
	</clipPath>
	<g clip-path="url(#SVGID_2_BT3HLK_CHARACTER-ITEM-PANEL)">
		<g class="js-svgCharacter svgCharacter" data-svg-origin="-2.0000009536743164 8.700000762939453" style="opacity: 1; transform: matrix(1, 0, 0, 1, 0, 0);">
			<g class="js-characterinnerGroup characterinnerGroup" data-svg-origin="41.999999046325684 106.25999526977539" style="transform-origin: 0px 0px 0px; transform: matrix3d(0.999391, 0.0348995, 0, 0, -0.0348995, 0.999391, 0, 0, 0, 0, 1, 0, 3.73401, -1.40105, 0, 1);"><path fill="#FFCCBC" d="M31.1 56.2h21.8v16.7H31.1z"></path><path fill="#FFF" d="M78 78.8c-2.2-1.6-4.8-.2-4.8-.2L42.5 73 11 78.6s-2.8-1.4-5 .2C-.3 83.3-2 93.7-2 101v16.1h88V101c0-7.3-1.7-17.7-8-22.2z" class="js-offwhiteGroup offwhiteGroup"></path><path fill="#BA68C8" d="M53 60.5v1s-1.8 1.6-3.4 3.6c-1.6 1.9-2.9 3.3-4.5 3.4l-5.5-1.3c-.8-.7-3.4-.8-5.3-2.4-1.9-1.5-3.3-3.2-3.3-3.2v-1c-1 .3-.9.8-1.3 1.3L35.5 76l13.2.4 5.5-14.5c-.3-.6-.2-1.1-1.2-1.4z"></path><path fill="#AB47BC" d="M47.8 70.9c-.5-1.2-1.3-2.2-2.6-2.4l-2.6.8-3-2.1c-1.3.2-2.2 1.1-2.8 2.3-.3.7-1.2 2.5-1.8 5l.6 1.5.8 5.1 12-.6.4-4.1.4-1.2c-.5-2.2-1.1-3.7-1.4-4.3z"></path><path fill="#ECEFF1" d="M57 75.1l-8-.3v1.5l6.1 7.5zM35.2 74.8l-4.7 1.9 1.7 3.4 3.4-4.2z"></path><path fill="#FFF176" d="M55 68.2l-13.2 34.2-13-34-17.4 10.2L14 99.8V117h56V99.8l2.6-21.2z"></path><path fill="#FFE082" d="M29.1 68.1l-4.7 2.8L39 109.8v7.2h6v-7.2zM45.3 108l14.1-37.1-4.5-2.8-12.4 32.5z"></path><circle fill="#FFF176" cx="42.2" cy="110.3" r=".9"></circle><path fill="#FFF" d="M54.2 61.9l2.6 7.1-1.5 13.5-6.5-7.7z" class="js-offwhiteGroup offwhiteGroup"></path><path fill="#BA68C8" d="M46.9 70.5c-.4-1.1-.9-1.9-1.9-2.4-.9-.5-1.3.1-2.4-.2s-1.9-1.5-2.8-.9c-.9.5-2.3 2.5-2.6 3.6-.7 2-1.3 4.7-1.3 6.9 0 2.8.7 8.8 6.2 11.4l6.4-8.3c.1-3.6-.5-6.9-1.6-10.1z"></path><path fill="#AB47BC" d="M38.7 77.7c.4 1.4.8 2.7 1.5 4 .7 1.3 1.5 2.4 2.4 3.6-2.6-1.4-4.3-4.7-3.9-7.6z"></path><path fill="#FFF" d="M29.8 61.9L27.2 69l1.1 13.5 6.9-7.7z" class="js-offwhiteGroup offwhiteGroup"></path><path fill="#AB47BC" d="M44.9 84.9l1.7-2.2c-1.1-.8-2.4-1.7-3.3-3-1.4-2-2.1-6.2-2.1-6.2s-.1.7 0 4.1c.1 3.5 2.2 6.5 3.7 7.3z"></path><g class="js-headGroup headGroup"><g class="js-headinnerGroup headinnerGroup" data-svg-origin="42.00000190734863 58.46999664306641" style="transform-origin: 0px 0px 0px; transform: matrix3d(0.990268, -0.139173, 0, 0, 0.139173, 0.990268, 0, 0, 0, 0, 1, 0, -7.72871, 6.4143, 0, 1);"><path fill="#EF5350" d="M62.4 34.3c0-.1-.1-.1-.1-.2V34c-.8-2.4-.6-8-2-11.8-1.3-3.3-2.3-5-4.9-7.3-3.6-3.3-7.7-6.2-13.3-6.2-5.6 0-9.7 2.9-13.3 6.2-2.6 2.3-4.3 5.5-4.9 7.3-.6 1.8-1.3 6.6-1.3 6.6l1.2-1.1c-.3.9-1.6 4.9-2.2 5.4 0 0 .7-.1 1.4-.3l-.4 2.4c0 .6.2 1.2.5 1.7l2.9 7.5 32.3 1.5 3.1-9c.3-.5.7-1.1.7-1.7v-.8l.7.1c-.1 0-.4-.1-.4-.2z"></path><path fill="#FFCCBC" d="M59.6 34.9l-.1 2.4c0 1.2-.3 2.3-.7 3.4l-1.1 3s-.6-1.6-.6-2.1c.1-1.1-.5-4.4-.9-6.3-.3-1.6-.5-3.2-.6-4.2-.1-2.1 0-5.9-.2-8-.6-1.3-1-2.4-1.1-2.2 0 .4-1.1 1-1.1 1 0-1.3-1.1-3.8-3.1-5.8-.1-.1-.5-.4-.9-.5-.8.3-1.5.5-2.1.6-.3.1-.3.1-.5.4-.5.7-1 1.6-1.6 2.5-1.4 2.3-3.1 4.1-6.4 4.9 0 0 1.9-2.5 2.4-4.5 0 0-1.4 1.6-3.2 2.6 0 0 .1-.5.9-1.8-1.2-.6-2.3-1.5-3-3.1-.5 1.3.6 3.2.6 3.2s-1-.3-2.1-1.7c-.6-.8-.8-1.5-.9-2.6V16c-2.3 1.7-4.1 3.8-4.8 5.7-.5 1.1-.3 6.6-.4 9.2-.1 1-.3 2.6-.6 4.2-.4 1.9-1 5.2-.9 6.3 0 .4-.6 2.1-.6 2.1l-1.1-3c-.4-1.1-.6-2.2-.7-3.4l-.1-2.4c-1 .6-1.7 2-1.5 4.7.3 5.1 1 8.2 5.1 6.8.2-.1 3.5 10.9 5.3 11.6 3.1 1.3 14.6 1.3 17.7 0 1.7-.7 5.1-11.7 5.3-11.6 4.1 1.4 4.8-1.7 5.1-6.8.2-2.5-.5-3.8-1.5-4.5z"></path><path fill="#FFF9C4" d="M55 34.8l2.1-.3-.1-.5-2.2.3c-.2-.4-.3-.5-.6-.4-.2 0-.4 0-.5.1-1-.6-2.5-.9-4.3-.9-2.5 0-4.5.9-5.4 1.9 0-.1 0-.2-.1-.3-.2-.5-.7-.4-1.1-.3-.2.1-.5.1-.8.1-.3 0-.6-.1-.8-.1-.4-.1-.9-.2-1.1.3 0 .1 0 .2-.1.3-.9-1.1-2.9-1.9-5.4-1.9-1.9 0-3.4.3-4.3.9-.1-.1-.2-.1-.4-.1-.3 0-.4 0-.6.4L27 34l-.1.6 2.1.3s0 .1-.1.1c-.3.6 0 1 .3 1.3-.1 1.2.2 2.3.9 3.1 1 1.2 2.7 1.9 4.6 1.9.4 0 .9 0 1.2-.1 2.5-.4 3.6-2 4-3.3l.4-.4c.3-.8.3-1.5.2-2v-.6c.1 0 .2 0 .4.1.3.1.6.1 1 .1s.7-.1 1-.1c.1 0 .3-.1.4-.1v.6c-.1.5-.1 1.2.2 2l.4.4c.4 1.3 1.5 2.9 4 3.3.4.1.8.1 1.2.1 1.9 0 3.6-.7 4.6-1.9.7-.9 1-1.9.9-3.1.3-.2.6-.7.3-1.3.1-.1.1-.1.1-.2z"></path><path fill="#FFCCBC" d="M36 40.8c-.3.1-.8.1-1.2.1-1.8 0-3.4-.6-4.3-1.8-.7-.9-1-2.1-.8-3.4.4-2.1 3.9-2 5-2 2.3 0 4 .7 4.8 1.5.4.4.5.7.5 1-.1 1-.4 4.1-4 4.6zM53.5 39.1c-.9 1.1-2.5 1.8-4.3 1.8-.4 0-.8 0-1.2-.1-3.6-.6-4-3.7-4-4.6 0-.3.2-.7.5-1 .8-.8 2.5-1.5 4.8-1.5 1.1 0 4.6 0 5 2 .2 1.4 0 2.5-.8 3.4z"></path><path fill="#FFAB91" d="M52 49.6c-.3-.8-.8-1.3-1.3-1.9.8.1 1.6 1.1 1.3 1.9zM31.9 49.8c-2.5-1.8 2.1-3.5 3.4-3.7-1.3.6-4.8 1.9-3.4 3.7z"></path><circle fill="#EF5350" cx="35" cy="36.5" r="1.7"></circle><path fill="#FFAB91" d="M39.2 37.1c-1.1-1.1-2.7-2.3-4.3-1.9-.7.2-1.4.5-2.1.8-.6.2-1.5.5-2 .9.4-.7 1.3-1.1 2-1.4.7-.4 1.6-.8 2.4-.9 1.6-.3 3.2 1 4 2.5zM37.9 37.6c-.9.6-2 1.2-3.2 1-1.2-.2-2.2-1.1-3.4-1.4 1.3-.3 2.4.7 3.6.8 1 .2 2-.2 3-.4z"></path><circle fill="#EF5350" cx="49" cy="36.5" r="1.7"></circle><path fill="#FFAB91" d="M44.8 37.1c.8-1.4 2.4-2.7 4.1-2.5.8.1 1.6.5 2.3.8.7.3 1.7.8 2.1 1.5-.5-.5-1.4-.7-2-.9-.7-.3-1.4-.6-2.1-.8-1.7-.5-3.3.7-4.4 1.9zM46.5 38c.9.1 2 .3 2.9 0 1.1-.3 2.1-1 3.3-.7-1.1.2-2.1 1-3.2 1.3-.9.2-2.2 0-3-.6zM30.5 38.2c.8 0 1.8.2 2.3.9-.7-.2-1.7-.4-2.3-.9zM53.5 38.2c-.6.5-1.5.7-2.3.9.4-.8 1.4-1 2.3-.9z"></path><path fill="#EF5350" d="M57.2 40.6c0 .5.1.9 0 1.2-.1 1.4-.3 2.4-1.7 4.7-.4.7-.6 2.2-1.1 3 0 0-1.7 2.6-3.5 2.6H33.1c-1.8 0-3.5-2.6-3.5-2.6-.5-.8-.7-2.2-1.1-2.9-1.4-2.3-1.6-3.4-1.7-4.7v-1.2c-1-1.9-1.2 0-1.2 0L27 53.1c.2 1.5.9 2.8 1.9 3.8 2.2 2 6 5.3 7.8 6.1 2.4 1 5.1 1 5.1 1s2.7 0 5.1-1c1.9-.8 5.6-4.1 7.8-6.1 1.1-1 1.8-2.3 1.9-3.8L58 40.7c.3-.1.2-2-.8-.1z"></path><g class="js-mouthGroup mouthGroup" data-svg-origin="42.05000114440918 52.150001525878906" style="transform-origin: 0px 0px 0px; transform: matrix3d(1.04745, 0, 0, 0, 0, 1.04745, 0, 0, 0, 0, 1, 0, -1.99527, -3.42352, 0, 1);"><path fill="#EF5350" d="M50.9 57.9v-7.4c-.1-.8-.3-2-2.3-2.7-2-.6-3.8-1.3-3.8-1.3s-1.3-.1-2.7-.1c-1.4 0-2.4.2-2.4.2s-2.2.5-4.2 1.2c-2 .6-2.2 1.8-2.3 2.7v1.2l.2 6.1 17.5.1z"></path><path fill="#E53935" d="M39.1 56.9c1.6-.7 4-.9 5.5.1-1.8.1-3.7.2-5.5-.1z"></path><path fill="#FFCCBC" d="M44.4 51.6c-1 .1-3.9.1-4.9 0-1-.1-2.1-.4-3-.8.1.3 1.1 2.2 4.1 2.2h2.7c3 0 4-1.9 4.1-2.2-.8.4-1.9.7-3 .8z"></path><path fill="#FFAB91" d="M44.4 51.6c1-.1 2.1-.3 3-.8s-3 .2-5.4.2c-2.4 0-5.4-.2-5.4-.2.9.4 2 .7 3 .8 1 .1 3.8.1 4.8 0z"></path></g><g class="js-noseGroup noseGroup" data-svg-origin="42.04999923706055 36.29999542236328" style="transform-origin: 0px 0px 0px; transform: matrix3d(0.95255, 0, 0, 0, 0, 0.95255, 0, 0, 0, 0, 1, 0, 1.99527, 1.72243, 0, 1);"><path fill="#FFCCBC" d="M42 36.3l1 10.2-1 1.5-3-1.5c-.5-.3-.8-.8-.7-1.4l1.1-2.9 2.6-5.9z"></path><path fill="#FFAB91" d="M42 36.3V48l3.1-1.5c.5-.3.8-.8.7-1.4l-1.1-2.9-2.7-5.9z"></path></g><path fill="#EF5350" d="M38.6 30.3c-1.9.2-3.9-.1-6.3.7-1 .3-2 1.5-2.3 2.3l.1.6h.2c.4-.2 1.2-.7 2.4-.6 1.5.2 4.2 0 6.4-.9 1.1-.5.2-2.2-.5-2.1z" class="js-eyebrowLeftGroup eyebrowLeftGroup" data-svg-origin="36.73042373657226 32.09788131713867" style="transform-origin: 0px 0px 0px; transform: matrix3d(0.997806, -0.0662042, 0, 0, 0.0662042, 0.997806, 0, 0, 0, 0, 1, 0, -2.04443, 1.55313, 0, 1);"></path><path fill="#EF5350" d="M45.8 19.8c-.8 1.2-1.5 2-2.7 3.2 0 0 2.6-.5 3.6-1.9.5-.7.7-1.3.7-1.9.1-1.1-.3-1.9-.3-1.9s-.6 1.2-1.3 2.5z"></path><path fill="#EF5350" d="M53.9 33.9l.1-.6c-.3-.8-1.3-2-2.3-2.3-2.4-.8-4.4-.5-6.3-.7-.7-.1-1.6 1.6-.5 2.1 2.1 1 4.8 1.1 6.4.9 1.2-.1 2 .3 2.4.6h.2z" class="js-eyebrowRightGroup eyebrowRightGroup" data-svg-origin="46.30809020996094 32.097886085510254" style="transform-origin: 0px 0px 0px; transform: matrix3d(0.997806, 0.0662042, 0, 0, -0.0662042, 0.997806, 0, 0, 0, 0, 1, 0, 2.22661, -3.94437, 0, 1);"></path><g display="none" class="js-blinkGroup blinkGroup" style="display: none;"><g fill="#FFCCBC"><path d="M38 34.9l-2.5-.7-4.7 2-.3.5 4.2 2.1h1.2l1.5-.4 2.1-1.5v-.5zM52.6 35.3L49 34.2l-2.8.4-1.7 2.1.7.8 2.8 1.3 4.3-1.1 1.1-1z"></path></g><path fill="#FFAB91" d="M39.1 37.1c-1.1.9-2.8 1.8-4.4 1.3-.7-.2-1.4-.5-2-.7-.6-.2-1.5-.5-2-.9.3.6 1.3 1 1.9 1.3.7.3 1.5.7 2.3.9 1.7.2 3.4-.8 4.2-1.9zM44.8 37c.8 1.1 2.4 2.1 4.1 1.9.8-.1 1.6-.4 2.2-.7.7-.3 1.7-.6 2-1.2-.5.4-1.4.6-2 .8-.7.2-1.4.5-2.1.6-1.5.4-3.1-.5-4.2-1.4z"></path></g><g><defs><path id="mask_BT3HLK_CHARACTER-ITEM-PANEL" d="M36 40.8c-.3.1-.8.1-1.2.1-1.8 0-3.4-.6-4.3-1.8-.7-.9-1-2.1-.8-3.4.4-2.1 3.9-2 5-2 2.3 0 4 .7 4.8 1.5.4.4.5.7.5 1-.1 1-.4 4.1-4 4.6z"></path></defs><clipPath id="mask_2__BT3HLK_CHARACTER-ITEM-PANEL"><use xlink:href="#mask_BT3HLK_CHARACTER-ITEM-PANEL" overflow="visible"></use></clipPath><g clip-path="url(#mask_2__BT3HLK_CHARACTER-ITEM-PANEL)"><path opacity=".3" fill="#FFF" d="M31.3 30l-5.1 12.1h-5l5-11.8z" class="js-lensGroup lensGroup" data-svg-origin="21.19999885559082 30" style="transform: matrix(1, 0, 0, 1, 35, 0);"></path></g></g><g><defs><path id="mask_1__BT3HLK_CHARACTER-ITEM-PANEL" d="M53.5 39.1c-.9 1.1-2.5 1.8-4.3 1.8-.4 0-.8 0-1.2-.1-3.6-.6-4-3.7-4-4.6 0-.3.2-.7.5-1 .8-.8 2.5-1.5 4.8-1.5 1.1 0 4.6 0 5 2 .2 1.4 0 2.5-.8 3.4z"></path></defs><clipPath id="mask_3__BT3HLK_CHARACTER-ITEM-PANEL"><use xlink:href="#mask_1__BT3HLK_CHARACTER-ITEM-PANEL" overflow="visible"></use></clipPath><g clip-path="url(#mask_3__BT3HLK_CHARACTER-ITEM-PANEL)"><path opacity=".6" fill="#FFF" d="M31.3 30l-5.1 12.1h-5l5-11.8z" class="js-lensGroup lensGroup" data-svg-origin="21.19999885559082 30" style="transform: matrix(1, 0, 0, 1, 35, 0);"></path></g></g></g></g></g>
		</g>
	</g>
</svg>