<svg version="1.1" xmlns="http://www.w3.org/2000/svg" xmlns:xlink="http://www.w3.org/1999/xlink" viewBox="0 0 83.7 100" preserveAspectRatio="xMidYMid meet">
	<g class="js-svgBg svgBg" data-svg-origin="41.75020217895508 57.64999771118164" style="transform-origin: 0px 0px 0px; transform: matrix(1, 0, 0, 1, 0, 0); fill: rgb(255, 255, 255);">
		<path d="M42.2,99.4h-0.9C18.6,99.4,0,80.8,0,58.1v-0.9c0-22.9,18.6-41.3,41.3-41.3h0.9c22.9,0,41.3,18.6,41.3,41.3v0.9
			C83.6,80.8,65.1,99.4,42.2,99.4z"></path>
	</g>
	<defs>
		<path id="SVGID_1_MN68JA_CHARACTER-ITEM-PANEL" d="M42.2,99.4h-0.9C18.6,99.4,0,80.8,0,58.1v-0.9C0,34.3,0.2,0,0.2,0h83.2c0,0,0.2,34.3,0.2,57.2v0.9C83.6,80.8,65.1,99.4,42.2,99.4z"></path>
	</defs>
	<clipPath class="js-svgMask svgMask" id="SVGID_2_MN68JA_CHARACTER-ITEM-PANEL" data-svg-origin="42 60.99999237060547" style="transform-origin: 0px 0px 0px; transform: matrix(1, 0, 0, 1, 0, 0);">
		<use xlink:href="#SVGID_1_MN68JA_CHARACTER-ITEM-PANEL" overflow="visible"></use>
	</clipPath>
	<g clip-path="url(#SVGID_2_MN68JA_CHARACTER-ITEM-PANEL)">
		<g class="js-svgCharacter svgCharacter" data-svg-origin="-0.7999999523162842 7.441869735717773" style="opacity: 1; transform: matrix(1, 0, 0, 1, 0, 0);">
			<path fill="#FF5252" d="M31.9 60.8l23.9 2.8 9.3 6.9-34.8 2.4-2.1-6.7z"></path><path fill="#FFF" d="M84.8 113c0-6-2.5-18.2-3.5-27-.8-6.4-7.8-10.1-13.2-12.3-1.4-.6-2.6-1.1-3.5-1.5-1.5-.7-3-1.5-4.4-2.3-1.3 1.6-7.6 8.2-15.4 7.1-7 .7-13.8-3.3-17.8-9.2-2.1 1.6-4.7 3.1-7.6 4.3-.9.4-2.1.9-3.5 1.4C10.5 75.7 3.5 79.6 2.7 86c-1.1 8.8-3.5 21-3.5 27h85.6z"></path><g fill="#CFD8DC"><path d="M65.4 86l14.7-4.5c-.8-1.3-1.8-2.5-3-3.5l-12.6 4H19.6L6.9 78.3c-1.2 1-2.3 1.9-3 3.2L18.6 86h46.8zM66.7 96L82 91c-.2-1.5-.4-2.6-.6-4l-15.7 5H18.2L2.6 86.9c-.2 1.4-.4 2.7-.6 4.2L17.3 96h49.4z"></path><path d="M67.8 104l15.5-4.9c-.2-1.4-.4-2.8-.7-4.2L66.9 100H17.1L1.3 95.1C1.1 96.5.9 97.6.6 99l15.5 5h51.7zM15.6 110L0 104.2c-.2 1.5-.4 3.2-.6 4.4l11.2 4.4h62.7l11.2-4.6c-.1-1.3-.3-2.5-.6-4L68.4 110H15.6z"></path></g><path fill="#FFCCBC" d="M52.1 74.4c2.5-1.6 4.3-3.5 6.3-5.5-4.1-2.7-7.3-6-7.3-9.4V53H33v6.5c0 3-2.4 5.8-5.6 8.3 1.2 1.8-1.4 6.4.3 7.8 5.6 4.6 17.3 3.3 24.4-1.2z"></path><path fill="#FF5252" d="M31.9 60.8s-4.3 10.3-3.2 17c1.1 6.7 4.6 35.2 4.6 35.2h-12l-4.7-5.8 3-4.7-7.1-4.2 6-14.6 5.6-15.1.9-1.7 4.8-5.6 2.1-.5z"></path><path fill="#E53935" d="M67.4 72.4l3.5 11.9.2 28.7H58.6z"></path><path fill="#E53935" d="M32.7 89.3c9.4-.2 20-5.5 24.2-7.8 5.4-2.9 11.2-7.9 11.2-7.9l-.7-1.6-2.2-1.5-22.5 12.4-10 6.4z"></path><path fill="#FF5252" d="M54.9 65.7c-3.1 3.8-10.6 8.6-16.8 10.3-2.9.8-19.7-5.7-19.7-5.7l-6.7 5s3.2 7.9 10.4 12.3c17.3 10.6 43-17.1 43-17.1l-10.2-4.8z"></path><path fill="#E53935" d="M24.1 68.6l-5.8 1.7c4.5 3.7 13 6.4 19.7 5.7-9.7-2.2-13.9-7.4-13.9-7.4z"></path><path fill="#FF5252" d="M67.3 71.9l-5.4 11.6-6.5 29.5h5.2S70.4 93 72 87.3c1.9-6.9 1.1-11.8 1.1-11.8l-5.8-3.6z"></path><path fill="#E53935" d="M22.3 78.8c3.7 2.4 8.7 5.7 19.9 1.9 9.2-3.2 14.3-6.1 14.3-6.1s-10.3 7.2-16.2 8.9c-4.5 1.4-7.9 2.4-12.1.4s-5.9-5.1-5.9-5.1zM16.7 106.8l4.1-16.4-1.2 11.9z"></path><path fill="#FF5252" d="M65.8 113l2.6-12.5-5.7 12.5z"></path><g class="js-headGroup headGroup"><path fill="#00695C" d="M56.7 15.7l-29.8 2.2c-2 1.2-5 5.9-5 6-1 1.1-2 3.1-3 3.4 1.2.5 2.1.8 3.1 1v.5s1.1 5.9 1.9 8.2l3.7 6.3 28.9.6L60 37c.8-2.3 1.9-8.6 1.9-8.6l-5.2-12.7z"></path><path fill="#FFAB91" d="M48.9 59.8c.8-.7 1.1-1.7 2.1-2.6V53H33v4.2c1 .9 1.4 1.9 2.1 2.6 3 2.7 3.3 4.1 6.9 4.1s3.9-1.4 6.9-4.1zM28.6 42.3c-1.4.1-1.7-.7-2.2-2l-1.2-4.1c-1.5-.6-2.9 1.1-1.8 4.3 1.1 3.4 4 6.3 6.3 6.3 2.1 0-1.1-4.5-1.1-4.5zM58.8 36.2l-1.2 4.1c-.6 1.4-.9 2.2-2.2 2 0 0-3.2 4.5-1.1 4.5 2.3 0 5.2-2.9 6.3-6.3 1.1-3.2-.3-4.9-1.8-4.3z"></path><path fill="#FFCCBC" d="M56.5 33.6c-.4-3.6-.5-10.1-.5-10.1s-3.3-.4-6.7-.7c-1.4 1.8-3.4 4.2-4.3 4.5-7.5 2.2-10.2-1.7-14.2.2-1.6.7-1.3 1.1-3 1.9-.1 1.5-.2 3.1-.4 4.3-.4 2.8-.2 5.1.2 7.8.3 1.9 1.2 6.2 1.7 8.8.3 1.3.8 2.4 1.6 3.4 1.1 1.3 2.6 3.1 3.8 4.2 3 2.7 3.7 4.1 7.2 4.1s4.3-1.4 7.2-4.1c1.2-1.1 2.8-2.9 3.8-4.2.8-1 1.4-2.2 1.6-3.4.5-2.5 1.4-6.9 1.7-8.8.6-2.8.7-5.1.3-7.9z"></path><path fill="#FFAB91" d="M42 48.2l1.8-.9c.8-.4 1.1-1.3.9-2.1L42 37.7v10.5z"></path><circle fill="#00897B" cx="49.3" cy="37.9" r="1.7"></circle><path fill="#FFAB91" d="M46.7 39.3c1-.1 2.1 0 3.1-.2s1.9-.5 2.8-.8c-1.6 1.5-4 1.9-5.9 1zM53.5 37.5c-1.5-.4-3.1-.9-4.6-.8-1.6.1-2.7 1.4-3.4 2.7.3-1.6 1.6-3.1 3.3-3.2 1.6-.2 3.4.5 4.7 1.3z"></path><g fill="#FFAB91"><path d="M43.7 50.7l-1.7.6-1.7-.6c-1.4 0-3.5 1.3-3.5 1.3s1.4.6 5.2.6 5.2-.6 5.2-.6-2.2-1.3-3.5-1.3zM42 54.6c-2.4.1-3.7-.7-3.7-.7s1.3 1.5 3.7 1.5c2.5 0 3.5-1.5 3.5-1.5s-1 .8-3.5.7z"></path></g><g fill="#00897B"><path d="M33.7 31.6c2.4-.2 4.1.7 5 1.2.3.2.5.6.5 1 0 .3-.2.8-.8.6-1.3-.6-3.5-1.1-5.1-1-1.6.1-3.3.8-3.3.8l-.5-.6c-.1 0 1.2-1.7 4.2-2zM50.3 31.6c-2.4-.2-4.1.7-5 1.2-.3.2-.5.6-.5 1 0 .3.2.8.8.6 1.3-.6 3.5-1.1 5.1-1 1.6.1 3.3.8 3.3.8l.5-.6c.1 0-1.2-1.7-4.2-2z"></path></g><circle fill="#00897B" cx="34.7" cy="37.9" r="1.7"></circle><path fill="#FFAB91" d="M37.3 39.3c-2 .8-4.3.5-5.9-.9.9.3 1.9.6 2.8.8 1.1.1 2.1.1 3.1.1zM30.5 37.5c1.3-.8 3.1-1.5 4.8-1.4 1.7.2 2.9 1.6 3.3 3.2-.7-1.3-1.8-2.6-3.4-2.7-1.7-.1-3.3.5-4.7.9z"></path><path fill="#00897B" d="M60.6 20.2c-1.5-4.5-3.3-6.7-5.5-7.2.2-.2.3-.5.5-.8.7-1.4-.2-3-.2-3s-.1 1-.7 2c-.1.1-.1.2-.2.3-1.2-2.7-5.7-4.4-10.2-4-5.1.4-8.8 3.3-13.9.5 0 0 .3 1.6 1.6 3-.4.1-.8.2-1.1.3-3.8 1.1-6.4 3.3-6.6 6.5 0 0-.1 0-.1.1-1.6.9-1.3 2.7-2.6 3.9-.9.9-2.8 1.3-2.8 1.3s1.5 1.5 3.8 1.6c1.8-2.4 4.5-4.5 7.2-4.8-.5.2-4.8 2.2-6.1 5.4-1 2.5-4.3 3.5-4.3 3.5 3.4 2.1 6.1 1.2 8-.2-.1 1.2-1.7 2.6-1.7 2.6s4.1-1.4 5.4-4.1c.9-1.9 2.9-3 5-3.2 2.2-.1 4.6.3 6.9-.6 1.1-.4 2.1-1.1 3-1.9l.3.1c-1 1.3-2.6 2.6-4.7 3.1-4.5 1-7.5.4-7.5.4s3.5 2.4 6.3 2c0 0-1.6 1.2-5 1.3 3.5 1.1 9.9 2 14.5-.2 1.3-.6 2.4-1.3 3.3-1.9-.5 1.5-1.3 2.9-2.6 3.9 0 0 2-.1 4.2-.9-.3.6-.7 1.1-1.2 1.4 0 0 2 .4 4.8-.9.7-.3 1.1-.7 1.5-1.2.6 0 1.3-.1 1.7-.1 2-.4 4.3-2.6 4.3-2.6-1.5.2-3.4.1-5.3-5.6z"></path><path fill="#00695C" d="M25.2 17.4c2-1.7 4.7-2.5 7.2-2.4 1.2 0 2.4.3 3.6.5 1.3.3 2.6.4 3.9.4-2.5.7-4.8-.1-7.4-.2-2.4-.1-5 .6-7.3 1.7z"></path><g display="none" class="js-blinkGroup blinkGroup" style="display: none;"><path fill="#FFCCBC" d="M30.1 37.3l1.7 1.6 2.3 1.2 1.8.2 3.1-1.2 3-2.1 4.2 2.7 1.4.5 2.2.1 4-2.9-3.4-2-18.3.4z"></path><path fill="#FFAB91" d="M30.4 37.5c.7 1 1.8 2.1 3.3 2.6 1.6.5 3.5 0 4.8-.9-1.4.6-3.1 1-4.6.5-1.4-.4-2.4-1.4-3.5-2.2zM53.3 37.6c-.6 1-1.5 2.1-2.9 2.6s-3.4.1-4.7-.8c1.4.6 3.1.9 4.4.4 1.4-.6 2.3-1.5 3.2-2.2z"></path></g></g>
		</g>
	</g>
</svg>