<svg version="1.1" xmlns="http://www.w3.org/2000/svg" xmlns:xlink="http://www.w3.org/1999/xlink" viewBox="0 0 83.7 100" preserveAspectRatio="xMidYMid meet">
	<g class="js-svgBg svgBg" data-svg-origin="41.75020217895508 57.64999771118164" style="transform-origin: 0px 0px 0px; transform: matrix(1, 0, 0, 1, 0, 0); fill: rgb(255, 255, 255);">
		<path d="M42.2,99.4h-0.9C18.6,99.4,0,80.8,0,58.1v-0.9c0-22.9,18.6-41.3,41.3-41.3h0.9c22.9,0,41.3,18.6,41.3,41.3v0.9
			C83.6,80.8,65.1,99.4,42.2,99.4z"></path>
	</g>
	<defs>
		<path id="SVGID_1_NY982H_CHARACTER-ITEM-PANEL" d="M42.2,99.4h-0.9C18.6,99.4,0,80.8,0,58.1v-0.9C0,34.3,0.2,0,0.2,0h83.2c0,0,0.2,34.3,0.2,57.2v0.9C83.6,80.8,65.1,99.4,42.2,99.4z"></path>
	</defs>
	<clipPath class="js-svgMask svgMask" id="SVGID_2_NY982H_CHARACTER-ITEM-PANEL" data-svg-origin="42 60.99999237060547" style="transform-origin: 0px 0px 0px; transform: matrix(1, 0, 0, 1, 0, 0);">
		<use xlink:href="#SVGID_1_NY982H_CHARACTER-ITEM-PANEL" overflow="visible"></use>
	</clipPath>
	<g clip-path="url(#SVGID_2_NY982H_CHARACTER-ITEM-PANEL)">
		<g class="js-svgCharacter svgCharacter" data-svg-origin="-3 7.464781761169434" style="opacity: 1; transform: matrix(1, 0, 0, 1, 0, 0);">
			<path fill="#90A4AE" d="M82.2 79.4c-1.6-1.6-2.6-.9-2.6-.9L59.4 71s-4.6-3.4-5.7-3.6c1.1 1.7-24.2 1.3-23.4 0-1.1.2-5.8 3.6-5.8 3.6L4.1 78.5s-1.4-.7-3 .9S-3 91.9-3 105.3V116h89v-10.7c0-13.4-2.2-24.3-3.8-25.9z"></path><path fill="#FFF" d="M42.3 69.4L26 73.2 38.3 116h6l11.9-40.4z" class="js-offwhiteGroup offwhiteGroup"></path><path fill="#ECEFF1" d="M53.2 76.2L47.4 84H42v-9.2l5.8-.4 7.6-1.6zM30.9 76.2l5.7 7.8H42v-9.2l-5.8-.4-5.5-1.6z"></path><g class="js-foregroundGroup foregroundGroup" data-svg-origin="43.12119674682617 76.03317260742188" style="transform: matrix(1, 0, 0, 1, 0, 0);"><g class="js-armGroup armGroup" data-svg-origin="47.209144592285156 85.3372673034668" style="transform-origin: 0px 0px 0px; transform: matrix3d(1, 0, 0, 0, 0, 1, 0, 0, 0, 0, 1, 0, 0, -1.32322, 0, 1);"><path id="thumb" fill="#FFAB91" d="M45.8 76.6c-1.1-1.4-3.1.1-2.6 1.2.5 1 2.4 4.4 3.8 7.3 1.4 2.8 5.2.4 4.1-1.7 0 0-4.1-5.3-5.3-6.8z"></path></g></g><g class="js-collarGroup collarGroup" data-svg-origin="42.04999828338623 59.48000144958496" style="transform-origin: 0px 0px 0px; transform: matrix3d(1, 0, 0, 0, 0, 1, 0, 0, 0, 0, 1, 0, 0, 0, 0, 1);"><path fill="#FFCCBC" d="M41.8 56.9L32 53.2l.7 21.5 18.6-1.5.7-19.9z"></path><path fill="#263238" d="M46.2 70h-8.1l-.6 5.9 2.8 2.5-1.8 32.7 1.2 4.9h5.1l.7-4.9-1.9-32.9 2.5-2.8z" class="js-tieGroup tieGroup" data-svg-origin="41.85000038146973 74.60000076293946" style="transform-origin: 0px 0px 0px; transform: matrix3d(1, 0, 0, 0, 0, 1, 0, 0, 0, 0, 1, 0, 0, 0, 0, 1);"></path><path fill="#FFF" d="M53.4 66.4l-.7-2.8-.9-.4c-1.5 2.2-4.5 5.4-9.7 5.4-5.1 0-8.2-3.2-9.7-5.4l-.9.4-.7 2.8-1.8 5.2 7.1 8.4 6-9.5 6.5 9.3 6.5-8.2-1.7-5.2z" class="js-offwhiteGroup offwhiteGroup"></path></g><g class="js-headGroup headGroup" data-svg-origin="42.69999885559082 60.03324108123779" style="transform-origin: 0px 0px 0px; transform: matrix3d(1, 0, 0, 0, 0, 1, 0, 0, 0, 0, 1, 0, 0, 0, 0, 1);"><path fill="#455A64" d="M55.2 44.8s4-5.5 4.8-7.8c.8-2.3 3.7-7 3.7-14.3 0 0-3.2.1-5.6 2-2 1.6-8.3-10.3-15.6-10-.7-1.3-14.5 9.2-16.5 7.6-2.4-1.9-5.8.4-5.8.4 0 7.3 2.9 12 3.7 14.3l3 6.3 28.3 1.5z"></path><g fill="#546E7A"><path d="M26 23.6c1.2.9 2.4 2.6 3.4 4.1l4.3-6.1 3.7-2.4 6.5-.4 3 3.3 8.4 2.4s1.9 0 4-.5c.9-.5 1.9-.9 2.7-1.1 1.2-.7 2.1-1.8 2.1-3.5-4.3-1.1-6.5-8.7-15.4-11.2-10.1-2.8-14.3 3.3-14.3 3.3-3.3-2.4-7.3 1.3-9.7 4.3-1.6 2-4.3 6.7-4.3 6.7s3.2-.8 5.6 1.1zM24 37c.1.2.1.3.2.4L24 37z"></path></g><path fill="#455A64" d="M64 19.5c-.3-.1-.5-.2-.7-.3-.1-.1-.5.9-2.2 1-3.8.1-7.6-4.5-7.6-4.5s4.5 6.2 7.3 6.1c1.5 0 2.4-.3 2.9-.6.1-.5.3-1.1.3-1.7z"></path><path fill="#FFAB91" d="M28.8 39.3l-.2 2.5c-1.4.1-2-.7-2.6-2l-.9-4c-1.2.4-2.1 1.9-1.6 4.4.8 4.6 2.6 6.4 4.9 6.4 1.9.1 1.2-4.3.4-7.3zM59 35.8l-1 4c-.6 1.4-1.2 2.2-2.6 2l-.2-2.5c-.7 3-1.5 7.3.4 7.3 2.3 0 4.1-1.8 4.9-6.4.5-2.4-.4-3.9-1.5-4.4z"></path><path fill="#FFCCBC" d="M56.1 33.6c-.4-1.3-2-7.5-2.3-8.4-.9-3-1.7-4.8-4.9-4.1-2.6.6-4 1.1-6.9 1.1-2.9 0-3-.3-5.6-.9-3.2-.7-5.6 2.1-6.5 5-.3.9-1.7 6-2 7.3-.8 2.7-1 5.6-.6 8.3.3 2.1 1 6.9 1.2 9.1.1.7 12.9 6.6 13.3 7.2l5.8-1.5c.4-.6 7.9-5 7.9-5.7.3-2.2.9-7 1.2-9.1.5-2.6.2-5.6-.6-8.3z"></path><path fill="#FFCCBC" d="M48.7 51.9c-.9-.6-2.9-1.6-3.2-1.7-.5-.2-.9-.2-1.3-.2h-4.3c-.4 0-.8 0-1.3.2-.3.1-2.3 1.2-3.3 1.8.4.5 1.5 1.4 1.5 1.4h10.4s.8-1 1.5-1.5z"></path><path fill="#F4BFB5" d="M35.3 51.9l2.4-2.2s4.7-.6 4.8-.6 4.5.7 4.8.9c.3.2 1.3 1.9 1.3 1.9l-8 .2-5.3-.2z"></path><path fill="#F4BFB5" d="M53.9 49.1c-.5.9-1.1 1.6-1.9 2.1-1.6-1.4-4.8-3.8-6.4-3.9C43.3 47 42 47 42 47s-1.3 0-3.5.2c-1.6.1-4.7 2.5-6.3 3.9-.7-.5-1.3-1.1-1.8-1.9-.9-1.6-1.8-2.9-2.7-4.2.3 2.1.6 4.6.8 6 .1.7.4 1.4.8 1.9 1 1.3 2.9 3.6 4.4 4.9 3 2.7 4.1 5 8.3 5 4.3 0 5.4-2.3 8.3-5 1.4-1.3 3.4-3.6 4.4-4.9.4-.6.7-1.2.8-1.9.2-1.4.5-3.8.8-6-.8 1.2-1.6 2.6-2.4 4.1z"></path><path fill="#FFCCBC" d="M47.4 53.2c-1.1.7-2 1.1-3.3 1.1h-2.8c-1.3 0-2.8.2-4-.5-.8-.5-1.4-1.3-2-1.9 1.9.2 3.9.4 5.8.3 2.5-.1 5-.2 7.6-.3l-1.3 1.3z"></path><path fill="#FFAB91" d="M46.3 51.5c-1-.2-1.7-.7-2.2-.6l-2.1.4-2-.4c-.5 0-1.1.3-2.2.6s-2.4.4-2.4.4 2.8.7 6.7.7 6.7-.7 6.7-.7-1.5-.1-2.5-.4z"></path><path fill="#455A64" d="M33.3 30.1c3.4 0 7 2.2 7 2.2l-.9 1.2s-2 0-3.6-.4-2.4-1.6-3.3-1.7-2.6.7-2.6.7 1.4-2 3.4-2z" class="js-eyebrowLeftGroup eyebrowLeftGroup" data-svg-origin="35.09999942779541 31.799999237060547" style="transform-origin: 0px 0px 0px; transform: matrix3d(0.997985, 0.0634486, 0, 0, -0.0634486, 0.997985, 0, 0, 0, 0, 1, 0, 2.08839, -2.68265, 0, 1);"></path><path fill="#FFAB91" d="M42 48.3l2.1-1.2c.9-.5 1.3-1.5.9-2.4l-3-6.1v9.7z"></path><path fill="#FFCCBC" d="M42 48.3L39.9 47c-.9-.5-1.3-1.5-.9-2.4l3-6.1v9.8z"></path><path fill="#546E7A" d="M33.6 21.6s3.3-2.2 6.5-2c2.1.1 3.9 1.5 7.1 5s7.6 5.6 13 3.9c4.2-1.3 5-4.8 5-4.8s-1.7 1.6-3.3 1.9c3.4-2.3 4.2-5.3 1.9-8 0 0 1 2.6-1.7 3.7-3.6 1.4-8.7-5.2-8.7-5.2s-3.1-3.9-7.6-2.4-12.2 7.9-12.2 7.9z"></path><path fill="#455A64" d="M33.8 19.7c1.6-2.3 4.5-4.6 7.4-4.6 2.7 0 5.1 1.6 6.4 3.9-1.7-1.8-3.9-3.3-6.5-3.2-2.7.2-5.3 2.1-7.3 3.9z"></path><path fill="#455A64" d="M33.8 19.7c-.2-2.1 1.3-5.1 3.7-5.2-1.8 1.2-2.7 3.2-3.7 5.2z"></path><path fill="#455A64" d="M51.1 30.7c-3.4-.5-7.3 1.5-7.3 1.5l.7 1.3s2.5 0 4.1-.2c1.6-.2 2.5-1 3.4-.9.9 0 2.2.5 2.2.5s-1-2-3.1-2.2z" class="js-eyebrowRightGroup eyebrowRightGroup" data-svg-origin="49 32.05987739562988" style="transform-origin: 0px 0px 0px; transform: matrix3d(0.999835, -0.0181393, 0, 0, 0.0181393, 0.999835, 0, 0, 0, 0, 1, 0, -0.573483, 0.37442, 0, 1);"></path><g class="js-eyePositionCenterGroup eyePositionCenterGroup" data-svg-origin="33.39999771118164 36.20000076293945" style="transform: matrix(1, 0, 0, 1, 0, 0);"><circle fill="#455A64" cx="35.1" cy="37.9" r="1.7"></circle><circle fill="#455A64" cx="48.9" cy="37.9" r="1.7"></circle></g><path fill="#FFAB91" d="M30.5 37.7c2.5-2.3 6.7-2.5 8.7.6-2.8-2.3-5.6-2.1-8.7-.6zM37.9 39.2c-1.9 1.3-4.8 1.1-6.5-.5 2.2.8 4.2.9 6.5.5zM53.6 37.7c-3.1-1.5-6-1.7-8.7.6 1.9-3.1 6.2-2.9 8.7-.6zM46.1 39.2c2.3.4 4.3.3 6.5-.5-1.7 1.7-4.6 1.8-6.5.5z"></path><g display="none" class="js-blinkGroup blinkGroup" style="display: none;"><path fill="#FFCCBC" d="M34.6 39.7l-1.5-.6h-1l-1.8-1.3 1.6-3.8 19 .6 3.4 2.8-2.2 1.7-3 .9-2.6-.4-2.4-1.5-4.9.7-2.2 1z"></path><path fill="#FFAB91" d="M53.5 38.1c-2.9 1.6-5.8 2.2-8.7.4 2.3 2.5 6.5 1.9 8.7-.4zM30.5 37.8c2.8 1.8 5.6 2.5 8.6.9-2.4 2.4-6.5 1.5-8.6-.9z"></path></g><path fill="#CC9E9B" d="M41 60.5c.5-.6 1.5-.6 2.1-.1-.7.2-1.5.3-2.1.1z"></path></g><path fill="#B0BEC5" d="M53.2 65.3l6.3 5.2 3.2 7.9-5.2 1.9 5.5 4.4S53.8 107 48.4 116h-6c13-36 10.8-50.7 10.8-50.7z" class="js-rightLapelGroup rightLapelGroup" data-svg-origin="42.400001525878906 116" style="transform-origin: 0px 0px 0px; transform: matrix3d(1, 0, 0, 0, 0, 1, 0, 0, 0, 0, 1, 0, 0, 0, 0, 1);"></path><path fill="#B0BEC5" d="M30.9 65.3l-6.3 5.2-3.2 7.9 5.2 1.9-5.5 4.4S30.3 107 35.7 116h6C28.6 80 30.9 65.3 30.9 65.3z" class="js-leftLapelGroup leftLapelGroup" data-svg-origin="41.70000076293945 116" style="transform-origin: 0px 0px 0px; transform: matrix3d(1, 0, 0, 0, 0, 1, 0, 0, 0, 0, 1, 0, 0, 0, 0, 1);"></path><g class="js-foregroundGroup foregroundGroup" data-svg-origin="35.6790771484375 76.5999984741211" style="transform: matrix(1, 0, 0, 1, 0, 0);"><g class="js-armGroup armGroup" data-svg-origin="56.8895378112793 115.65999984741211" style="transform-origin: 0px 0px 0px; transform: matrix3d(1, 0, 0, 0, 0, 1, 0, 0, 0, 0, 1, 0, 0, -1.32322, 0, 1);"><path fill="#B0BEC5" d="M52.1 111.7l12-10.4 14 18.7H58z"></path><path fill="#FFCCBC" d="M43.5 78.2l7.6 5.2 6.1 10.9-8.4 4.8-9.3-4.5s-3.1-2.6-3.2-4c-.1-1.4.7-1.7.7-1.7s-1.2-.8-1.3-1.9c-.2-1.8 1.1-2.3 1.1-2.3l-.8-1.1c-.1-1 .3-1.9 1.2-2.4h.1c.4-.2.9-.3 1.3 0l6.3 3.4-1.2-1.4-3.6-2.6s-.8-.4-1.8-.8-1.5-2.4.1-3.2c1.7.3 5.1 1.6 5.1 1.6z"></path><path fill="#FFCCBC" d="M57.1 94.3l16.2 20.9-15.4-.4-9.1-15.7z"></path><path fill="#FFEE58" d="M57.235 99.2l1.002.456-.332.728-1-.456zM56.962 100.433l.496.628-1.02.807-.495-.627zM55.6 101.235l.195.98-.785.156-.194-.98zM57.843 93.9l1.985 2.51-1.098.868-1.985-2.51z"></path><path fill="#FFEE58" d="M50.7 98.8l1.3-2 1.9-1.5 2.3-.8c.2-.1.4 0 .6.2l2.1 2.7c.1.2.2.4 0 .6l-1.3 2-1.9 1.5-2.3.8c-.2.1-.4 0-.6-.2l-2.1-2.7c-.1-.2-.1-.4 0-.6z"></path><circle fill="#FDD835" cx="54.8" cy="98.4" r="3.2"></circle><circle fill="#FFF" cx="54.8" cy="98.4" r="2.4"></circle><path fill="#FFD600" d="M57.76 95.02l.994 1.254-.47.372-.994-1.254z"></path><path fill="#FFEE58" d="M50.648 103.62l-1.985-2.51 2.04-1.612 1.984 2.51z"></path><path fill="#FFD600" d="M51.766 101.718l-.992-1.255.47-.372.993 1.256zM50.696 102.57l-.993-1.256.47-.373.993 1.256z"></path><path fill="#546E7A" d="M54.4 97.6c.1.3.2.7.2 1.1l-.2-.2c.5 0 1 .1 1.5.4-.3.1-1.5.3-1.7 0-.1-.3.1-1.2.2-1.3 0 .1 0 .1 0 0z"></path><path fill="#FFF" d="M51.4 107.8L61.9 99l7.6 9.6-12.1 7.2z"></path></g></g>
		</g>
	</g>
</svg>