<svg version="1.1" xmlns="http://www.w3.org/2000/svg" xmlns:xlink="http://www.w3.org/1999/xlink" viewBox="0 0 83.7 100" preserveAspectRatio="xMidYMid meet">
	<g class="js-svgBg svgBg" data-svg-origin="41.75020217895508 57.64999771118164" style="transform-origin: 0px 0px 0px; transform: matrix(0.99999, 0, 0, 0.99999, 3.34002e-06, 4.612e-06); fill: rgb(255, 255, 255);">
		<path d="M42.2,99.4h-0.9C18.6,99.4,0,80.8,0,58.1v-0.9c0-22.9,18.6-41.3,41.3-41.3h0.9c22.9,0,41.3,18.6,41.3,41.3v0.9
			C83.6,80.8,65.1,99.4,42.2,99.4z"></path>
	</g>
	<defs>
		<path id="SVGID_1_AKBBV7_CHARACTER-ITEM-PANEL" d="M42.2,99.4h-0.9C18.6,99.4,0,80.8,0,58.1v-0.9C0,34.3,0.2,0,0.2,0h83.2c0,0,0.2,34.3,0.2,57.2v0.9C83.6,80.8,65.1,99.4,42.2,99.4z"></path>
	</defs>
	<clipPath class="js-svgMask svgMask" id="SVGID_2_AKBBV7_CHARACTER-ITEM-PANEL" data-svg-origin="42 60.99999237060547" style="transform-origin: 0px 0px 0px; transform: matrix(0.99999, 0, 0, 0.99999, 3.36e-06, 4.88e-06);">
		<use xlink:href="#SVGID_1_AKBBV7_CHARACTER-ITEM-PANEL" overflow="visible"></use>
	</clipPath>
	<g clip-path="url(#SVGID_2_AKBBV7_CHARACTER-ITEM-PANEL)">
		<g class="js-svgCharacter svgCharacter" data-svg-origin="-4.250000953674316 8.399999618530273" style="opacity: 1; transform: matrix(1, 0, 0, 1, 0, 0);">
			<g class="js-characterinnerGroup characterinnerGroup" data-svg-origin="42.024996757507324 103.16999549865723" style="transform-origin: 0px 0px 0px; transform: matrix(0.99756, 0.06975, -0.06975, 0.99756, 7.29915, -2.6802);"><path fill="#303F9F" d="M88.1 91.4c-.8-12.6-2.9-15.9-5.7-19.1-1.7-1.9-2.7-1-3.8-1.1C74.9 69 69 67 62.8 64H21.3c-6.2 3-12.1 5.1-15.8 7.2-1.1.1-2.1-.6-3.8 1.4-2.8 3.2-4.8 6.3-5.7 18.9-.4 5.8-.2 21.5-.2 21.5h92.4c.1 0 .2-15.8-.1-21.6z"></path><path fill="#FFAB91" d="M31.1 57.7h22.3V70H31.1z"></path><path fill="#E1F5FE" d="M51.8 70H32.2L17.9 90.7l24.1 23 24-28.5z"></path><path fill="#FF8A65" d="M32.4 109h19.2c0-6-4-30.9-5.8-31.9-.2-.1-.5 0-.8-.1l3.1-2.8-2-4.2h-7.4l-2.9 4.3 3.1 3c-.3.1-.5-.2-.8-.1-1.7.9-5.7 25.8-5.7 31.8z"></path><path fill="#3949AB" d="M29.9 113h24.2c15.2-15 17.5-33.5 17.5-33.5l-5.5-5 3.4-2.6-5.5-9.2-7.4-4.3c.8 5.3 3 22.8-9.8 42.3-1.9 2.9-3.5 5.4-4.9 7.5-1.4-2.1-3-4.6-4.9-7.5-12.8-19.5-10.6-37-9.8-42.3L20 62.8 14.5 72l3.4 2.6-5.5 4.8c0 .1 2.4 18.6 17.5 33.6z"></path><path fill="#FFF" d="M56.9 58.7l-2.1-2.1-1.3 1.5S49.9 64.6 42 69c-7.9-4.4-11.5-10.9-11.5-10.9l-1.3-1.5-2.1 2.1s-2.8 13.1 0 22.4c0 .1 9.1-7.3 13.1-10.6.7.3 2.8.3 3.6 0 4 3.2 13.1 10.7 13.1 10.6 2.8-9.3 0-22.4 0-22.4z" class="js-offwhiteGroup offwhiteGroup"></path><path fill="#FF7043" d="M38.3 76.4h7.5v1.1h-7.5z"></path><g class="js-headGroup headGroup"><g class="js-headinnerGroup headinnerGroup" data-svg-origin="42.018611907958984 58.43999824523926" style="transform-origin: 0px 0px 0px; transform: matrix(0.9848, -0.17364, 0.17364, 0.9848, -7.50964, 10.1843);"><path fill="#FF4081" d="M61.1 29.1l.9.3c-.5-3.9-1.3-6.1-2.4-7.7-.2-.3-.4-.7-.6-1 1.1-.1 2.2-.6 3-1.5-2.2.4-5-2.8-7-5.1-1.7-1.9-3.7-2-5.2-1.3 0-1.8-.4-3.7-1-4.4l-.2 3c-1.1-1.5-6.7-3.2-12.3-.9-5.5 2.3-9.1 3.3-10 2.8 0 0 1.3 1.3 2.5 1.3 0 0-2.3 2.3-3.6 3.2l2.2.4c-3.1 2-5.2 7.9-5.3 9.6 0 0 .4 0 .9-.3v2.4c.2 3.1-1.4 5.7.9 8.1.1.1-.8 6.6-.6 6.8C26.5 47.2 60 46 60 46s1.1-6.9.2-7.9c2.4-2.5.8-5 1-8.1-.1-.3-.1-.6-.1-.9z"></path><path fill="#FFAB91" d="M61.3 37.2c-.5-.3-1-.3-1.4-.2-.1 1.6.3 5.2.2 6.5-.1.9-1.4 2.3-2.3 2.1 0 0-3.5 1.8-.7 3.1 2.2 1 4.2-.9 4.6-5.3.3-3.1 2.3-4.8-.4-6.2z"></path><path fill="#D81B60" d="M59.2 42.7zM24.8 42.7z"></path><path fill="#FFAB91" d="M26.2 45.5c-.9.2-2.2-1.2-2.3-2.1-.1-1.2.2-4.9.2-6.5-.4-.1-.8 0-1.4.2-2.6 1.4-.7 3.1-.5 6.1.4 4.4 2.4 6.3 4.6 5.3 2.9-1.2-.6-3-.6-3z"></path><path fill="#FFCCBC" d="M57.7 37.2c-.2-2.1-.1-2-.6-6-.4-4-2-8.2-7.5-10.2-3.8-.9-7.6-3.6-18 1.4-3.2 2.2-4.3 5.6-4.7 8.8-.4 4-.3 3.9-.6 6-.5 4-2 7.2-1 11.7.7 3.2 3.2 11.2 10.5 13.2 1.8.5 4.6.8 6.1.8s4.3-.2 6.1-.8c7.3-2 9.8-10 10.5-13.2 1.2-4.6-.3-7.8-.8-11.7z"></path><path fill="#FF4081" d="M28.3 33.8s1.6-2.2 4-2.5c2.3-.3 5.1.5 6.3.9.4.1.7.5.7.9 0 .6-.6 1.1-1.2 1.1 0 0-3.6-.8-5.4-.6-1.8.2-4 .9-4 .9l-.4-.7z" class="js-eyebrowLeftGroup eyebrowLeftGroup" data-svg-origin="33.79999828338623 32.86708927154541" style="transform-origin: 0px 0px 0px; transform: matrix(1, 0, 0, 1, 0, 0);"></path><path fill="#FF4081" d="M50 49.8c-2.8.2-6.4-1.3-6.4-1.3l-1.6.9c-.6 0-1.5-.3-2.4-.6-1.3.4-3.6 1.1-5.5 1-1.6 2.2-3.8 7.6-3 9.6.8 2.1 2.9 3.2 4.8 3.8 1.8.5 4.6.8 6.1.8s4.3-.2 6.1-.8c1.9-.5 4-1.7 4.8-3.8.9-2-1.3-7.4-2.9-9.6z"></path><path fill="#FFCCBC" d="M42 59.8c-2.5 0-5.8-1.1-6.2-7.5 0 0 4.1.2 6.2.2 2.1 0 6.2-.2 6.2-.2-.3 6.4-3.7 7.5-6.2 7.5z"></path><path fill="#FFAB91" d="M46 45.4l-.9-.3-1.2-8.1-1.9-.6v13c1.5 0 5.3-1.9 5.3-1.9l-.2-.9c-.1-.6-.5-1.1-1.1-1.2z"></path><path fill="#FF4081" d="M55.8 33.8s-1.6-2.2-4-2.5c-2.3-.3-5.1.5-6.3.9-.4.1-.7.5-.7.9 0 .6.6 1.1 1.2 1.1 0 0 3.6-.8 5.4-.6 1.8.2 4 .9 4 .9l.4-.7z" class="js-eyebrowRightGroup eyebrowRightGroup" data-svg-origin="50.30000114440918 32.86708927154541" style="transform-origin: 0px 0px 0px; transform: matrix(0.93969, 0.34202, -0.34202, 0.93969, 16.2747, -16.2215);"></path><path fill="#FFAB91" d="M42 54.5c-1.9 0-3-.1-4.5-.6.8.8 2 1.3 4.5 1.3s3.8-.5 4.5-1.3c-1.5.6-2.6.6-4.5.6zM47.1 51.9c-.6 0-2.5-.2-3.2-.3h-.7l-1.2.8-1.2-.9c-.2-.1-.4-.1-.7 0-.8.1-2.6.3-3.2.3-.8 0-1.1.4-1.1.4s2.3.6 6.2.6 6.2-.6 6.2-.6-.3-.3-1.1-.3zM55.1 38.4c-2.5-2.5-6.8-3.6-8.7.2 3-3.1 5.7-1.9 8.7-.2zM47.3 40c2 1.3 4.8 1.2 6.5-.5-2.2.9-3.8 1.1-6.5.5z"></path><g fill="#FF4081" class="js-eyesGroup eyesGroup" data-svg-origin="32 36.79999923706055" style="transform: matrix3d(1, 0, 0, 0, 0, 1, 0, 0, 0, 0, 1, 0, 0.860137, 0, 0, 1);"><circle cx="33.7" cy="38.5" r="1.7"></circle><circle cx="50.4" cy="38.5" r="1.7"></circle></g><path fill="#FFAB91" d="M29 38.4c2.5-2.5 6.8-3.6 8.7.2-3-3.1-5.8-1.9-8.7-.2zM36.8 40c-2 1.3-4.8 1.2-6.5-.5 2.2.9 3.8 1.1 6.5.5z"></path><g display="none" class="js-blinkGroup blinkGroup" style="display: none;"><path fill="#FFCCBC" d="M29 38.8s2.5 2.3 4.9 2.2c2.4-.1 3.8-2.2 3.8-2.2l4.2-2.9 2.8.8 1.7 2s1 2 3.7 2 5.2-2.4 5.2-2.4l-2.1-2.6-11.3-.4-11.4.7-1.8 2.1.3.7z"></path><path fill="#FFAB91" d="M54.9 38.6c-2.4 2.6-6.6 3.7-8.5 0 3.1 3.1 5.7 1.8 8.5 0zM29 38.8c2.4 2.5 6.8 3.6 8.7 0-3.1 3-5.8 1.7-8.7 0z"></path></g><path fill="#FF4081" d="M51.3 23.8c-.7-.3-1.2-1.3-1.5-2.4l.2.1s-.3-5.8-6.1-6.4-6.9 5.1-10.1 5.2-3.2.2-3.2.2.5 1.2 1.1 1.9c0 0-.1 0-.1.1.4.3.9.6 1.2.7 1 .3 3.6-.8 3.6-.8l-3 1.7c1.7 2.3 5.1 1.9 5.1 1.9 1 0 1.8-.1 2.3-.4-.9.9-2.1 1.5-2.1 1.5s1.8.5 4.1-1.1c.5-.3.8-.7 1.1-1.1-.1 1.6-.5 3.2-.5 3.2s1.3-1.3 1.9-2.6c.9-2.2.8-3.6.2-5.1 2.9 3.3 1.3 6.6 1.3 6.6l1.7-1.7c.1-.5.2-1 .3-1.6.3.2.6.5.8.6 1.6 1 3.4 0 3.4 0s-.6 0-1.7-.5z" class="js-fringeGroup fringeGroup" data-svg-origin="41.80000114440918 16.360187149047853" style="transform-origin: 0px 0px 0px; transform: matrix3d(0.987414, -0.158158, 0, 0, 0.158158, 0.987414, 0, 0, 0, 0, 1, 0, -2.06139, 6.81692, 0, 1);"></path></g></g></g>
		</g>
	</g>
</svg>