<svg version="1.1" xmlns="http://www.w3.org/2000/svg" xmlns:xlink="http://www.w3.org/1999/xlink" viewBox="0 0 83.7 100" preserveAspectRatio="xMidYMid meet">
	<g class="js-svgBg svgBg" data-svg-origin="41.75020217895508 57.64999771118164" style="transform-origin: 0px 0px 0px; transform: matrix(1, 0, 0, 1, 0, 0); fill: rgb(255, 255, 255);">
		<path d="M42.2,99.4h-0.9C18.6,99.4,0,80.8,0,58.1v-0.9c0-22.9,18.6-41.3,41.3-41.3h0.9c22.9,0,41.3,18.6,41.3,41.3v0.9
			C83.6,80.8,65.1,99.4,42.2,99.4z"></path>
	</g>
	<defs>
		<path id="SVGID_1_AH5JLM_CHARACTER-ITEM-PANEL" d="M42.2,99.4h-0.9C18.6,99.4,0,80.8,0,58.1v-0.9C0,34.3,0.2,0,0.2,0h83.2c0,0,0.2,34.3,0.2,57.2v0.9C83.6,80.8,65.1,99.4,42.2,99.4z"></path>
	</defs>
	<clipPath class="js-svgMask svgMask" id="SVGID_2_AH5JLM_CHARACTER-ITEM-PANEL" data-svg-origin="42 60.99999237060547" style="transform-origin: 0px 0px 0px; transform: matrix(1, 0, 0, 1, 0, 0);">
		<use xlink:href="#SVGID_1_AH5JLM_CHARACTER-ITEM-PANEL" overflow="visible"></use>
	</clipPath>
	<g clip-path="url(#SVGID_2_AH5JLM_CHARACTER-ITEM-PANEL)">
		<g class="js-svgCharacter svgCharacter" data-svg-origin="-3.3000001907348633 7.838294506072998" style="opacity: 1; transform: matrix(1, 0, 0, 1, 0, 0);">
			<g class="js-characterinnerGroup characterinnerGroup" data-svg-origin="41.650004386901855 110.24202375411987" style="transform-origin: 0px 0px 0px; transform: matrix(0.99939, 0.03489, -0.03489, 0.99939, 3.87276, -1.88641);"><path fill="#FFF" d="M82.2 92.3c0 .1 0 .1 0 0z"></path><path fill="#FFF" d="M85.3 77.8l1.3 1.5s0-6.4-5.2-10.7c.8-.5 1.8-1.1 1.8-1.1s-4-.7-4.1-.8c2.7-.4 3.4-1.9 3.4-1.9L81 65c-1.5.2-3.8-2.2-5.5-3.7-1.8-1.5-5.9-2.6-5.9-2.6l-56.8.2c-3.2.1-5.8 1.7-6.5 2.2l1.8.6.3.1c-.7.5-1.3 1-2 1.6-2 .9-4.6 3.5-5.9 4.6-1.3 1.1-2.4 1.5-2.4 1.5l2.3.7c0 .1-.1.1-.1.2L-2.4 72l1.3.7c-1.3 2.6-2.1 5.2-2.2 7.9 0 3.1.5 6.9 1.6 9.1l.9-2s.2 3.1 1.3 4.4c1.1 1.3 2.6 2.2 3.1 3.3s.7 2 .7 2l.7-2.3 2.7 3.1L79 91.1v3.3l2.1-3 1.2.9c.2-.4 3.9-7.2 3.4-11.6-.2-1.6-.4-2.9-.4-2.9z" class="js-offwhiteGroup offwhiteGroup"></path><g class="js-headGroup headGroup"><g class="js-headinnerGroup headinnerGroup" data-svg-origin="45.20054626464844 54.43850765228271" style="transform-origin: 0px 0px 0px; transform: matrix(0.99619, -0.08715, 0.08715, 0.99619, -4.57263, 4.14664);"><g class="js-hairGroup hairGroup" data-svg-origin="45.20054626464844 18.82429485321045" style="transform-origin: 0px 0px 0px; transform: matrix(0.99984, -0.01745, 0.01745, 0.99984, -0.321645, 0.791725);"><path fill="#3949AB" d="M72.2 60.8c-.6-3.8-2.6-6.6-4-8.8 2.7-1.9.8-5.7-1.2-8.6-.9-1.3-1.4-2.9-1.7-4.3-.2-3.9-.3-8-1-12.4C63 18.2 55.6 14 52 14c-1.5-3.3-24.9 1.8-24.9 1.8L23.6 72l36.8.2c6.2.6 12.8-4.8 11.8-11.4z"></path><path fill="#283593" d="M47 16.6l-16.2-.8-5.7 1.7-5.7 13.8-1.3 12.8 5 25.3 38.5-.5 3.5-8.3-4.6-35.2-3.3-7z"></path></g></g></g><path fill="#FFCCBC" d="M65.7 70.2C59 67.6 51.7 67 50.4 63s0-7.9 0-11.9c0-5-18.6-11-18.6 0 0 4 1.3 8 0 11.9-.3 1.1-1.1 1.8-2.2 2.6-2.6 1.6-7.4 2.8-10 3.6-1 .3-2 .7-3 1-3.5 1.4-9.8 5.6-9.8 12.9 0 7.8 1.1 25.9 1.1 25.9h66.5s1.1-18.1 1.1-25.9c0-7.4-6.2-11.5-9.8-12.9z"></path><path fill="#4DB6AC" d="M41.2 82l-1 2.6c-.2.5-.1 1 .2 1.3.4.5 1.1.5 1.6 0 .3-.4.4-.9.2-1.3l-1-2.6zM40.6 81l-.6-1v-3.6l.6-1.4h1.3l1.1 1.4V80l-1.1 1zM45.1 79.4l-1 2.6c-.2.5-.1 1 .2 1.3.4.5 1.1.5 1.6 0 .3-.4.4-.9.2-1.3l-1-2.6zM44.5 78l-.5-.4v-2.9l.5-.7h1.3l1.2.7v2.9l-1.2.4zM44.5 73l-.5-.8v-.7l.5-.5h1.3l1.2.5v.7l-1.2.8zM48.5 77.4l-.8 2.1c-.2.4-.1.8.2 1.1.4.4.9.4 1.3 0 .3-.3.3-.7.2-1.1l-.9-2.1zM48 76l-1-.5v-2.8l1-.7h.9l1.1.7v2.8l-1.1.5zM48 71l-1-.8v-.7l1-.5h.9l1.1.5v.7l-1.1.8zM51.6 75.4l-.8 2.1c-.2.4-.1.8.2 1.1.4.4.9.4 1.3 0 .3-.3.3-.7.2-1.1l-.9-2.1zM51.1 74l-1.1-.5v-2.1l1.1-.4h1l.9.4v2.1l-.9.5zM51.1 70l-1.1-.7v-1.1l1.1-1.2h1l.9 1.2v.7l-.9 1.1zM54.7 73.3l-.8 2.1c-.2.4-.1.8.2 1.1.4.4.9.4 1.3 0 .3-.3.3-.7.2-1.1l-.9-2.1zM54.3 72l-.3-.5v-1.4l.3-1.1h.9l.8 1.1v1.4l-.8.5zM57.8 70.9l-.8 2c-.2.4-.1.8.2 1 .4.4.9.4 1.3 0 .3-.3.3-.7.2-1l-.9-2zM40.6 74l-.6-.5v-1.2l.6-1.3h1.3l1.1 1.3v1.2l-1.1.5zM37.4 79.4l1 2.6c.2.5.1 1-.2 1.3-.4.5-1.1.5-1.6 0-.3-.4-.4-.9-.2-1.3l1-2.6zM38 78l1-.4v-2.9l-1-.7h-1.3l-.7.7v2.9l.7.4zM38 73l1-.8v-.7l-1-.5h-1.3l-.7.5v.7l.7.8zM34.1 77.4l.8 2.1c.2.4.1.8-.2 1.1-.4.4-.9.4-1.3 0-.3-.3-.3-.7-.2-1.1l.9-2.1zM34.5 76l.5-.5v-2.8l-.5-.7h-.9l-.6.7v2.8l.6.5zM34.5 71l.5-.8v-.7l-.5-.5h-.9l-.6.5v.7l.6.8zM30.9 75.4l.8 2.1c.2.4.1.8-.2 1.1-.4.4-.9.4-1.3 0-.3-.3-.3-.7-.2-1.1l.9-2.1zM31.4 74l.6-.5v-2.1l-.6-.4h-.9l-.5.4v2.1l.5.5zM31.4 70l.6-.7v-1.1l-.6-1.2h-.9l-.5 1.2v.7l.5 1.1zM27.8 73.3l.8 2.1c.2.4.1.8-.2 1.1-.4.4-.9.4-1.3 0-.3-.3-.3-.7-.2-1.1l.9-2.1zM28.2 72l.8-.5v-1.4l-.8-1.1h-.9l-.3 1.1v1.4l.3.5zM24.7 70.9l.8 2c.2.4.1.8-.2 1-.4.4-.9.4-1.3 0-.3-.3-.3-.7-.2-1l.9-2z"></path><path fill="#FF1744" d="M41.5 99c-4.3-.8-9.5-14.3-27.5-6.5V109h55V92.5c-19-7.8-23.2 5.7-27.5 6.5z"></path><g class="js-foregroundGroup foregroundGroup" data-svg-origin="0.10780715942382812 73.15410614013672" style="transform: matrix(1, 0, 0, 1, 0, 0);"><g class="js-shoulderLeftGroup shoulderLeftGroup" data-svg-origin="0.10780715942382812 73.5456771850586" style="transform: matrix(1, 0, 0, 1, 0, -2);"><path fill="#FFF" d="M19.9 104.3c-.9-6 1.9-8.3 1.3-13.4l1.8 3.4s.6-1.8.4-3.1c-.2-1.4-2-3.7-2-3.7l2.4.9s-.9-3.2-2.2-5.4c-2-3.3-6.8-7.7-11.1-9.2s-15.6 3.5-7.6 18.6c6.1 5.4 8.2 15.5 11.3 20 4.7 6.7 8.6 12.9 9.6 6.6.3-1.5-3-8.6-3.9-14.7z" class="js-offwhiteGroup offwhiteGroup"></path></g><g class="js-shoulderRightGroup shoulderRightGroup" data-svg-origin="54.099998474121094 73.15410614013672" style="transform: matrix(1, 0, 0, 1, 0, -1);"><path fill="#FFF" d="M72.2 73.7c-2.2.7-6.8 4.1-8.5 5.2-1.7 1-3 1-4.6 1.3l2 1.3c-1.7.9-2.6 2-3.5 4.1-.8 1.8-3.5 3.1-3.5 3.1s3 1.8 4.6-.6l-3.1 4.4 2.7-.2c.1 3.2 1.6 5.5 2.1 9.2 1 8.6-2.1 15.9-1.8 17.5 1 6.3 4.9 0 9.6-6.6 3.1-4.4 1.8-12.6 7.9-17.9 2.3-2 4.4-3.5 6.1-5.1 0 0 4.9-6.7 1.3-12.5-3.6-5.7-11.3-3.2-11.3-3.2z" class="js-offwhiteGroup offwhiteGroup"></path></g></g><g class="js-headGroup headGroup"><path fill="#FFAB91" d="M50.2 55.6c.2-1.5.3-2.6.3-4.6 0-5-18.6-5-18.6 0 0 2 .2 3.2.3 4.7 1.1 1.1 2.4 2.2 4.1 3.7 2 1.7 4.8 1.7 4.8 1.7s2.8.1 4.8-1.6c1.8-1.6 3.2-2.8 4.3-3.9z"></path><g class="js-headinnerGroup headinnerGroup" data-svg-origin="40.90007400512695 53.04894742965698" style="transform-origin: 0px 0px 0px; transform: matrix(0.99619, -0.08715, 0.08715, 0.99619, -4.46788, 3.76654);"><g fill="#FFCCBC"><path d="M27.5 33.4c-.1-.1.1.2 0 0z"></path><path d="M55.6 36.8c-.1-.6-.2-1.2-.4-1.9-.6-1.9-.6-5-1.2-7.8-.3-1.9-1.3-5.6-4.6-7.2-.4-.1-1.5-.4-1.6-.4-3 .8-8.8-.4-14 .1-5.8 1.3-5.5 9-6.3 13.7-.6 5.3-.1 9.2.2 11.9 0 .1 0 .2.1.3.8 3.8 1.8 5.9 8.5 11.7 2 1.7 4.9 1.7 4.9 1.7s2.9 0 4.9-1.7c5.4-4.6 7.1-6.9 8-9.5.5-2.1 1.9-6.7 1.5-10.9z"></path></g><path fill="#FFAB91" d="M41.2 45.4l1.3-.9c.8-.4 1.7-.3 1.3-1.3l-2.6-5.5v7.7z"></path><path fill="#3949AB" d="M29.2 34.9s4.3-2 7-.2c1.3.8 2.1 2.7 2.1 2.7-1.1-1.3-1.7-2.4-5-2.2-1.3.1-3 .8-3 .8l-1.1-1.1z"></path><path fill="#FF1744" d="M46.5 50.1c-1 0-3.5-1.4-3.5-1.4-.6-.3-1.9.3-1.9.3s-1.3-.6-1.9-.3c0 0-2.5 1.4-3.5 1.4.9.7 1.6 1.9 5.3 1.8 3.9.1 4.6-1.2 5.5-1.8z" class="js-mouthGroup mouthGroup" data-svg-origin="41.099998474121094 50.260934829711914" style="transform-origin: 0px 0px 0px; transform: matrix(0.75, 0, 0, 1.05, 10.275, -2.51305);"></path><path fill="#3949AB" d="M53.2 35.1s-4.3-2.2-7-.4c-1.3.8-2.1 2.7-2.1 2.7 1.1-1.3 1.7-2.4 5-2.2 1.3.1 3 .8 3 .8l1.1-.9z"></path><path fill="#3949AB" d="M38 30.7c-1.7-.6-4.1-1.6-5.4-1.7-1.7-.1-3.8 2.4-3.8 2.4 1.9-1.6 3.2-1.4 4.4-.8 1 .6 3.2 1.4 5 1.7.8.1.2-1.5-.2-1.6z" class="js-eyebrowLeftGroup eyebrowLeftGroup" data-svg-origin="33.69716453552246 30.650787353515625" style="transform-origin: 0px 0px 0px; transform: matrix(1, 0, 0, 1, 0, 0.5);"></path><path fill="#3949AB" d="M44.3 30.7c1.7-.6 4.1-1.6 5.4-1.7 1.7-.1 3.8 2.4 3.8 2.4-1.9-1.6-3.2-1.4-4.4-.8-1 .6-3.2 1.4-5 1.7-.7.1-.1-1.5.2-1.6z" class="js-eyebrowRightGroup eyebrowRightGroup" data-svg-origin="48.63697624206543 30.650787353515625" style="transform-origin: 0px 0px 0px; transform: matrix(1, 0, 0, 1, 0, -1);"></path><g class="js-hairGroup hairGroup" data-svg-origin="40.90007400512695 14.29695920944214" style="transform-origin: 0px 0px 0px; transform: matrix(0.99984, -0.01745, 0.01745, 0.99984, -0.243287, 0.715982);"><path fill="#3949AB" d="M19 72.2c.2 0 .3.1.5.1 1.2.2 2.5.2 3.9-.3 2.6-.8 4.5-2.2 5.5-4.2.1-.2.2-.3.2-.5.3-.7.5-1.4.6-2 .1-.7.1-1.3.2-1.6v-.5-.4c-.3-2.8-2.7-5.1-5.8-5.5 1.6-.4 2.7-1.7 2.7-1.7 2.2-2.4.6-6.1-.9-7.7-1.4-.2-2.8-1-3.7-1.8-2.5-2.2-1-6.6 1.2-7.8-4.3 4.5 1.4 8 4.3 7 0 0 2.7-1.1 2.9-3.2.4-3.6-2.1-6.9-2.9-8.4-2.3-4.3-4.3-10.6-.9-14.2 3.4-3.6 7 0 7 0s1.8 1.2 3 1.4c.7.1 8.3-.5 10.9-1.4.4.1 1.2.2 1.7.4.5 2.6 3.7 6.3 4.5 7 1.1.9 2.5 2.3 3.1 2.7 1.2-3.2 1.7-7.1-.1-10.5 4.3 5.1 1.3 11.6-1.3 17.7-2 4.5-1.9 8.5-1.9 8.5 0 .7.1 1.5.3 2.2.2 1.8 1.1 3.1 2.3 4.2 2.5 2.4 6.2 4 6.3 8-.5-1.1-1.9-2.7-3.7-3.3-2.9-.9-6.6.5-8.3 2.5-.3.4-.5.8-.7 1.2-.1.3-.2.5-.4.8 0 .1-.1.2-.1.3l-.3 1.2c-.8 4.6 4.4 8 9 7.6 2.7-.3 6.3-1.4 7.6-2.3 4.8-2.9 5-7.8 4.8-10.1S68.3 52 68.3 52v-.1c2.7-1.9.8-5.7-1.2-8.6-.9-1.3-1.4-2.9-1.7-4.3-.2-3.9-.3-8-1-12.4C63 18.2 55.6 14 52 14c-1.5-3.3-9.4-9.6-20.4-3.8 0 0-3.6 2.5-5.7 4.1-2.1 1.6-4.6 4.9-5 9.8-.4 4.9-4.1 6.9-5.8 13.7-1.2 4.9-.9 11.3 2.1 13.7-2.4 3.3-5.4 6.1-5.9 10.5-.5 4.3 2.9 8.8 7.4 10.1.1 0 .2.1.3.1z"></path><path fill="#283593" d="M35.1 10.8c2.5-.8 5.6-1.1 8 .3 1.2.7 1.9 1.6 2.4 2.9.4 1.2.4 2.7 1.6 3.5-2.2-.8-2.1-4.4-4.2-5.7-2.3-1.4-5.3-1.2-7.8-1zM23.8 32.1c.7 2.9 6.1 6.7 3.7 9.6 1.4-3.4-3.9-5.9-3.7-9.6zM37.2 19.4c-2-1-3-3.3-5.3-3.9-2.3-.6-5.1.2-6.5 2.2.9-2.4 3.9-3.4 6.3-2.9 2.7.5 3.5 3.1 5.5 4.6zM32.5 12.9c1.9-.9 4 .6 4.2 2.6-1.2-1.4-2.3-2.3-4.2-2.6zM61.6 29.5c-.1 3.6-1.8 6.8-2.7 10.1-.6 2.1-1.1 6.9 2.9 6.9-1.5 0-2.9-.2-3.6-1.5-.9-1.7-.6-3.8-.1-5.6 1.1-3.4 2.8-6.5 3.5-9.9zM53 60.2c-1 3.8 2.6 5.8 5.8 6.3-3.3.7-8.5-2.5-5.8-6.3zM21.7 54.8c-1.2 2.7-3.5 5.2-2.7 8.4.4 1.3 1.6 2.2 2.9 2.5 1.2.2 3-.1 3.2-1.6.1-.9-.5-1.8-1.5-2 2.1 0 3 2.4 1.1 3.8-1.6 1.2-4 .8-5.4-.4-3.5-3.4.4-7.9 2.4-10.7z"></path></g><g><circle fill="#3949AB" cx="34.1" cy="36.4" r="1.7"></circle></g><path fill="#FFAB91" d="M36.4 37.9c-1.7 1-4.3.7-5.4-1.1.8.5 1.6.9 2.6 1 .9.1 1.8 0 2.8.1z"></path><g><circle fill="#3949AB" cx="48.2" cy="36.4" r="1.7"></circle></g><path fill="#FFAB91" d="M46 37.9c.9 0 1.9.1 2.8-.1.9-.2 1.7-.6 2.6-1-1.1 1.8-3.7 2.1-5.4 1.1z"></path><g display="none" class="js-winkGroup winkGroup" style="display: none;"><path fill="#FFCCBC" d="M43.7 37.1l2.4 1.4 3.1-.1 4.7-3.2-3.4-1.4-4.3.3z"></path><path fill="#3949AB" d="M53.3 36.2s-3.2 3.5-6.4 2.8c-1.5-.3-2.9-1.7-2.9-1.7 1.5.8 2.5 1.6 5.5.2 1.1-.6 2.5-1.9 2.5-1.9l1.3.6z"></path></g></g></g></g>
		</g>
	</g>
</svg>